<?xml version="1.0" encoding="utf-8"?>
<!-- Generator: Adobe Illustrator 29.1.0, SVG Export Plug-In . SVG Version: 9.03 Build 55587)  -->
<svg version="1.0" xmlns="http://www.w3.org/2000/svg" xmlns:xlink="http://www.w3.org/1999/xlink" x="0px" y="0px"
	 viewBox="0 0 297.6 419.5" style="enable-background:new 0 0 297.6 419.5;" xml:space="preserve">
<g id="Layer_1">
	<rect x="-301.1" y="195.5" style="fill:none;" width="230.5" height="28.6"/>
	<text transform="matrix(1 0 0 1 -234.1978 205.4236)"><tspan x="0" y="0" style="font-family:'Futura-Bold'; font-size:12px;">Fernandez Luïz</tspan><tspan x="-53" y="14.4" style="font-family:'Futura-Bold'; font-size:12px;">grafisch ontwerper in opleiding  </tspan></text>
	<path d="M88.3,91.5L88.3,91.5c0-0.1,0-0.1,0.1-0.2C88.3,91.4,88.3,91.5,88.3,91.5z M88.1,92.1L88.1,92.1c0-0.1,0.1-0.2,0.1-0.3
		C88.1,91.9,88.1,92,88.1,92.1z M87.7,93.1L87.7,93.1c0-0.1,0.1-0.2,0.1-0.2C87.8,92.9,87.8,93,87.7,93.1z M72,73.3L72,73.3
		c0,0.1,0.1,0.2,0.1,0.3C72.1,73.5,72,73.4,72,73.3z M60.9,73.9L60.9,73.9c0.1-0.1,0.1-0.2,0.2-0.3C61,73.7,60.9,73.8,60.9,73.9z
		 M60.4,75.1L60.4,75.1c0.1-0.1,0.1-0.3,0.2-0.4C60.5,74.8,60.5,74.9,60.4,75.1z M60.3,75.5L60.3,75.5c0-0.1,0.1-0.1,0.1-0.2
		C60.3,75.3,60.3,75.4,60.3,75.5z"/>
	<path d="M3.3,265.6c-0.1-0.1-0.1-0.1-0.2-0.2c0.1,0.1,0.2,0.2,0.3,0.3C3.4,265.7,3.3,265.6,3.3,265.6z M4.3,267
		C4.3,267,4.3,267,4.3,267C4.3,267,4.3,267,4.3,267C4.3,267.1,4.3,267,4.3,267z M4.4,267.3c0-0.1-0.1-0.2-0.1-0.2
		c0.1,0.2,0.1,0.3,0.2,0.5C4.5,267.5,4.5,267.4,4.4,267.3z M5.9,293.5c0.1,0,0.1-0.1,0.2-0.1c0.1,0,0.1-0.1,0.2-0.1
		C6.1,293.4,6,293.5,5.9,293.5z M7.9,232.1L7.9,232.1c0,0,0-0.1,0.1-0.1C7.9,232,7.9,232,7.9,232.1z M8,231.8L8,231.8
		c0,0,0-0.1,0.1-0.1C8,231.7,8,231.8,8,231.8z M8.1,231.6L8.1,231.6c0-0.1,0.1-0.2,0.1-0.3C8.1,231.4,8.1,231.5,8.1,231.6z M8.2,231
		C8.2,231,8.2,231.1,8.2,231C8.2,231.1,8.2,231,8.2,231c0-0.1,0-0.1,0-0.2C8.2,230.9,8.2,231,8.2,231z M8.1,231.3L8.1,231.3
		C8.2,231.3,8.2,231.2,8.1,231.3C8.2,231.2,8.2,231.3,8.1,231.3z M8.3,230.4L8.3,230.4c0-0.1,0-0.2,0.1-0.3
		C8.4,230.2,8.4,230.3,8.3,230.4z M8.5,229.4L8.5,229.4c0,0,0-0.1,0-0.1C8.6,229.4,8.6,229.4,8.5,229.4z M24,93.1
		C24,93.1,24,93.1,24,93.1L24,93.1C24,93.1,24,93.1,24,93.1z M25.3,64.5c0,0.1,0,0.2,0,0.3c0,0.2,0,0.3,0,0.5c0-0.3,0.1-0.6,0.1-0.8
		C25.3,64.4,25.3,64.5,25.3,64.5z M25.1,66.1c0-0.3,0-0.6,0.1-0.9C25.2,65.5,25.1,65.8,25.1,66.1c-0.1,1.4,0,2.7,0.2,3.9
		C25.1,68.8,25,67.5,25.1,66.1z M25.5,63.5c0,0.1,0,0.1,0,0.2c0,0,0,0.1,0,0.1c0-0.3,0.1-0.6,0.2-0.9C25.5,63.1,25.5,63.3,25.5,63.5
		z M25.9,61.7c0,0.2-0.1,0.4-0.1,0.6c0.1-0.4,0.2-0.8,0.3-1.2C26,61.3,25.9,61.5,25.9,61.7z M28.1,55.7c-0.1,0.3-0.3,0.7-0.4,1
		C27.8,56.4,28,56,28.1,55.7C28.1,55.7,28.1,55.7,28.1,55.7z M30.4,49.3L30.4,49.3C30.4,49.3,30.4,49.3,30.4,49.3
		C30.4,49.3,30.4,49.3,30.4,49.3z M32.7,197.1c-0.1-0.1-0.1-0.2-0.2-0.2h0C32.6,197,32.7,197.1,32.7,197.1
		C32.7,197.2,32.7,197.2,32.7,197.1z M33.5,198.2L33.5,198.2c0,0.1,0.1,0.2,0.2,0.3C33.6,198.4,33.5,198.3,33.5,198.2z M33.3,205.1
		L33.3,205.1c0.1-0.1,0.2-0.2,0.4-0.4C33.6,204.8,33.5,205,33.3,205.1z M33.8,198.7L33.8,198.7c0,0.1,0.1,0.2,0.1,0.2
		C33.9,198.9,33.8,198.8,33.8,198.7z M34.1,199.2L34.1,199.2C34.1,199.3,34.1,199.3,34.1,199.2C34.1,199.3,34.1,199.3,34.1,199.2z
		 M34.4,199.7L34.4,199.7c0,0.1,0.1,0.2,0.1,0.2C34.5,199.9,34.4,199.8,34.4,199.7z M58.4,81.8C58.4,81.8,58.4,81.9,58.4,81.8
		C58.4,81.8,58.4,81.8,58.4,81.8C58.4,81.8,58.4,81.8,58.4,81.8z"/>
	<path d="M8.2,231L8.2,231c0-0.1,0-0.1,0-0.2C8.2,230.9,8.2,231,8.2,231z"/>
	<path d="M2.2,237.3L2.2,237.3c0,0,0.1,0.1,0.2,0.2C2.3,237.4,2.2,237.3,2.2,237.3z M23.1,227.6c0,0.2,0,0.4,0,0.6
		c0,0.5,0,1-0.2,1.5c0,0.1,0,0.1-0.1,0.2c0-0.1,0.1-0.2,0.1-0.2C23.1,229,23.1,228.3,23.1,227.6z M33.7,204.7L33.7,204.7
		c0,0.1,0.1,0.1,0.1,0.2C33.8,204.8,33.8,204.8,33.7,204.7z M34.7,205.9C34.7,205.9,34.7,205.9,34.7,205.9L34.7,205.9
		C34.8,205.9,34.7,205.9,34.7,205.9z M35,206.3C35,206.3,35,206.3,35,206.3L35,206.3C35,206.3,35,206.3,35,206.3z"/>
	<path d="M223.9,156.5c-1,3.3,0.3,5.6-1.4,9l-2.1-0.7c1.8-2.9-0.3-2.5-0.6-3.3c-0.5-1.2-0.8-2.5-1.2-3.7c-0.5-1.4-1.1-2.7-2.3-3.6
		l1.4-1.4l-2-2.1c3.6-1.4,1.2-3.5,1.8-6.4c0.2-1.2,0.7-1.9,1.2-2.6c0.5-0.7,1-1.3,1.1-2c0.3-1.5-0.5-1.7-1.1-2
		c-0.4-0.2-0.7-0.4-0.8-0.8c-0.8-2.2,0-6.2,0.8-9.9c0.5-2.6,1.1-5,1.1-6.6c0-1.5-1.1-2.1-1.1-2.7c-0.1-0.8,2.2-8.1,2.4-10.4
		c1-10.6-3.5-19-4.6-28.9c-1.6-13.1,3.8-37-1.3-50.5c-0.8-2.1-1.8-4-3.2-5.5c-1.3-1.4-3-2.1-4.2-3.4c0,0,0,0,0,0
		c-0.1-0.2-1.2-1.8-3-4.2c-0.2-0.3-0.4-0.5-0.6-0.8c-1.6-2.2-3.6-4.9-5.8-7.7c-1.1-1.3-2.2-2.7-3.4-4.1c-0.6-0.8-1.3-1.5-1.9-2.2H84
		c-5.3,5.3-11.8,8.8-16.4,10.7c-3.5,2.7-6.6,5.9-10.1,8.7c-0.6,0.5-0.9,1.7-1.5,2c-2,1.3-4.5-0.7-6.4-0.2
		c-2.5,0.7-8.4,9.2-10.5,11.6c-2.9,3.4-7.6,6.6-8.9,11.1c-0.6,2.1,0.4,3.2,0.1,4.8c0,0.1,0,0.2-0.1,0.3c0,0.1,0,0.1,0,0.2
		c0,0,0,0.1,0,0.1l0,0c0,0.1,0,0.1,0,0.2c-0.1,0.3-0.1,0.6-0.2,0.9c0,0.2-0.1,0.4-0.1,0.5c-0.2,0.6-0.4,1.2-0.6,1.8
		c-0.1,0.3-0.3,0.7-0.4,1c-0.3,0.7-0.6,1.3-0.9,2v0c-0.1,0.3-0.3,0.7-0.5,1c-0.1,0.2-0.1,0.3-0.2,0.5c-0.1,0.2-0.2,0.5-0.3,0.7
		c-0.1,0.1-0.1,0.3-0.2,0.4c-0.1,0.3-0.2,0.5-0.3,0.8c-0.1,0.3-0.2,0.5-0.3,0.8c-0.1,0.4-0.2,0.8-0.4,1.2c-0.1,0.4-0.2,0.8-0.3,1.2
		c-0.1,0.2-0.1,0.4-0.1,0.6c-0.1,0.3-0.1,0.6-0.2,0.9c0,0.1,0,0.1,0,0.2s0,0.1,0,0.2c0,0.1,0,0.2,0,0.2c0,0.3-0.1,0.6-0.1,0.8
		c0,0.3,0,0.6-0.1,0.9c-0.1,1.4,0,2.7,0.2,3.9c0,0,0,0,0,0c0.1,0.4,0.1,0.8,0.2,1.3c0.1,0.4,0.2,0.7,0.2,1c0,0.2,0.1,0.3,0.1,0.5
		c0.2,0.8,0.4,1.7,0.5,2.5c0,0.2,0,0.4,0.1,0.5c0,0.1,0,0.2,0,0.2c0,0.2,0,0.3,0,0.4c0,0.1,0,0.1,0,0.2c0,0.1,0,0.3,0,0.4
		c0,0.2,0,0.3,0,0.5c0,0.3,0,0.5-0.1,0.8c0,0.1,0,0.2-0.1,0.4c-0.2,0.9-0.5,1.7-0.8,2.5c-0.1,0.2-0.1,0.3-0.2,0.4
		c-0.2,0.5-0.5,1.1-0.8,1.6c-0.1,0.2-0.2,0.3-0.2,0.5c-0.1,0.2-0.2,0.5-0.3,0.7c-0.1,0.2-0.2,0.5-0.3,0.7c-0.1,0.2-0.2,0.5-0.3,0.8
		c-0.1,0.3-0.2,0.6-0.2,0.9c-0.1,0.2-0.1,0.5-0.2,0.7c0,0.2-0.1,0.4-0.1,0.6c0,0.2,0,0.4,0,0.6c0,0.1,0,0.2,0,0.3c0,0.3,0,0.6,0,0.9
		c0,0.1,0,0.1,0,0.2c0,0.2,0,0.5,0.1,0.8c0,0.3,0.1,0.6,0.2,0.8s0.2,0.5,0.4,0.7c0.1,0.2,0.2,0.5,0.3,0.7c0,0,0,0,0,0
		c0,0,0,0.1,0.1,0.1c0.1,0.2,0.1,0.4,0.2,0.6c1,5-3.2,8.2-3.3,12.2c-0.1,3.6,2.2,11.4,4.2,14.5c-0.9,9.4-2.7,1.1-6.7-0.9
		c-6.1-3-9.6,0.9-13.2,5c-0.1,0.1-0.2,0.2-0.2,0.3c0,0,0,0,0,0c0,0,0,0,0,0.1c-0.2,0.2-0.3,0.5-0.4,0.7c0,0.1-0.1,0.2-0.2,0.3
		c-0.2,0.4-0.5,0.9-0.7,1.3c-0.1,0.2-0.2,0.3-0.4,0.5c-0.3,0.4-0.7,0.6-1.2,0.6c-0.7,0.7-1.3,1.5-2,2.2v227.9
		c0.9-0.8,1.8-1.5,2.4-2.1c2,1,4.7,0.8,6.6,1.6c0.1,0,0.1,0,0.2,0.1c2.6-1.3,7.3-3.8,9.3-2.1c0.8-2.3,1.5-4.7,2.4-6.5l2.1-0.4l0,4.6
		l2.3-4.5c2.9,2.3,6.9,3.3,9.6,5l3.9,0c1.5,5.8,4.5,10.2-3.4,12.3c0-0.3-0.1-0.7-0.1-1.1c0-0.1,0-0.2-0.1-0.4c0,0,0,0,0,0
		c0-0.2,0-0.3-0.1-0.5c-0.1-0.8-0.3-1.6-0.6-2.3c-3.4,2.1-10-0.2-10.6,4.1l-4-2c0,0,0,0,0,0c-0.3,0-0.5,0.1-0.8,0.1
		c-1.5,1.2-2.7,2.2-3.1,2.9c-3.3,0-3.9-0.6-3.4-1.6c-0.1-0.2,0-0.5,0.1-0.8c-0.3,0.1-0.6,0.2-0.9,0.3c-2.3,0.7-8.7,1.6-11.8,1.5v53
		h112.9l8-8.1c0.6-1,1.2-1.9,1.9-2.8c1.2-1.5,2.9-1.9,4.4-4.2c0.2-0.2,1-0.2,1.1-0.8c0.3-1.3,0-8,0.2-8.3c0.2-0.4,2-1.1,2.9-2.9
		c1.9-4,0.5-5.5,4.5-9.3c3.3-3.2,8.7-8.1,10.7-12.7c0.5-1.1,0.2-2.2,0.4-3.4l1.8-0.1c-0.4-2.8,1.5-2.8,2.2-3.9c2-3,9.2-14.7,10-17.3
		c0.4-1.3,0-3.3,0.4-4c0.2-0.4,4.2-3.8,5.3-5.4c2.5-4,3.9-9.9,6.4-13.6c1.8-2.6,8.3-7.7,9.6-10.4c0.5-1.1-0.2-2,0-2.3
		c0.3-0.4,2.8-1.1,3.6-2.2c0.7-0.9,6.3-13.4,6.4-14.2c0.1-2-2-5.1-1.6-7.8c0.5-3.8,5.8-8.3,5.1-11.1c-1.8-6.8,1.2-8.2,2.6-13.6
		c1.1-4-1-2.7,2.1-7.1c0.3-0.4-1.7-1.6,1.6-1.2c0.2-3.5-4.2,0.3-4.1-3.4c5.5-0.2,6.4-5.4,7.9-9.3c0.7-1.9,4.2-9.7,4.2-11
		c0-1-0.9-2-1-2.9c-0.3-4.4,2.2-3.3,2.6-4.1c1.8-3.2-0.3-10.1-0.4-13.8c-0.1-1.4,0.5-3,0.5-4.7c0-2.1-2-7,1.1-5
		c0.2,0.1,0.5,0.3,0.9,0.6l0-3.5l1.4,0.7c-2-4,1.5-4.1,2.6-6.7c1.9-4.7,1.2-14,3.4-20c0.7-2,2.1-2.5,2.6-3.6
		C225.4,163.5,227,158.3,223.9,156.5z M2,208.3c0-1.4,0-2.8,0-4.2c0-0.5,0-1,0-1.6c0-0.5,0-1,0-1.5c0-0.6,0-1.3,0-1.9
		c0-1.1,0.1-2.2,0.1-3.4c0-1.1,0.1-2.2,0.1-3.2c0-0.7,0.1-1.3,0.1-2c0-0.8,0.1-1.6,0.1-2.4c0.2-3,0.4-6.1,0.6-9.2
		c0.1-2.2-0.7-5.5-0.5-6.8c0-0.1,0.1-0.3,0.1-0.4c0-0.1,0.1-0.1,0.1-0.2c0-0.1,0.1-0.2,0.1-0.2c0-0.1,0.1-0.1,0.1-0.2
		c0.1-0.1,0.1-0.2,0.2-0.4c0.1-0.1,0.2-0.2,0.2-0.4c0.1-0.2,0.2-0.4,0.3-0.5c0-0.1,0.1-0.2,0.2-0.3c0-0.1,0.1-0.1,0.1-0.2
		c0,0,0-0.1,0-0.1c0,0,0-0.1,0.1-0.2c0-0.1,0-0.1,0.1-0.2c0,0,0,0,0-0.1c0-0.1,0-0.1,0.1-0.2c0,0,0,0,0,0c0-0.1,0-0.2,0.1-0.3
		c0-0.1,0-0.2,0-0.4c0.3-7.1-0.6-13.4,0-21.3c0.2-3.1-0.1-5.4,0-7.8c0.1-2,0.6-4.1,2-6.6c1.5-2.6,7.7-10.4,10.8-7
		c1.9,2,1.8,8,3.6,10.5c-0.9,10.2,1.2,20,4.5,29.2c0.8,2.4,1.7,4.6,2.8,6.9l1.7,0c0.6,1.8-1.9,1.7-2.1,2.5c-0.3,1.7,2,8.9,2.9,10.8
		c2.8,5.6,4.1,5.3,5.4,12.4c0,0.1,0.2,0.6,0.4,1.1c0,0.1,0.1,0.2,0.1,0.2c0.2,0.4,0.3,0.8,0.4,1.2c0,0.1,0,0.2,0,0.2
		c0,0.1,0,0.1,0,0.2v0c0,0.1,0,0.1,0,0.2c0,0.1,0,0.2,0,0.2c0,0.1,0,0.1,0,0.2c0,0.1,0,0.2-0.1,0.2c0,0-0.1,0.1-0.2,0.1
		c-0.3,0.1-0.7,0-1.5-0.4c-0.1,0-0.2-0.1-0.2-0.2l-0.1-0.1c0,0,0-0.1-0.1-0.1c-0.1-0.1-0.1-0.2-0.2-0.2c0-0.1-0.1-0.1-0.1-0.2
		c0-0.1-0.1-0.1-0.1-0.2c-0.1-0.1-0.1-0.1-0.2-0.2c0,0,0-0.1-0.1-0.1c0-0.1-0.1-0.2-0.2-0.3c0,0,0,0,0-0.1c0-0.1-0.1-0.2-0.2-0.2
		c0-0.1-0.1-0.2-0.2-0.2c0-0.1-0.1-0.2-0.2-0.3c-0.1-0.1-0.1-0.2-0.2-0.3c0-0.1-0.1-0.2-0.2-0.3c-0.1-0.1-0.1-0.2-0.2-0.3
		c-0.1-0.1-0.1-0.2-0.2-0.3c0,0-0.1-0.1-0.1-0.1c0,0,0-0.1-0.1-0.1c-0.1-0.1-0.1-0.2-0.2-0.3c-0.1-0.1-0.1-0.2-0.2-0.2
		c-0.1-0.2-0.3-0.3-0.4-0.5c-0.1-0.1-0.2-0.2-0.3-0.3c-0.1-0.1-0.2-0.2-0.4-0.3c-0.2-0.1-0.3-0.2-0.5-0.3c-0.1-0.1-0.3-0.1-0.4-0.2
		c-0.1,0-0.2-0.1-0.3-0.1c-0.1,0-0.2,0-0.3-0.1c-0.1,0-0.1,0-0.2,0c0,0-0.1,0-0.1,0c-0.1,0-0.2,0-0.3,0c-0.1,0-0.1,0-0.2,0h0
		c-0.1,0-0.1,0-0.2,0c0,0,0,0,0,0c-0.2,0-0.4,0.1-0.6,0.2c-0.1,0-0.3,0.1-0.4,0.1c-0.3,0.1-0.5,0.3-0.8,0.4
		c-1.8,2.6,1.6,4.3,1.7,5.8c0.1,2-2.2,9.8,0.5,10.6l2.3,0.1c0-0.4,0-0.9,0-1.3c0-0.3,0-0.7,0.1-1c0-0.3,0.1-0.5,0.1-0.8
		c0-0.2,0.1-0.4,0.1-0.5c0-0.1,0-0.2,0-0.2c0-0.2,0.1-0.4,0.2-0.6c0-0.1,0.1-0.2,0.1-0.3c0.1-0.2,0.2-0.5,0.3-0.7
		c0-0.1,0.1-0.1,0.1-0.2c0.2-0.3,0.4-0.7,0.6-1c0-0.1,0.1-0.1,0.2-0.2c0.1-0.1,0.2-0.2,0.3-0.3v0c0.1-0.1,0.2-0.2,0.4-0.4l0,0
		c0,0.1,0.1,0.1,0.1,0.2c0,0,0,0,0,0l0.2,0.2c0.1,0.1,0.2,0.3,0.3,0.4c0.1,0.1,0.2,0.2,0.3,0.4c0,0,0,0,0,0.1c0,0,0.1,0.1,0.1,0.2
		c0,0.1,0.1,0.1,0.1,0.2c0,0,0,0,0.1,0.1c0.1,0.1,0.2,0.3,0.3,0.4c0.1,0.2,0.3,0.5,0.4,0.7c0.1,0.1,0.1,0.2,0.2,0.4
		c0.1,0.1,0.1,0.2,0.2,0.4c0.1,0.2,0.2,0.5,0.3,0.7c0,0.1,0.1,0.2,0.1,0.3c0,0.1,0.1,0.3,0.1,0.5c0,0.1,0.1,0.2,0.1,0.4
		c0,0.1,0,0.1,0,0.2c0,0,0,0.1,0,0.1c0,0.3,0.1,0.6,0.1,0.9c0,0.1,0,0.2,0,0.3c0,0.4,0,0.7,0,1.1c0,0.1,0,0.1,0,0.2c0,0,0,0,0,0
		c0,0,0,0,0,0s0,0,0,0c0,0.2,0,0.4-0.1,0.5c0,0,0,0.1,0,0.1c0,0.1,0,0.1,0,0.2c0,0,0,0.1,0,0.1c0,0.2-0.1,0.4-0.1,0.6c0,0,0,0,0,0
		c0,0.1,0,0.2-0.1,0.2c-0.1,0.3-0.2,0.6-0.2,0.9c-0.5,0.1-0.9,0-1.2-0.2c-0.1-0.1-0.1-0.1-0.2-0.2c0,0,0,0,0,0
		c-0.1-0.1-0.2-0.2-0.3-0.3c-0.1-0.1-0.2-0.3-0.4-0.4c0,0-0.1-0.1-0.1-0.1c-0.1-0.1-0.1-0.1-0.2-0.2c0,0,0,0,0,0c0,0,0,0-0.1,0
		c-0.1-0.1-0.2-0.1-0.3-0.2c-0.1,0-0.1,0-0.2-0.1c-0.2,0-0.4,0-0.5,0c-0.1,0-0.2,0-0.3,0c-0.1,0-0.2,0-0.2,0c-0.1,0-0.2,0-0.3,0.1
		c-0.1,0-0.2,0.1-0.3,0.1c0,0,0,0,0,0c-0.1,0.1-0.2,0.1-0.3,0.2c0,0.1-0.1,0.1-0.1,0.2c-0.1,0.1-0.2,0.3-0.2,0.4
		c0,0.1-0.1,0.2-0.1,0.2c0,0.1-0.1,0.2-0.1,0.2c0,0.1-0.1,0.2-0.1,0.4c0,0,0,0,0,0c0,0.1,0,0.3-0.1,0.4c0,0.1,0,0.3,0,0.4v0.1
		c0,0.1,0,0.2,0,0.4c0,0.3-0.1,0.6-0.1,0.9c0,0.2-0.1,0.3-0.1,0.4c0,0.1-0.1,0.3-0.1,0.4c0,0.1-0.1,0.3-0.1,0.4
		c-0.1,0.1-0.3,0.1-0.5,0.1c0,0-0.1,0-0.1,0c0,0,0,0,0,0c-0.1,0-0.1,0-0.2-0.1c-0.1,0-0.2-0.1-0.4-0.1c-0.1-0.1-0.3-0.1-0.4-0.2
		c-0.1,0-0.2-0.1-0.2-0.1c-0.4-0.3-0.9-0.6-1.4-1c-0.2-0.1-0.3-0.3-0.5-0.4c-0.6-0.5-1.2-1-1.8-1.5c-0.1-0.1-0.2-0.2-0.2-0.2
		c-0.6-0.5-1.2-0.9-1.4-1c-3.5-1-11.9,0.4-14.7,2.9c-2.4,2.2-2.2,5.4-3.8,7.9c-0.1,0-0.2-0.1-0.3-0.2c0,0,0,0,0-0.1c0,0,0,0,0-0.1
		c0,0,0-0.1-0.1-0.1c0,0,0,0,0,0c0,0-0.1-0.1-0.1-0.2c0-0.1-0.1-0.2-0.1-0.3c0,0,0-0.1,0-0.1c0-0.2-0.1-0.3-0.1-0.5c0,0,0-0.1,0-0.1
		c-0.1-0.4-0.2-0.8-0.3-1.2c0-0.1,0-0.2-0.1-0.3c0-0.1,0-0.2-0.1-0.3c0-0.2-0.1-0.4-0.1-0.6c0-0.2-0.1-0.4-0.1-0.5
		c0-0.1,0-0.2,0-0.3c0-0.1,0-0.2,0-0.2c0-0.1,0-0.2,0-0.2c-0.1-0.5-0.1-1-0.1-1.2c-0.1-1.1-0.2-2.2-0.2-3.2c-0.1-1-0.1-2-0.1-3v0
		c0-0.2,0-0.4,0-0.5c0-0.4,0-0.9,0-1.3c0-0.4,0-0.8,0-1.2c0-0.3,0-0.6,0-0.9V208.3z M1,234.3c1.1,0,2-0.1,2.8-0.2c0.1,0,0.2,0,0.3,0
		c0.5-0.1,0.8-0.1,1.2-0.2c0.1,0,0.2,0,0.3-0.1c0,0,0,0,0.1,0c0.2-0.1,0.5-0.2,0.7-0.2c0.1,0,0.2-0.1,0.3-0.2c0,0,0,0,0,0
		c0.1,0,0.2-0.1,0.3-0.2c0.2-0.1,0.3-0.2,0.4-0.3c0,0,0.1-0.1,0.1-0.1c0,0,0.1-0.1,0.1-0.1c0-0.1,0.1-0.1,0.1-0.2c0,0,0-0.1,0.1-0.1
		c0,0,0,0,0,0c0,0,0,0,0,0c0,0,0,0,0-0.1c0,0,0-0.1,0-0.1c0,0,0-0.1,0.1-0.1c0,0,0,0,0-0.1c0,0,0,0,0-0.1c0,0,0-0.1,0.1-0.1
		c0,0,0-0.1,0-0.1c0-0.1,0.1-0.2,0.1-0.3c0,0,0-0.1,0-0.1c0,0,0-0.1,0-0.1c0,0,0,0,0-0.1c0-0.1,0-0.1,0-0.2s0-0.1,0-0.2
		c0-0.1,0-0.1,0-0.2c0,0,0-0.1,0-0.1c0-0.1,0-0.2,0.1-0.3c0,0,0-0.1,0-0.2c0-0.2,0.1-0.3,0.1-0.5c0,0,0-0.1,0-0.1c0,0,0,0,0,0
		c0,0,0-0.1,0-0.1c0.2-0.7,0.4-1.5,0.9-2.3c0.2-0.3,5-5.8,5.3-6c1.5-1,8.5-2.6,10-1.2h0c0.1,0.1,0.1,0.1,0.2,0.2
		c0.3,0.6,0.4,1.1,0.4,1.5c0,0.1,0,0.2,0,0.3c0,0.1,0,0.2-0.1,0.3c0,0.1-0.1,0.2-0.1,0.2c0,0.1-0.1,0.1-0.1,0.2
		c-0.1,0.2-0.2,0.3-0.3,0.4c-0.1,0-0.1,0.1-0.2,0.1c-0.1,0.1-0.1,0.1-0.2,0.2c-0.1,0-0.1,0.1-0.2,0.2c-0.1,0.1-0.3,0.2-0.4,0.3
		c-0.1,0.1-0.2,0.2-0.3,0.2c-0.1,0.1-0.2,0.2-0.2,0.2c0,0,0,0,0,0.1c0,0,0,0.1,0,0.1c-0.3,0.8-0.2,1.6-0.1,2.6c0,0.2,0,0.4,0,0.6
		c0,0.7,0,1.4-0.1,2.1c0,0.1,0,0.1-0.1,0.2c-0.1,0.1-0.1,0.3-0.2,0.5c-0.5,0.9-1.4,1.9-2.2,2.8c-0.1,0.1-0.2,0.2-0.2,0.3
		c-0.1,0.1-0.2,0.2-0.2,0.3c-0.2,0.2-0.4,0.4-0.5,0.6c-0.1,0.2-0.3,0.4-0.4,0.5c-0.6,0.8-0.8,2.8-1.6,3.4c-0.3,0.2-0.7,0.4-1.2,0.6
		c-0.2,0-0.3,0.1-0.5,0.2c-0.2,0.1-0.3,0.1-0.5,0.1c-0.3,0.1-0.7,0.2-1.1,0.3c-0.4,0.1-0.8,0.1-1.2,0.2c-0.1,0-0.1,0-0.2,0
		c-0.1,0-0.3,0-0.4,0.1c-0.1,0-0.2,0-0.2,0c-0.1,0-0.1,0-0.2,0c-0.3,0-0.5,0.1-0.8,0.1c-0.2,0-0.4,0-0.6,0c-0.2,0-0.5,0-0.7,0
		c-0.2,0-0.4,0-0.6,0c-0.4,0-0.7,0-1,0c-0.2,0-0.3,0-0.4,0c0,0,0,0,0,0c-0.2,0-0.5,0-0.7,0c-0.3,0-0.6,0-0.8-0.1
		c-0.1,0-0.2,0-0.4-0.1c0,0,0,0-0.1,0c-0.2,0-0.3-0.1-0.5-0.2c-0.2-0.1-0.4-0.2-0.7-0.3c-0.2-0.1-0.3-0.2-0.5-0.3
		c-0.1-0.1-0.3-0.2-0.4-0.2c-0.2-0.1-0.4-0.3-0.6-0.4c-0.1-0.1-0.3-0.2-0.4-0.3c-0.1-0.1-0.1-0.1-0.2-0.2c-0.1-0.1-0.2-0.2-0.3-0.3
		c-0.1-0.1-0.2-0.2-0.3-0.3c-0.1-0.1-0.2-0.2-0.2-0.3c-0.1-0.1-0.1-0.2-0.2-0.2c-0.1-0.1-0.1-0.2-0.2-0.4c0,0,0,0,0,0
		c0-0.1-0.1-0.1-0.1-0.2c0,0,0,0,0,0c0-0.1-0.1-0.1-0.1-0.2c0,0,0,0,0,0c0,0,0,0,0-0.1c0-0.1-0.1-0.1-0.1-0.2c0-0.1-0.1-0.2-0.1-0.4
		c0,0,0-0.1,0-0.1C1,234.8,1,234.5,1,234.3z M4.3,267.1c0,0,0-0.1,0-0.1C4.3,267,4.3,267,4.3,267.1C4.3,267,4.3,267.1,4.3,267.1
		c0,0.1,0.1,0.2,0.1,0.2c0,0.1,0.1,0.2,0.1,0.2C4.5,267.4,4.4,267.2,4.3,267.1z M3.1,265.4c0.1,0,0.1,0.1,0.2,0.2
		c0,0,0.1,0.1,0.1,0.1C3.3,265.6,3.2,265.5,3.1,265.4z M6.1,293.4c-0.1,0-0.2,0.1-0.2,0.1c0.1-0.1,0.3-0.2,0.4-0.3
		C6.2,293.3,6.2,293.4,6.1,293.4z M207.7,188.9c-0.8,1.3,0,3.1-0.3,4.3c-0.1,0.6-1.6,0.8-2.2,2c-0.6,1.2-2.6,8.5-2.5,9.6
		c0.2,1.4,1.8,3.3,1.9,5l-0.7,0.7c-1.2-0.8-3.2,2.4-3.4,3.4c-0.6,2.9,4.5-1.3,5.5,0c-1.2,0.9-7.3,3.7-7.5,4.9
		c-0.2,0.7,1,1.5,1.2,2.1c0.2,1.1-0.8,2.8-0.5,4.7c0.3,2,4.5,6.8-0.7,6.6c-0.6-1.9,1.1-1.2,1.3-1.4c0.6-0.9-0.7-3.3-2.4,0
		c-0.6,1.2,0.2,2.4-2.2,3.2c3.2,2.3-2.1,6.6-2.1,7c-0.2,1,0.8,2.5,0.6,3.3c-0.2,0.9-2.2,1.3-3,2.5c-0.6,0.9-0.7,2.1-0.8,3.3
		c-0.1,1.2-0.1,2.3-0.4,3.1c-0.6,1.6-3.7,0.4-0.6,4.9c-2.6,0.9-1.6,2.5-2.5,3.8c-1.2,1.9-2.6,3-3.8,5.9c-0.4,1,0.1,2.2,0,2.3
		c-0.3,0.2-1.4,0.1-1.9,0.4c-2.2,1.6-4.3,9.2-5.4,11.8c-1.3,3.1-5.2,5,1.1,7.8l0.1,0.9c-0.9,1.3-1.1,3.2-1.8,4.5
		c-1.8,3.3-4.6,6.9-6.2,9.9c-1.5,2.8-3.8,5.4-2.3,8.7c-3.7-0.8-2.8,1.7-3.6,2.6c-0.3,0.3-1.4-0.1-1.9,0.6c-1.3,1.7-0.5,4.8-3.4,8.2
		c-3.4,4-9.1,9.7-12,14.2c-4,6.3-7.2,13.4-11.6,19.3c-1,1.4-2.2,2.8-3.4,4c-0.7,0.7-1.5,1.4-2.2,2.1c-0.4,0.3-1,0.8-1.6,1.2
		c-1.1,0.8-2.3,1.6-2.5,2.2c-1.4,3,2.8,2.7,2.4,4.4c-1.4,0.9-1.6,2.6-2.4,3.8c-0.5,0.7-1.7,1-2,1.5c-0.6,0.9,0.7,2.4,0.4,2.7
		c-0.2,0.3-3.2,0.4-4,0.9c-0.4,0.2-5.7,5.8-6.4,6.5c-1.5,1.7-3.2,7-4.3,7.5c-2.4,1.3-2.4-0.2-5.8,3.2c-3.1,3.1-8.2,9.4-10.2,13.5
		c-0.5,1.1-0.4,4.6-1.5,4.8c-2.9,0.6-6.2-0.6-8.9-0.6c-1.9-0.1-3.8,1.1-6.1,0.6c-2.4-0.5-1.8-2.7-3.5-2.8c-2.2-0.2-6.4,1.9-9.6,2.2
		c-7.1,0.6-17.4-0.3-24.8-0.7c-3.1-0.2-8.7-2.8-11.1-2.8c-1.4,0-2.3,2.8-5.3,2.1c-0.7-0.2-0.8-1.6-1.5-2.1c-1.8-1.3-4.5-1.4-5.9-3.8
		c0-0.6,6.7-4.2,7.7-5.1c3-2.7,6-6.5,9.4-9.3c5.7-4.7,11-5,16.2-9.3c3.1-2.6,5.9-8,8.6-9.9c3.2-2.3,10.3-4.7,12.7-6.5
		c0.4-0.3,3.8-4.2,6.4-7.3c0.9-1.1,1.7-2.1,2.3-2.8c0.4-0.5,0.7-0.8,0.8-1c5.1-7.4-0.3-6.2-4-9c-1.7-1.3-2.8-4-5.8-4.6
		c-3.3-0.6-5.4,4.3-9.7,1.8c-1.1-3.3-1.8-8.3-3.4-11.4c-3.9-7.5-16.9-7.5-23.8-5l-1.8-6.6c-3.1-1.1-7.1-1.1-10-2.3
		c-1.6-0.7-2.6-2.3-4.2-2.7c-2.6-0.6-4.6,1.2-7.1,0.2c-1.7-1.8,1.8-0.5,1.4-3.5c0-0.3-1.3-0.3-1.6-1.2c-0.7-1.8-0.6-4.8-0.1-7
		c0.1-0.5,0.2-0.9,0.4-1.3c0.2-0.7,0.7-1.1,1.2-1.4c1.3-0.8,3.4-0.5,4.8-1.1c2-0.8,7-4.8,7.5-4.9c1.3-0.3,2.2,1.1,3.3,1.3
		c3.6,0.6,5-4.4,7.5-6.2c1.8,1.3,0.4,1.2,0,2.1c-1.3,3.4-7,9-5.6,12.3c1.6,3.8,6.9,1.2,7.2,1.4c0.2,0.1,0.7,3,2.4,4.1
		c1,0.7,2.3,0.5,3.1,1c4.7,2.9,4.9,5.3,10.4,0c1.9-1.8,5-6.7,6.8-9c0.9-1.3,5.3-8.5,6-8.5c0.7,0,1,1.4,0.9,2.2
		c-0.1,0.4-1.8,6.4-1.9,6.8c-0.4,1-2.2,0.9-2.6,2.4c-0.4,1.2-1,8.2-0.5,9.2c1.3,2.2,6,1.9,7.1,2.9c1.7,1.7,0.7,6.7,5.7,9.1
		c6.2,2.9,10.8-2.7,12.5-2.3c1.5,0.4,3.8,4.5,8,2.7c-0.5,6.1,8,9,7.6,0.7l4.8,1.4c0.5-2.3-2.2-0.9-3.1-2.7c-1.7-3.5,0.5-3.7,1.3-4.9
		c2.3-3.6,2.7-3.6,4.9-6.1c0.4-0.5,3.1-7.2,3.1-8c0.1-2.2-3.5-4-5.2-4.1c-0.4,0-1,0.9-1.7,0.8c-2.5-0.3-4.7-1.6-5.8-3.8l-0.7,1.4
		c-1.9,0.6-1.6-1.3-2.2-1.4c-1.1-0.2-2.1,0-3.2,0.2c-2.6,0.5-1.8,1.3-1.6,2.3c0.1,0.4,0.1,0.9-0.2,1.3l-4.3,2.1l-0.2,4.4
		c-4.5,0.8-4.2,5-8,5.5c-0.6-0.7,5.5-14.4,4.7-17.4c-1.3-4.7-7.4-0.8-8.5-2.5c-0.6-0.9-0.2-3-0.4-4.3c-0.2-0.8-1-1.6-1.1-2.4
		c-0.2-1,0.6-1.8,0.6-2.5c0-0.3-3.6-3.4-4.6-3.7c-5.5-1.4-2.6,1.6-4.6,3.3c-1.5,0.4-2.7,1.6-3.9,2.6c-1.4,1.2-2.8,2.1-4.8,1.4
		c-0.2-0.6,0-1.1,0.2-1.5c0.4-0.8,1-1.4,1-2.1c0-2.8-3-3.5-3.2-4.3c-0.3-1.3,1.5-4.9-0.1-7.4c-0.3-0.4-0.7-0.8-1.2-1.2
		c-2.7-1.9-4.5-0.5-6.7-0.6c-1.3-0.1-2-1-2.7-1.1c-5.7-0.6-15.6-1.2-21,0.7c-2.4,0.8-3.7,4.2-6.5,4.5c-1.5-1.1-0.6-1-0.5-1.8
		c0.3-1.4,1-2.1,0.8-4.1c0,0,0-0.1-0.1-0.2c0-0.1,0-0.2-0.1-0.3c0-0.1,0-0.1-0.1-0.2c0-0.1-0.1-0.2-0.1-0.3c0,0,0-0.1,0-0.1
		c-0.1-0.3-0.2-0.6-0.3-1c0,0,0,0,0-0.1c-0.1-0.2-0.1-0.5-0.2-0.8s-0.2-0.5-0.2-0.8c-0.1-0.2-0.2-0.5-0.2-0.7
		c-0.1-0.2-0.1-0.3-0.2-0.5c0-0.1,0-0.1-0.1-0.2c-0.1-0.4-0.2-0.7-0.3-0.7c-0.7-1.4-4.2-2.5-5.5-4.2c0,0-0.1-0.1-0.1-0.1
		c-0.2-0.3-0.5-0.8-0.9-1.5c-0.1-0.2-0.3-0.5-0.4-0.8c-0.2-0.3-0.4-0.7-0.6-1c-0.1-0.3-0.3-0.5-0.4-0.8c-0.1-0.1-0.1-0.3-0.2-0.4v0
		c-1.3-2.5-2.7-5.2-2.9-5.8c-0.6-2-0.9-8,0.9-9.2c2.7-1.8,12.2,3.4,18.3-2.3c1.9-1.8,2.3-4.6,3.5-6.2c0.8-1.1,4.2-2.6,4.4-3.3
		c0.5-1.8-0.3-5.3,0-7.5c0.2-1.8,1.8-3.1,1.4-5.1c3.7-0.9,3.2,2.4,4.8,3.7c5,3.9,6.3-3.5,7.2-3.7l4.1,2.1l2.3-1.9
		c-1.4-5.8-3.1-11.7-4-17.6h0c-0.5-3.5-0.8-7-0.7-10.5c-2.1-1.8-1.2-5.4-1.7-7.9c-0.5-2.7-4.8-4.5-3.9-7.8c0.1-0.5,1.1-0.5,1.2-0.6
		c0.5-1.1-1.3-2.7-1.2-4c-1.2-0.9-4,3.4-4.8,1c-0.7-1.9,3.2-1,3.3-1.1c0.7-1.8,1.1-3.8,0.8-5.7c-0.7-3.7-3.2-7.2-3.8-10
		c-0.6-2.9-0.7-7.5-1.7-10.6c-0.3-0.9-1.8-0.9-2-1.6c-0.5-1.8,0.4-4.7,0-6.6c-0.1-0.6-1.4-0.2-1.4-1.5c-0.2-3.2,1.6-8,1.4-11.5
		c0-0.1,0-0.1,0-0.2c-0.2-3.1-3-5.8-3.2-7c-0.1-0.7,0.5-1.6,0.4-2.5c-0.2-1.3-1.6-2.5-1.8-3.7c-0.5-3.8,5.7-16.9,6.6-22
		c0.5-2.8-0.2-5.5,0.6-8.4c0.2-0.6,3.3-4.9,3.7-5.2C41,73.1,49,73,53.6,70.6c2.2,0.5-0.4,7.3-0.3,9.2c0,1,1,3.9,1.6,4.7
		c0.7,1.1,7.3,7.5,8.4,8.1c3.5,1.8,7.9,2.3,11.9,4.6c2.9,1.6,8,6.5,10.2,7c2.3,0.5,6.4-0.6,9.2-0.2c4.6,0.7,8,3.4,12.7,3.8
		c4.1,0.3,14.2-0.3,18.5-0.8c11.5-1.2,24.1-12.2,34.3-17.2c5.1-2.5,11-4.3,16.3-6.4c2.7-5.9-5.7-7.6-10-8.6
		c-1.6-0.4-3.5,0.2-5.3-0.2c-2.4-0.6-7-3.7-9.3-4.5c-9.6-3-15.6-5.2-24.9-8.8c-3.5-1.3-6.9-2.4-10.4-3.1
		c-13.2-2.8-26.1-1.2-39.1,4.5c-3.2,1.4-7,5.6-11.3,5.1c-5.9-0.7-5.7-2.6-13.4-0.9c-4.3,0.9-8.4,1.6-12.7,2.5
		c-2.3,0.5-5.6,2.5-7.7,3.7l-1.6-0.6c-1.8-2.3,0.8-11.4,2.6-13.2c0.7-0.7,2.4-1,3.5-2C46.9,47.1,56.7,33,68.1,24.5
		c3.6-2.7,16.6-6.8,18.2-10c1.5-2.9-3.7,0.8-4,0.9c-1.5,0.5-3.5,0.4-5.1,1.1c-2.1,0.9-10.1,6.6-11.5,5.3c-0.3-1.4,0.3-1.8,1-2.8
		c2.1-2.8,12.3-6.7,16-8.8c2.5-1.4,3.4-3.6,6.9-4.1C90.5,5.9,97,6.2,95.3,8c-2.1,0.9-8.5,3.5-7.2,6.2c3.6-1.8,7.6-5.8,11.2-7.4
		c0.2-0.1,0.5-0.2,0.7-0.3c0.2-0.1,0.5-0.2,0.7-0.3c0.2-0.1,0.5-0.2,0.7-0.2c0.4-0.1,0.8-0.3,1.3-0.4c0.2-0.1,0.4-0.1,0.6-0.2
		c0.3-0.1,0.7-0.2,1-0.2c0.6-0.1,1.3-0.2,1.9-0.3c0.4,0,0.8-0.1,1.2-0.1l0.4,0c0.5,0,1-0.1,1.5-0.1c0.4,0,0.9,0,1.4,0
		c0.1,0,0.1,0,0.2,0c1.9,0,3.8,0,5.8,0.2c7.8,0.5,15.9,1.7,22.4,0.4C150,5.8,162,4.4,172.6,7.3l1.3-1.4c1.8-0.2,3.7,1.9,5,2
		c0.8,0.1,1.8-1.2,3.3-1.3c2.3-0.2,5,1.5,7.6,1.5c2.2,0,3.4-1.2,5.5-1.5c0.5-0.1,1-0.1,1.5-0.2l4.1,4.8c-0.5-0.2-1.2-0.4-1.8-0.4
		c-0.5,0.5,2.2,4.7,2.7,5c0.9,0.8,2,0.4,2.1,0.5c0.3,0.3-0.6,2.1-0.5,3c0.1,0.7,1.2,1.4,1.2,2.9c0.1,2.2-1.5,5.3-0.8,7.9l2-1.4
		c0,4.3,0.5,8.5,0.7,12.7c0.2,3.4-1.6,5.6,1.3,8.3l-2.7,2.1c-0.4,1.4,1.4,2.4,1.3,3.3c-0.1,0.7-1.8,1.3-2,2.9
		c-0.5,3,2,10.7,2.1,14.4c0,2.4-0.6,4-0.8,6.2c0,0.5,0.1,1.1,0.2,1.7c0.2,1,0.5,1.9,0.4,2.3c-0.3,1.2-3.5,1.4-2.6,3.8l2.8,1
		l-1.4,0.8l4.9,19.8c-2.2,12.8-2.7,24.6-7.4,36.7c-3,7.8,3.3,6.3,4.8,10.6c0.3,0.9,1.2,4.7,0.8,5.4l-4.1,2l-0.4,1.4l2.4,1.4
		c0.4,0.8-2.1,1.9,0.6,3.4l1-2c-0.2,1.4,2,2,2.1,2.5c0.1,0.5-0.6,3.5-0.7,3.7c-0.6,0.4-2.4-1.2-3.1,0l-0.4,3.1l2.1,0.4l-0.7,4.1
		c6.3-1.3,2.9,3.9,4.1,7.6C211.2,188.4,208.7,186.6,207.7,188.9z M58.4,81.7L58.4,81.7L58.4,81.7C58.4,81.7,58.4,81.7,58.4,81.7
		c0-0.3,0.1-0.4,0.1-0.6c0-0.2,0.1-0.3,0.1-0.5c0.1-0.2,0.1-0.5,0.2-0.7c0-0.1,0.1-0.2,0.1-0.3c0.3-1.2,0.8-2.5,1.2-3.7
		c0-0.1,0.1-0.3,0.2-0.4c0-0.1,0.1-0.1,0.1-0.2c0-0.1,0.1-0.1,0.1-0.2c0.1-0.1,0.1-0.3,0.2-0.4c0,0,0,0,0,0c0.1-0.3,0.2-0.5,0.3-0.7
		c0-0.1,0.1-0.2,0.2-0.3c0.1-0.3,0.2-0.5,0.3-0.7c0.1-0.1,0.1-0.3,0.2-0.4c0-0.1,0.1-0.1,0.1-0.2c0.1-0.1,0.1-0.2,0.2-0.3
		c0,0,0-0.1,0.1-0.1c0,0,0,0,0.1,0c2.9-0.7,8.6,4,10.2,6.3c0.7,1,0.8,4,2.1,3.4c1.4-0.7,1.2-3,0.9-4.3c0-0.1-0.1-0.3-0.1-0.4
		c0-0.1-0.1-0.2-0.2-0.4c-0.1-0.2-0.2-0.3-0.3-0.4c-0.1-0.1-0.1-0.2-0.2-0.3c-0.1-0.1-0.2-0.2-0.3-0.3c-0.4-0.4-0.8-0.7-1.2-1.1
		c-0.1-0.1-0.2-0.2-0.3-0.3c-0.1-0.1-0.2-0.2-0.2-0.3c-0.1-0.1-0.1-0.2-0.2-0.3c0-0.1-0.1-0.2-0.2-0.3v0c0-0.1-0.1-0.2-0.1-0.3
		c0-0.1,0.1-0.2,0.2-0.3c0,0,0.1-0.1,0.1-0.1c0.1-0.1,0.1-0.1,0.2-0.2c0.1-0.1,0.2-0.1,0.3-0.2c0,0,0,0,0,0c0.1,0,0.1-0.1,0.2-0.1
		c0.1-0.1,0.2-0.1,0.2-0.2h0c0.2-0.1,0.3-0.2,0.5-0.3c0.1-0.1,0.2-0.1,0.3-0.2c0.2-0.1,0.3-0.2,0.5-0.3c0.1-0.1,0.2-0.1,0.4-0.2
		c0.2-0.1,0.5-0.2,0.7-0.3c0.2-0.1,0.3-0.1,0.5-0.2c0.2-0.1,0.3-0.2,0.5-0.2c0.1-0.1,0.3-0.1,0.4-0.2c0.4-0.1,0.7-0.3,1-0.4
		c0.1,0,0.1,0,0.2-0.1c0.4-0.1,0.7-0.2,0.9-0.2c0.1,0,0.2,0,0.2,0c0.1,0,0.1,0,0.2,0c0.1,0,0.1,0,0.2,0c0.1,0,0.2,0.1,0.4,0.1
		c0.1,0,0.2,0.1,0.4,0.2h0c0.1,0.1,0.2,0.2,0.3,0.3c0.1,0.1,0.2,0.2,0.3,0.3c0,0.1,0.1,0.1,0.2,0.2c0.1,0.2,0.2,0.5,0.3,0.7
		c0,0.1,0.1,0.2,0.1,0.3c0,0.2,0.1,0.3,0.1,0.5c0,0.2,0.1,0.3,0.1,0.5c0,0.1,0,0.2,0.1,0.4c0,0.2,0.1,0.3,0.1,0.5
		c0,0.1,0.1,0.3,0.1,0.4c0,0.1,0,0.2,0.1,0.2c0,0.1,0.1,0.2,0.1,0.3c0,0.1,0.1,0.2,0.1,0.3c1.5,3,6.8,10.5,5,13.7
		c-0.6,1-5.8,3-6.2,5c-0.5,1.9,3.9,1.7,5.2,1c0,0,0.1,0,0.1-0.1c0.1,0,0.1-0.1,0.1-0.1c0.1-0.1,0.2-0.2,0.3-0.3
		c0.1-0.1,0.1-0.1,0.2-0.2c0.1-0.1,0.2-0.2,0.2-0.3c0-0.1,0.1-0.2,0.1-0.2c0,0,0-0.1,0.1-0.1v0c0-0.1,0.1-0.2,0.1-0.2
		c0.1-0.1,0.1-0.3,0.2-0.4c0,0,0,0,0,0c0-0.1,0.1-0.2,0.1-0.3c0-0.1,0.1-0.2,0.1-0.3c0-0.1,0.1-0.2,0.1-0.3c0-0.1,0-0.1,0.1-0.2
		c0.1-0.3,0.2-0.6,0.3-0.8c0-0.1,0-0.1,0.1-0.2c0-0.1,0.1-0.1,0.1-0.2c0,0,0-0.1,0.1-0.2c0.1-0.2,0.2-0.3,0.3-0.5c0,0,0-0.1,0.1-0.1
		c0,0,0,0,0-0.1c0.2-0.2,0.4-0.5,0.7-0.6c0.1,0,0.1-0.1,0.2-0.1c0.1,0,0.1-0.1,0.2-0.1c0,0,0.1,0,0.1,0c0,0,0.1,0,0.1,0
		c0.3-0.1,0.6-0.1,0.9,0c1.5,0.1,3.9,3.5,5.9,4.4c9.4,4.2,22.3-0.1,31.9,3.9c2.8-1.5,6-0.5,8.6-2.5c0,0,0.1-0.1,0.1-0.1
		c0.1-0.1,0.3-0.3,0.5-0.6c0.1-0.1,0.1-0.2,0.2-0.3c0.1-0.2,0.3-0.4,0.5-0.6c0.2-0.3,0.5-0.7,0.8-1.1c0.3-0.4,0.5-0.8,0.8-1.2
		c0.3-0.5,0.7-1.1,1-1.6l0.3-0.5c0.6-1,1.1-1.9,1.5-2.7c0.1-0.1,0.1-0.2,0.2-0.4c0.2-0.4,0.4-0.8,0.5-1.1c0.1-0.1,0.1-0.2,0.1-0.4
		c0.1-0.2,0.1-0.3,0.1-0.4c0.2-1,0.2-1.9,0.2-2.6c0-0.1,0-0.2,0-0.3c0-0.2,0-0.5-0.1-0.7c0-0.1,0-0.2-0.1-0.3
		c-0.1-0.5-0.2-1-0.4-1.5c-0.1-0.2-0.2-0.5-0.3-0.7c0,0,0,0,0,0c0-0.1-0.1-0.2-0.1-0.2c0,0,0,0,0-0.1c0,0,0-0.1-0.1-0.1
		c-0.1-0.1-0.1-0.2-0.2-0.4c-0.2-0.3-0.3-0.5-0.5-0.8c-0.3-0.4-0.6-0.9-1-1.4l11.2,2.2l12.9,4.6l-11.3,4.9
		c-8.7,5-20.1,14.6-30.4,15.7c-5.9,0.7-9.1-0.7-16.5,0.7c-3.1,0.6-14.4-3.3-18.5-4c-10-1.7-6.9-2.1-14.6-6.1
		c-5.8-3-12.3-2.8-16.4-9.1c0,0,0-0.1,0-0.2c0,0,0,0,0,0c0,0,0-0.1,0-0.1c0-0.1,0-0.3,0-0.5c0-0.1,0-0.1,0-0.2
		C58.4,81.9,58.4,81.8,58.4,81.7C58.4,81.8,58.4,81.8,58.4,81.7C58.4,81.7,58.4,81.7,58.4,81.7z M131.9,74.9
		c-0.1,0.1-0.1,0.2-0.2,0.3c0,0.1-0.1,0.2-0.1,0.4c-0.1,0.1-0.1,0.3-0.1,0.5c0,0.1-0.1,0.2-0.1,0.2c0,0.2-0.1,0.3-0.2,0.5
		c-0.1,0.3-0.2,0.6-0.4,0.9c-0.1,0.2-0.2,0.4-0.3,0.5c-0.1,0.2-0.3,0.4-0.5,0.6c-0.8,0.8-11.4,9-12.1,9.2c-2,0.7-8.4,1.2-9.6-1
		l13.6-4.3c0.9-3.2,3-1.7,3.5-2c0.1,0,0.2-0.1,0.2-0.2c0.1-0.1,0.1-0.1,0.2-0.2c0.1-0.1,0.2-0.2,0.3-0.3c0.1-0.1,0.1-0.2,0.2-0.3
		c0.1-0.1,0.1-0.2,0.2-0.3c0.1-0.2,0.2-0.3,0.2-0.5c0-0.1,0.1-0.2,0.1-0.2c0-0.1,0.1-0.2,0.1-0.4c0.1-0.2,0.1-0.4,0.2-0.7
		c0-0.2,0.1-0.5,0.1-0.7c0-0.1,0-0.3,0.1-0.4c0-0.2,0-0.4,0-0.5c0-0.2,0-0.5,0-0.7c0-1.4-0.3-2.7-0.9-3.3c-0.4-0.4-1.8-0.8-2.5-1.4
		c-1.2-1-5.6-4.6-7-4.8c-2.4-0.3-4.6,0.9-6.9,0.8c-3.3-0.1-5.3-2.2-9.6-1.4c-0.5,0.1-5.9,2.5-6.8,2.9c-2.7,1.3-6.2,6-8.1-0.4
		c0.1-0.6,7.8-3.8,9-4.2c10.1-2.8,29.3,0.8,38.3,6.4c1.6,1,3.2,2.4,1.4,4.1C133.7,74.4,132.3,74.3,131.9,74.9z M133.1,84.3
		c0,4.6-3,7.1-7.6,6.2c1.3-1.4,3.2-2.1,4.6-3.7C131.3,85.5,130.2,83.7,133.1,84.3z"/>
	<path style="fill:#76C372;" d="M37.2,200.5c0,0.1,0,0.2,0,0.2c0,0.1,0,0.1,0,0.2c0,0.1,0,0.2-0.1,0.2c0,0-0.1,0.1-0.2,0.1
		c-0.3,0.1-0.7,0-1.5-0.4c-0.1,0-0.2-0.1-0.2-0.2l-0.1-0.1c0,0,0-0.1-0.1-0.1c-0.1-0.1-0.1-0.2-0.2-0.2c0-0.1-0.1-0.1-0.1-0.2
		c0-0.1-0.1-0.1-0.1-0.2c0-0.1-0.1-0.2-0.1-0.2h0c0,0,0-0.1-0.1-0.1c0-0.1-0.1-0.2-0.2-0.3c0,0,0,0,0-0.1h0c0-0.1-0.1-0.2-0.2-0.2
		c0-0.1-0.1-0.2-0.1-0.2h0c0-0.1-0.1-0.2-0.2-0.3c0-0.1-0.1-0.2-0.2-0.3h0c0-0.1-0.1-0.2-0.2-0.3c-0.1-0.1-0.1-0.2-0.2-0.3
		c-0.1-0.1-0.1-0.2-0.2-0.3c0,0-0.1-0.1-0.1-0.1c0,0,0-0.1-0.1-0.1c0,0,0,0,0,0c-0.1-0.1-0.1-0.2-0.2-0.2h0
		c-0.1-0.1-0.1-0.2-0.2-0.2c-0.1-0.2-0.3-0.3-0.4-0.5c-0.1-0.1-0.2-0.2-0.3-0.3c-0.1-0.1-0.2-0.2-0.4-0.3c-0.2-0.1-0.3-0.2-0.5-0.3
		c-0.1-0.1-0.3-0.1-0.4-0.2c-0.1,0-0.2-0.1-0.3-0.1c-0.1,0-0.2,0-0.3-0.1c-0.1,0-0.1,0-0.2,0c0,0-0.1,0-0.1,0c-0.1,0-0.2,0-0.3,0
		c-0.1,0-0.1,0-0.2,0h0c-0.1,0-0.1,0-0.2,0c0,0,0,0,0,0c-0.2,0-0.4,0.1-0.6,0.2c-0.1,0-0.3,0.1-0.4,0.1c-0.3,0.1-0.5,0.3-0.8,0.4
		c-1.8,2.6,1.6,4.3,1.7,5.8c0.1,2-2.2,9.8,0.5,10.6l2.3,0.1c0-0.4,0-0.9,0-1.3c0-0.3,0-0.7,0.1-1c0-0.3,0.1-0.5,0.1-0.8
		c0-0.2,0.1-0.4,0.1-0.5c0-0.1,0-0.2,0-0.2c0-0.2,0.1-0.4,0.2-0.6c0-0.1,0.1-0.2,0.1-0.3c0.1-0.2,0.2-0.5,0.3-0.7
		c0-0.1,0.1-0.1,0.1-0.2c0.2-0.3,0.4-0.7,0.6-1c0-0.1,0.1-0.1,0.2-0.2c0.1-0.1,0.2-0.2,0.3-0.3v0h0c0.1-0.1,0.2-0.2,0.4-0.4
		c0.1,0.1,0.1,0.1,0.2,0.2c0,0,0,0,0,0l0.2,0.2c0.1,0.1,0.2,0.3,0.3,0.4c0.1,0.1,0.2,0.2,0.3,0.4c0,0,0,0,0,0.1c0,0,0.1,0.1,0.1,0.2
		c0,0.1,0.1,0.1,0.1,0.2c0,0,0,0,0,0.1c0.1,0.1,0.2,0.3,0.3,0.4c0.1,0.2,0.3,0.5,0.4,0.7c0.1,0.1,0.1,0.2,0.2,0.4
		c0.1,0.1,0.1,0.2,0.2,0.4c0.1,0.2,0.2,0.5,0.3,0.7c0,0.1,0.1,0.2,0.1,0.3c0,0.1,0.1,0.3,0.1,0.5c0,0.1,0.1,0.2,0.1,0.4
		c0,0.1,0,0.1,0,0.2c0,0,0,0.1,0,0.1c0,0.3,0.1,0.6,0.1,0.9c0,0.1,0,0.2,0,0.3c0,0.4,0,0.7,0,1.1c0,0.1,0,0.1,0,0.2c0,0,0,0,0,0
		c0,0,0,0,0,0s0,0,0,0c0,0.2,0,0.4-0.1,0.5c0,0,0,0.1,0,0.1c0,0.1,0,0.1,0,0.2c0,0,0,0.1,0,0.1c0,0.2-0.1,0.4-0.1,0.6c0,0,0,0,0,0
		c0,0.1,0,0.2-0.1,0.2c-0.1,0.3-0.2,0.6-0.2,0.9c-0.5,0.1-0.9,0-1.2-0.2c-0.1-0.1-0.1-0.1-0.2-0.2c0,0,0,0,0,0
		c-0.1-0.1-0.2-0.2-0.3-0.3c-0.1-0.1-0.2-0.3-0.4-0.4c0,0-0.1-0.1-0.1-0.1c-0.1-0.1-0.1-0.1-0.2-0.2c0,0,0,0,0,0c0,0,0,0-0.1,0
		c-0.1-0.1-0.2-0.1-0.3-0.2c-0.1,0-0.1,0-0.2-0.1c-0.2,0-0.4,0-0.5,0c-0.1,0-0.2,0-0.3,0c-0.1,0-0.2,0-0.2,0c-0.1,0-0.2,0-0.3,0.1
		c-0.1,0-0.2,0.1-0.3,0.1c0,0,0,0,0,0c-0.1,0.1-0.2,0.1-0.3,0.2c0,0.1-0.1,0.1-0.1,0.2c-0.1,0.1-0.2,0.3-0.2,0.4
		c0,0.1-0.1,0.2-0.1,0.2c0,0.1-0.1,0.2-0.1,0.2c0,0.1-0.1,0.2-0.1,0.4c0,0,0,0,0,0c0,0.1,0,0.3-0.1,0.4c0,0.1,0,0.3,0,0.4v0.1
		c0,0.1,0,0.2,0,0.4c0,0.3-0.1,0.6-0.1,0.9c0,0.2-0.1,0.3-0.1,0.4c0,0.1-0.1,0.3-0.1,0.4c0,0.1-0.1,0.3-0.1,0.4l-0.7,0.1
		c-0.1,0-0.1,0-0.2-0.1c-0.1,0-0.2-0.1-0.4-0.1c-0.1-0.1-0.3-0.1-0.4-0.2c-0.1,0-0.2-0.1-0.2-0.1c-0.4-0.3-0.9-0.6-1.4-1
		c-0.2-0.1-0.3-0.3-0.5-0.4c-0.6-0.5-1.2-1-1.8-1.5c-0.1-0.1-0.2-0.2-0.2-0.2c-0.6-0.5-1.2-0.9-1.4-1c-3.5-1-11.9,0.4-14.7,2.9
		l13-81.8c-0.9,10.2,1.2,20,4.5,29.2c0.8,2.4,1.7,4.6,2.8,6.9l1.7,0c0.6,1.8-1.9,1.7-2.1,2.5c-0.3,1.7,2,8.9,2.9,10.8
		c2.8,5.6,4.1,5.3,5.4,12.4c0,0.1,0.2,0.6,0.4,1.1c0,0.1,0.1,0.2,0.1,0.2c0.2,0.4,0.3,0.8,0.4,1.2c0,0.1,0,0.2,0,0.2
		c0,0.1,0,0.1,0,0.2v0C37.2,200.5,37.2,200.5,37.2,200.5z"/>
	<path style="fill:#F3D65B;" d="M21,135.6l-13,81.8c-2.4,2.2-2.2,5.4-3.8,7.9c-0.1,0-0.2-0.1-0.3-0.2c0,0,0,0,0-0.1c0,0,0,0,0-0.1
		c0,0,0-0.1-0.1-0.1c0,0,0,0,0,0c0,0-0.1-0.1-0.1-0.2c0-0.1-0.1-0.2-0.1-0.3c0,0,0-0.1,0-0.1c0-0.2-0.1-0.3-0.1-0.5c0,0,0-0.1,0-0.1
		c-0.1-0.4-0.2-0.8-0.3-1.2c0-0.1,0-0.2-0.1-0.3c0-0.1,0-0.2-0.1-0.3c0-0.2-0.1-0.4-0.1-0.6c0-0.2-0.1-0.4-0.1-0.5
		c0-0.1,0-0.2,0-0.3c0-0.1,0-0.2,0-0.2c0-0.1,0-0.2,0-0.2c-0.1-0.5-0.1-1-0.1-1.2c-0.1-1.1-0.2-2.2-0.2-3.2c-0.1-1-0.1-2-0.1-3v0
		c0-0.2,0-0.4,0-0.5c0-0.4,0-0.9,0-1.3c0-0.4,0-0.8,0-1.2c0-0.3,0-0.6,0-0.9v-0.3c0-1.4,0-2.8,0-4.2c0-0.5,0-1,0-1.6
		c0-0.5,0-1,0-1.5c0-0.6,0-1.3,0-1.9c0-1.1,0.1-2.2,0.1-3.4c0-1.1,0.1-2.2,0.1-3.2c0-0.7,0.1-1.3,0.1-2c0-0.8,0.1-1.6,0.1-2.4
		c0.2-3,0.4-6.1,0.6-9.2c0.1-2.2-0.7-5.5-0.5-6.8c0-0.1,0.1-0.3,0.1-0.4c0-0.1,0.1-0.1,0.1-0.2c0-0.1,0.1-0.2,0.1-0.2
		c0-0.1,0.1-0.1,0.1-0.2c0.1-0.1,0.1-0.2,0.2-0.4c0.1-0.1,0.2-0.2,0.2-0.4c0.1-0.2,0.2-0.4,0.3-0.5c0-0.1,0.1-0.2,0.2-0.3
		c0-0.1,0.1-0.1,0.1-0.2c0,0,0-0.1,0-0.1c0,0,0-0.1,0.1-0.2c0-0.1,0-0.1,0.1-0.2c0,0,0,0,0-0.1c0-0.1,0-0.1,0.1-0.2c0,0,0,0,0,0
		c0-0.1,0-0.2,0.1-0.3c0-0.1,0-0.2,0-0.4c0.3-7.1-0.6-13.4,0-21.3c0.2-3.1-0.1-5.4,0-7.8c0.1-2,0.6-4.1,2-6.6
		c1.5-2.6,7.7-10.4,10.8-7C19.2,127.1,19.2,133.1,21,135.6z"/>
	<path style="fill:#76C372;" d="M123.8,368.4c-1.4,3,2.8,2.7,2.4,4.4l-51.6-11c0.9-1.1,1.7-2.1,2.3-2.8c0.4-0.5,0.7-0.8,0.8-1
		c5.1-7.4-0.3-6.2-4-9c-1.7-1.3-2.8-4-5.8-4.6c-3.3-0.6-5.4,4.3-9.7,1.8c-1.1-3.3-1.8-8.3-3.4-11.4c-3.9-7.5-16.9-7.5-23.8-5
		l-1.8-6.6c-3.1-1.1-7.1-1.1-10-2.3c-1.6-0.7-2.6-2.3-4.2-2.7c-2.6-0.6-4.6,1.2-7.1,0.2c-1.7-1.8,1.8-0.5,1.4-3.5
		c0-0.3-1.3-0.3-1.6-1.2c-0.7-1.8-0.6-4.8-0.1-7l0.4-1.3l1.2-1.4c1.3-0.8,3.4-0.5,4.8-1.1c2-0.8,7-4.8,7.5-4.9
		c1.3-0.3,2.2,1.1,3.3,1.3c3.6,0.6,5-4.4,7.5-6.2c1.8,1.3,0.4,1.2,0,2.1c-1.3,3.4-7,9-5.6,12.3c1.6,3.8,6.9,1.2,7.2,1.4
		c0.2,0.1,0.7,3,2.4,4.1c1,0.7,2.3,0.5,3.1,1c4.7,2.9,4.9,5.3,10.4,0c1.9-1.8,5-6.7,6.8-9c0.9-1.3,5.3-8.5,6-8.5
		c0.7,0,1,1.4,0.9,2.2c-0.1,0.4-1.8,6.4-1.9,6.8c-0.4,1-2.2,0.9-2.6,2.4c-0.4,1.2-1,8.2-0.5,9.2c1.3,2.2,6,1.9,7.1,2.9
		c1.7,1.7,0.7,6.7,5.7,9.1c6.2,2.9,10.8-2.7,12.5-2.3c1.5,0.4,3.8,4.5,8,2.7c-0.5,6.1,8,9,7.6,0.7l4.8,1.4c0.5-2.3-2.2-0.9-3.1-2.7
		c-1.7-3.5,0.5-3.7,1.3-4.9l25.6,40.6c-0.4,0.3-1,0.8-1.6,1.2C125.2,367,124,367.8,123.8,368.4z"/>
	<path style="fill:#D287BA;" d="M189.7,250c-0.1,1.2-0.1,2.3-0.4,3.1c-0.6,1.6-3.7,0.4-0.6,4.9c-2.6,0.9-1.6,2.5-2.5,3.8
		c-1.2,1.9-2.6,3-3.8,5.9c-0.4,1,0.1,2.2,0,2.3c-0.3,0.2-1.4,0.1-1.9,0.4c-2.2,1.6-4.3,9.2-5.4,11.8c-1.3,3.1-5.2,5,1.1,7.8l0.1,0.9
		c-0.9,1.3-1.1,3.2-1.8,4.5c-1.8,3.3-4.6,6.9-6.2,9.9c-1.5,2.8-3.8,5.4-2.3,8.7c-3.7-0.8-2.8,1.7-3.6,2.6c-0.3,0.3-1.4-0.1-1.9,0.6
		c-1.3,1.7-0.5,4.8-3.4,8.2c-3.4,4-9.1,9.7-12,14.2c-4,6.3-7.2,13.4-11.6,19.3c-1,1.4-2.2,2.8-3.4,4l-2.2,2.1l-25.6-40.6
		c2.3-3.6,2.7-3.6,4.9-6.1c0.4-0.5,3.1-7.2,3.1-8c0.1-2.2-3.5-4-5.2-4.1c-0.4,0-1,0.9-1.7,0.8c-2.5-0.3-4.7-1.6-5.8-3.8l-0.7,1.4
		c-1.9,0.6-1.6-1.3-2.2-1.4c-1.1-0.2-2.1,0-3.2,0.2c-2.6,0.5-1.8,1.3-1.6,2.3c0.1,0.4,0.1,0.9-0.2,1.3l-4.3,2.1l-0.2,4.4
		c-4.5,0.8-4.2,5-8,5.5c-0.6-0.7,5.5-14.4,4.7-17.4c-1.3-4.7-7.4-0.8-8.5-2.5c-0.6-0.9-0.2-3-0.4-4.3c-0.2-0.8-1-1.6-1.1-2.4
		c-0.2-1,0.6-1.8,0.6-2.5c0-0.3-3.6-3.4-4.6-3.7c-5.5-1.4-2.6,1.6-4.6,3.3c-1.5,0.4-2.7,1.6-3.9,2.6c-1.4,1.2-2.8,2.1-4.8,1.4
		c-0.2-0.6,0-1.1,0.2-1.5c0.4-0.8,1-1.4,1-2.1c0-2.8-3-3.5-3.2-4.3c-0.3-1.3,1.5-4.9-0.1-7.4l72.9-23.9L189.7,250z"/>
	<path style="fill:#F3D65B;" d="M148.8,182.7l-21.4,65.7l-1.9,5.7l-4.8-3.1l-75.6-47.9h0c-0.5-3.5-0.8-7-0.7-10.5
		c-2.1-1.8-1.2-5.4-1.7-7.9c-0.5-2.7-4.8-4.5-3.9-7.8c0.1-0.5,1.1-0.5,1.2-0.6c0.5-1.1-1.3-2.7-1.2-4c-1.2-0.9-4,3.4-4.8,1
		c-0.7-1.9,3.2-1,3.3-1.1c0.7-1.8,1.1-3.8,0.8-5.7c-0.7-3.7-3.2-7.2-3.8-10c-0.6-2.9-0.7-7.5-1.7-10.6c-0.3-0.9-1.8-0.9-2-1.6
		c-0.5-1.8,0.4-4.7,0-6.6c-0.1-0.6-1.4-0.2-1.4-1.5c-0.2-3.2,1.6-8,1.4-11.5l0,0l0.2,0L91.3,190l34.2-35L148.8,182.7z"/>
	<path style="fill:#E15E5A;" d="M125.5,254.1l-72.9,23.9c-0.3-0.4-0.7-0.8-1.2-1.2c-2.7-1.9-4.5-0.5-6.7-0.6c-1.3-0.1-2-1-2.7-1.1
		c-5.7-0.6-15.6-1.2-21,0.7c-2.4,0.8-3.7,4.2-6.5,4.5c-1.5-1.1-0.6-1-0.5-1.8c0.3-1.4,1-2.1,0.8-4.1c0,0,0-0.1-0.1-0.2
		c0-0.1,0-0.2-0.1-0.3c0-0.1,0-0.1-0.1-0.2c0-0.1,0-0.2-0.1-0.3c0,0,0-0.1,0-0.1c-0.1-0.3-0.2-0.6-0.3-1c0,0,0,0,0-0.1
		c-0.1-0.2-0.1-0.5-0.2-0.8s-0.2-0.5-0.2-0.8c-0.1-0.2-0.2-0.5-0.2-0.7c-0.1-0.2-0.1-0.3-0.2-0.5c0-0.1,0-0.1-0.1-0.2
		c-0.1-0.4-0.2-0.7-0.3-0.7c-0.7-1.4-4.2-2.5-5.5-4.2c0,0-0.1-0.1-0.1-0.1c-0.2-0.3-0.5-0.8-0.9-1.5c-0.1-0.2-0.3-0.5-0.4-0.8
		c-0.2-0.3-0.4-0.7-0.6-1c-0.1-0.2-0.3-0.5-0.4-0.8c-0.1-0.1-0.1-0.3-0.2-0.4v0c-1.3-2.5-2.7-5.2-2.9-5.8c-0.6-2-0.9-8,0.9-9.2
		c2.7-1.8,12.2,3.4,18.3-2.3c1.9-1.8,2.3-4.6,3.5-6.2c0.8-1.1,4.2-2.6,4.4-3.3c0.5-1.8-0.3-5.3,0-7.5c0.2-1.8,1.8-3.1,1.4-5.1
		c3.7-0.9,3.2,2.4,4.8,3.7c5,3.9,6.3-3.5,7.2-3.7l4.1,2.1l2.3-1.9c-1.4-5.8-3.1-11.7-4-17.6l75.6,47.9L125.5,254.1z"/>
	<polygon style="fill:#D287BA;" points="154.2,163.2 148.8,182.7 125.5,155 91.3,190 30.8,124.9 135.1,145.6 	"/>
	<path style="fill:#E15E5A;" d="M176.4,83.3l-22.2,79.9l-19.1-17.6L30.8,124.9l-0.2-0.2c0,0.1,0,0.1,0,0.2c0-0.1,0-0.1,0-0.2
		c-0.2-3.1-3-5.8-3.2-7c-0.1-0.7,0.5-1.6,0.4-2.5c-0.2-1.3-1.6-2.5-1.8-3.7c-0.5-3.8,5.7-16.9,6.6-22c0.5-2.8-0.2-5.5,0.6-8.4
		c0.2-0.6,3.3-4.9,3.7-5.2C41,73.1,49,73,53.6,70.6c2.2,0.5-0.4,7.3-0.3,9.2c0,1,1,3.9,1.6,4.7c0.7,1.1,7.3,7.5,8.4,8.1
		c3.5,1.8,7.9,2.3,11.9,4.6c2.9,1.6,8,6.5,10.2,7c2.3,0.5,6.4-0.6,9.2-0.2c4.6,0.7,8,3.4,12.7,3.8c4.1,0.3,14.2-0.3,18.5-0.8
		c11.5-1.2,24.1-12.2,34.3-17.2C165.2,87.2,171.1,85.5,176.4,83.3z"/>
	<path style="fill:#FFFFFF;" d="M30.7,125.4c0-0.1,0-0.3,0-0.6C30.6,125.1,30.6,125.3,30.7,125.4z"/>
	<path style="fill:#D287BA;" d="M206.7,72.3c0,2.4-0.6,4-0.8,6.2c0,0.5,0.1,1.1,0.2,1.7l-29.7,3.1c2.7-5.9-5.7-7.6-10-8.6
		c-1.6-0.4-3.5,0.2-5.3-0.2c-2.4-0.6-7-3.7-9.3-4.5c-9.6-3-15.6-5.2-24.9-8.8c-3.5-1.3-6.9-2.4-10.4-3.1l-10.9-47.7l5.1-5.9
		c1.9,0,3.8,0,5.8,0.2c7.8,0.5,15.9,1.7,22.4,0.4C150,5.8,162,4.4,172.6,7.3l1.3-1.4c1.8-0.2,3.7,1.9,5,2c0.8,0.1,1.8-1.2,3.3-1.3
		c2.3-0.2,5,1.5,7.6,1.5c2.2,0,3.4-1.2,5.5-1.5c0.5-0.1,1-0.1,1.5-0.2l4.1,4.8c-0.5-0.2-1.2-0.4-1.8-0.4c-0.5,0.5,2.2,4.7,2.7,5
		c0.9,0.8,2,0.4,2.1,0.5c0.3,0.3-0.6,2.1-0.5,3c0.1,0.7,1.2,1.4,1.2,2.9c0.1,2.2-1.5,5.3-0.8,7.9l2-1.4c0,4.3,0.5,8.5,0.7,12.7
		c0.2,3.4-1.6,5.6,1.3,8.3l-2.7,2.1c-0.4,1.4,1.4,2.4,1.3,3.3c-0.1,0.7-1.8,1.3-2,2.9C204.1,60.9,206.6,68.6,206.7,72.3z"/>
	<path style="fill:#76C372;" d="M84,0c-5.3,5.3-11.8,8.8-16.4,10.7c-3.5,2.7-6.6,5.9-10.1,8.7c-0.6,0.5-0.9,1.7-1.5,2
		c-2,1.3-4.5-0.7-6.4-0.2c-2.5,0.7-8.4,9.2-10.5,11.6c-2.9,3.4-7.6,6.6-8.9,11.1c-0.6,2.1,0.4,3.2,0.1,4.8c0,0.1,0,0.2-0.1,0.3
		c0,0.1,0,0.1,0,0.2c0,0,0,0.1,0,0.1l0,0l0,0c0,0.1,0,0.1,0,0.2c-0.1,0.3-0.1,0.6-0.2,0.9c0,0.2-0.1,0.4-0.1,0.5
		c-0.2,0.6-0.4,1.2-0.6,1.8c-0.1,0.3-0.3,0.7-0.4,1c-0.3,0.7-0.6,1.3-0.9,2v0c0,0,0,0,0,0c-0.1,0.3-0.3,0.7-0.4,1
		c-0.1,0.2-0.1,0.3-0.2,0.5c-0.1,0.2-0.2,0.5-0.3,0.7c-0.1,0.1-0.1,0.3-0.2,0.4c-0.1,0.3-0.2,0.5-0.3,0.8c-0.1,0.3-0.2,0.5-0.3,0.8
		c-0.1,0.4-0.2,0.8-0.4,1.2c-0.1,0.2-0.1,0.4-0.2,0.6c0,0.2-0.1,0.4-0.1,0.6c-0.1,0.2-0.1,0.4-0.1,0.6c0,0.2-0.1,0.4-0.1,0.6
		c0,0.1,0,0.1,0,0.2c0,0.1,0,0.2,0,0.3c0,0.1,0,0.1,0,0.2c0,0.1,0,0.2,0,0.2c0,0,0,0.1,0,0.1c0,0.1,0,0.2,0,0.3c0,0.2,0,0.3,0,0.5
		c0,0.3-0.1,0.6-0.1,0.9c-0.1,1.4,0,2.7,0.2,3.9c0,0,0,0,0,0c0.1,0.4,0.1,0.8,0.2,1.3c0.1,0.4,0.2,0.7,0.2,1c0,0.2,0.1,0.3,0.1,0.5
		c0.2,0.8,0.4,1.7,0.5,2.5c0,0.2,0,0.4,0.1,0.5c0,0.1,0,0.2,0,0.2c0,0.2,0,0.3,0,0.4c0,0.1,0,0.1,0,0.2c0,0.1,0,0.3,0,0.4
		c0,0.2,0,0.3,0,0.5c0,0.3,0,0.5-0.1,0.8c0,0.1,0,0.2-0.1,0.4c-0.2,0.9-0.5,1.7-0.8,2.5c-0.1,0.2-0.1,0.3-0.2,0.4
		c-0.2,0.5-0.5,1.1-0.8,1.6c-0.1,0.2-0.2,0.3-0.2,0.5c-0.1,0.2-0.2,0.5-0.3,0.7c-0.1,0.2-0.2,0.5-0.3,0.7c-0.1,0.2-0.2,0.5-0.3,0.8
		c-0.1,0.3-0.2,0.6-0.2,0.9c-0.1,0.2-0.1,0.5-0.2,0.7c0,0.2-0.1,0.4-0.1,0.6c0,0.2,0,0.4,0,0.6c0,0.1,0,0.2,0,0.3c0,0.3,0,0.6,0,0.9
		c0,0.1,0,0.1,0,0.2c0,0.3,0.1,0.5,0.1,0.8c0,0.3,0.1,0.6,0.2,0.8s0.2,0.5,0.4,0.7c0.1,0.2,0.2,0.5,0.3,0.7c0,0,0,0,0,0
		c0,0,0,0.1,0.1,0.1c0.1,0.2,0.1,0.4,0.2,0.6c1,5-3.2,8.2-3.3,12.2c-0.1,3.6,2.2,11.4,4.2,14.5c-0.9,9.4-2.7,1.1-6.7-0.9
		c-6.1-3-9.6,0.9-13.2,5c-0.1,0.1-0.2,0.2-0.2,0.3c0,0,0,0,0,0c0,0,0,0,0,0.1c-0.2,0.2-0.3,0.5-0.4,0.7c0,0.1-0.1,0.2-0.2,0.3
		c-0.2,0.4-0.5,0.9-0.7,1.3c-0.1,0.2-0.2,0.3-0.4,0.5c-0.3,0.4-0.7,0.6-1.2,0.6c-0.7,0.7-1.3,1.5-2,2.2V0H84z"/>
	<path style="fill:#76C372;" d="M23.1,90.8c0-0.3-0.1-0.5-0.1-0.8h0C23,90.3,23.1,90.6,23.1,90.8z"/>
	<path style="fill:#76C372;" d="M24.1,93.2c0,0,0-0.1-0.1-0.1c0,0,0,0,0,0c0,0,0,0,0,0C24.1,93.1,24.1,93.2,24.1,93.2z"/>
	<path style="fill:#76C372;" d="M25.3,70c-0.2-1.2-0.3-2.4-0.2-3.9c0-0.3,0-0.6,0.1-0.9c0,0.3,0,0.6-0.1,0.9
		C25,67.5,25.1,68.8,25.3,70z"/>
	<path style="fill:#76C372;" d="M25.3,64.4c0,0.3-0.1,0.6-0.1,0.8c0-0.2,0-0.3,0-0.5c0-0.1,0-0.2,0-0.3
		C25.3,64.5,25.3,64.4,25.3,64.4z"/>
	<path style="fill:#76C372;" d="M25.6,62.9c-0.1,0.3-0.1,0.6-0.2,0.9c0,0.1,0,0.1,0,0.2c0-0.1,0-0.2,0-0.3c0-0.1,0-0.1,0-0.2
		C25.5,63.3,25.5,63.1,25.6,62.9z"/>
	<path style="fill:#76C372;" d="M26,61.1c-0.1,0.4-0.2,0.8-0.3,1.2c0-0.2,0.1-0.4,0.1-0.6C25.9,61.5,26,61.3,26,61.1z"/>
	<path style="fill:#FFFFFF;" d="M33.9,204.9c0,0-0.1-0.1-0.2-0.2l0,0C33.8,204.8,33.8,204.8,33.9,204.9z"/>
	<path style="fill:#FFFFFF;" d="M34.9,206.1c0,0-0.1-0.1-0.1-0.2c0,0,0,0,0-0.1c0,0,0,0,0,0.1C34.8,206,34.8,206.1,34.9,206.1z"/>
	<path style="fill:#FFFFFF;" d="M35.3,206.8c-0.1-0.1-0.2-0.3-0.3-0.4c0,0,0-0.1,0-0.1c0,0,0,0,0.1,0.1
		C35.2,206.5,35.2,206.7,35.3,206.8z"/>
	<path style="fill:#FFFFFF;" d="M58.4,81.7C58.4,81.8,58.4,81.8,58.4,81.7c0,0.1,0,0.1,0,0.2C58.4,81.8,58.4,81.8,58.4,81.7
		C58.4,81.8,58.4,81.8,58.4,81.7L58.4,81.7z"/>
	<path style="fill:#FFFFFF;" d="M2.4,237.5c-0.1-0.1-0.2-0.2-0.3-0.3l0.1,0.1C2.2,237.3,2.3,237.4,2.4,237.5z"/>
	<path style="fill:#FFFFFF;" d="M12.7,239.6c-0.1,0-0.3,0-0.4,0.1c-0.1,0-0.2,0-0.2,0C12.3,239.7,12.5,239.6,12.7,239.6z"/>
	<path style="fill:#FFFFFF;" d="M22.9,229.7c0,0.1,0,0.1-0.1,0.2C22.9,229.8,22.9,229.7,22.9,229.7c0.1-0.5,0.2-1,0.2-1.5
		c0-0.4,0-0.8,0-1.2c0,0.2,0,0.4,0,0.6C23.1,228.3,23.1,229,22.9,229.7z"/>
	<path style="fill:#F3D65B;" d="M116.5,58.2c-13.2-2.8-26.1-1.2-39.1,4.5c-3.2,1.4-7,5.6-11.3,5.1c-5.9-0.7-5.7-2.6-13.4-0.9
		c-4.3,0.9-8.4,1.6-12.7,2.5c-2.3,0.5-5.6,2.5-7.7,3.7l-1.6-0.6c-1.8-2.3,0.8-11.4,2.6-13.2c0.7-0.7,2.4-1,3.5-2
		C46.9,47.1,56.7,33,68.1,24.5c3.6-2.7,16.6-6.8,18.2-10c1.5-2.9-3.7,0.8-4,0.9c-1.5,0.5-3.5,0.4-5.1,1.1
		c-2.1,0.9-10.1,6.6-11.5,5.3c-0.3-1.4,0.3-1.8,1-2.8c2.1-2.8,12.3-6.7,16-8.8c2.5-1.4,3.4-3.6,6.9-4.1C90.5,5.9,97,6.2,95.3,8
		c-2.1,0.9-8.5,3.5-7.2,6.2c3.6-1.8,7.6-5.8,11.2-7.4c0.2-0.1,0.5-0.2,0.7-0.3c0.2-0.1,0.5-0.2,0.7-0.3c0.2-0.1,0.5-0.2,0.7-0.2
		c0.4-0.1,0.8-0.3,1.3-0.4c0.2-0.1,0.4-0.1,0.6-0.2c0.3-0.1,0.7-0.2,1-0.2c0.6-0.1,1.3-0.2,1.9-0.3c0.4,0,0.8-0.1,1.2-0.1l0.4,0
		c0.5,0,1-0.1,1.5-0.1c0.4,0,0.9,0,1.4,0c0.1,0,0.1,0,0.2,0l-5.1,5.9L116.5,58.2z"/>
	<path style="fill:#76C372;" d="M211.5,188.2c-0.2,0.2-2.8-1.6-3.8,0.7c-0.8,1.3,0,3.1-0.3,4.3c-0.1,0.6-1.6,0.8-2.2,2
		c-0.6,1.2-2.6,8.5-2.5,9.6c0.2,1.4,1.8,3.3,1.9,5l-0.7,0.7c-1.2-0.8-3.2,2.4-3.4,3.4c-0.6,2.9,4.5-1.3,5.5,0
		c-1.2,0.9-7.3,3.7-7.5,4.9c-0.2,0.7,1,1.5,1.2,2.1c0.2,1.1-0.8,2.8-0.5,4.7c0.3,2,4.5,6.8-0.7,6.6c-0.6-1.9,1.1-1.2,1.3-1.4
		c0.6-0.9-0.7-3.3-2.4,0c-0.6,1.2,0.2,2.4-2.2,3.2c3.2,2.3-2.1,6.6-2.1,7c-0.2,1,0.8,2.5,0.6,3.3c-0.2,0.9-2.2,1.3-3,2.5
		c-0.6,0.9-0.7,2.1-0.8,3.3l-64.2,4.2l1.9-5.7l21.4-65.7l5.4-19.5l22.2-79.9l29.7-3.1c0.2,1,0.5,1.9,0.4,2.3
		c-0.3,1.2-3.5,1.4-2.6,3.8l2.8,1l-1.4,0.8l4.9,19.8c-2.2,12.8-2.7,24.6-7.4,36.7c-3,7.8,3.3,6.3,4.8,10.6c0.3,0.9,1.2,4.7,0.8,5.4
		l-4.1,2l-0.4,1.4l2.4,1.4c0.4,0.8-2.1,1.9,0.6,3.4l1-2c-0.2,1.4,2,2,2.1,2.5c0.1,0.5-0.6,3.5-0.7,3.7c-0.6,0.4-2.4-1.2-3.1,0
		l-0.4,3.1l2.1,0.4l-0.7,4.1C213.7,179.3,210.2,184.5,211.5,188.2z"/>
	<path style="fill:#F3D65B;" d="M126.2,372.8c-1.4,0.9-1.6,2.6-2.4,3.8c-0.5,0.7-1.7,1-2,1.5c-0.6,0.9,0.7,2.4,0.4,2.7
		c-0.2,0.3-3.2,0.4-4,0.9c-0.4,0.2-5.7,5.8-6.4,6.5c-1.5,1.7-3.2,7-4.3,7.5c-2.4,1.3-2.4-0.2-5.8,3.2c-3.1,3.1-8.2,9.4-10.2,13.5
		c-0.5,1.1-0.4,4.6-1.5,4.8c-2.9,0.6-6.2-0.6-8.9-0.6c-1.9-0.1-3.8,1.1-6.1,0.6c-2.4-0.5-1.8-2.7-3.5-2.8c-2.2-0.2-6.4,1.9-9.6,2.2
		c-7.1,0.6-17.4-0.3-24.8-0.7c-3.1-0.2-8.7-2.8-11.1-2.8c-1.4,0-2.3,2.8-5.3,2.1c-0.7-0.2-0.8-1.6-1.5-2.1c-1.8-1.3-4.5-1.4-5.9-3.8
		c0-0.6,6.7-4.2,7.7-5.1c3-2.7,6-6.5,9.4-9.3c5.7-4.7,11-5,16.2-9.3c3.1-2.6,5.9-8,8.6-9.9c3.2-2.3,10.3-4.7,12.7-6.5
		c0.4-0.3,3.8-4.2,6.4-7.3L126.2,372.8z"/>
	<rect x="-301.1" y="403.1" style="fill:none;" width="230.5" height="28.6"/>
	<text transform="matrix(1 0 0 1 -281.4937 410.5435)" style="font-family:'Futura-Medium'; font-size:9px;">https://luizfernandez-code.github.io/portfolio/</text>
	<rect x="336.5" y="14" style="fill:#76C372;" width="85.4" height="85.4"/>
	<rect x="336.5" y="120.5" style="fill:#D287BA;" width="85.4" height="85.4"/>
	<rect x="338.6" y="328.2" style="fill:#E15E5A;" width="85.4" height="85.4"/>
	<rect x="336.5" y="224.3" style="fill:#F3D65B;" width="85.4" height="85.4"/>
</g>
<g id="Layer_2">
	<path style="opacity:0.2;fill:#939598;" d="M-126.1,328L-126.1,328c0,0.1,0,0.1-0.1,0.2C-126.1,328.1-126.1,328.1-126.1,328z
		 M-125.9,327.4L-125.9,327.4c0,0.1-0.1,0.2-0.1,0.3C-126,327.6-126,327.5-125.9,327.4z M-125.6,326.5L-125.6,326.5
		c0,0.1-0.1,0.2-0.1,0.2C-125.7,326.6-125.6,326.5-125.6,326.5z M-109.9,346.2L-109.9,346.2c0-0.1-0.1-0.2-0.1-0.3
		C-109.9,346-109.9,346.1-109.9,346.2z M-98.7,345.6L-98.7,345.6c-0.1,0.1-0.1,0.2-0.2,0.3C-98.8,345.8-98.8,345.7-98.7,345.6z
		 M-98.3,344.5L-98.3,344.5c-0.1,0.1-0.1,0.3-0.2,0.4C-98.4,344.7-98.3,344.6-98.3,344.5z M-98.1,344L-98.1,344
		c0,0.1-0.1,0.1-0.1,0.2C-98.2,344.2-98.2,344.1-98.1,344z"/>
	<path style="opacity:0.2;fill:#939598;" d="M-41.1,154c0.1,0.1,0.1,0.1,0.2,0.2c-0.1-0.1-0.2-0.2-0.3-0.3
		C-41.2,153.9-41.2,153.9-41.1,154z M-42.2,152.5C-42.1,152.5-42.1,152.5-42.2,152.5C-42.1,152.5-42.2,152.5-42.2,152.5
		C-42.2,152.5-42.2,152.5-42.2,152.5z M-42.3,152.2c0,0.1,0.1,0.2,0.1,0.2c-0.1-0.2-0.1-0.3-0.2-0.5
		C-42.3,152-42.3,152.1-42.3,152.2z M-43.7,126c-0.1,0-0.1,0.1-0.2,0.1c-0.1,0-0.1,0.1-0.2,0.1C-44,126.1-43.9,126.1-43.7,126z
		 M-45.7,187.4L-45.7,187.4c0,0,0,0.1-0.1,0.1C-45.7,187.5-45.7,187.5-45.7,187.4z M-45.8,187.7L-45.8,187.7c0,0,0,0.1-0.1,0.1
		C-45.9,187.8-45.8,187.7-45.8,187.7z M-45.9,188L-45.9,188c0,0.1-0.1,0.2-0.1,0.3C-46,188.1-45.9,188-45.9,188z M-46.1,188.5
		C-46.1,188.5-46.1,188.5-46.1,188.5C-46.1,188.5-46.1,188.5-46.1,188.5c0,0.1,0,0.1,0,0.2C-46.1,188.6-46.1,188.6-46.1,188.5z
		 M-46,188.2L-46,188.2C-46,188.3-46,188.3-46,188.2C-46,188.3-46,188.3-46,188.2z M-46.2,189.1L-46.2,189.1c0,0.1,0,0.2-0.1,0.3
		C-46.2,189.3-46.2,189.2-46.2,189.1z M-46.4,190.1L-46.4,190.1c0,0,0,0.1,0,0.1C-46.4,190.2-46.4,190.1-46.4,190.1z M-61.9,326.5
		C-61.9,326.4-61.9,326.4-61.9,326.5L-61.9,326.5C-61.9,326.4-61.9,326.4-61.9,326.5z M-63.1,355c0-0.1,0-0.2,0-0.3
		c0-0.2,0-0.3,0-0.5c0,0.3-0.1,0.6-0.1,0.8C-63.2,355.1-63.2,355.1-63.1,355z M-63,353.4c0,0.3,0,0.6-0.1,0.9
		C-63,354-63,353.7-63,353.4c0.1-1.4,0-2.7-0.2-3.9C-63,350.7-62.9,352-63,353.4z M-63.3,356c0-0.1,0-0.1,0-0.2c0,0,0-0.1,0-0.1
		c0,0.3-0.1,0.6-0.2,0.9C-63.4,356.4-63.3,356.2-63.3,356z M-63.7,357.8c0-0.2,0.1-0.4,0.1-0.6c-0.1,0.4-0.2,0.8-0.3,1.2
		C-63.8,358.2-63.8,358-63.7,357.8z M-66,363.8c0.1-0.3,0.3-0.7,0.4-1C-65.7,363.1-65.8,363.5-66,363.8C-66,363.8-66,363.8-66,363.8
		z M-68.2,370.2L-68.2,370.2C-68.2,370.2-68.3,370.2-68.2,370.2C-68.3,370.2-68.2,370.2-68.2,370.2z M-70.6,222.4
		c0.1,0.1,0.1,0.2,0.2,0.2h0C-70.4,222.5-70.5,222.4-70.6,222.4C-70.6,222.4-70.6,222.4-70.6,222.4z M-71.3,221.3L-71.3,221.3
		c0-0.1-0.1-0.2-0.2-0.3C-71.4,221.1-71.4,221.2-71.3,221.3z M-71.2,214.4L-71.2,214.4c-0.1,0.1-0.2,0.2-0.4,0.4
		C-71.4,214.7-71.3,214.6-71.2,214.4z M-71.6,220.8L-71.6,220.8c0-0.1-0.1-0.2-0.1-0.2C-71.7,220.6-71.7,220.7-71.6,220.8z
		 M-71.9,220.3L-71.9,220.3C-71.9,220.3-72,220.2-71.9,220.3C-72,220.2-72,220.3-71.9,220.3z M-72.2,219.8L-72.2,219.8
		c0-0.1-0.1-0.2-0.1-0.2C-72.3,219.7-72.3,219.7-72.2,219.8z M-96.3,337.7C-96.3,337.7-96.3,337.6-96.3,337.7
		C-96.3,337.7-96.3,337.7-96.3,337.7C-96.3,337.7-96.3,337.7-96.3,337.7z"/>
	<path style="opacity:0.2;fill:#939598;" d="M-46.1,188.5L-46.1,188.5c0,0.1,0,0.1,0,0.2C-46.1,188.6-46.1,188.6-46.1,188.5z"/>
	<path style="opacity:0.2;fill:#939598;" d="M-40,182.3L-40,182.3c0,0-0.1-0.1-0.2-0.2C-40.1,182.1-40.1,182.2-40,182.3z
		 M-60.9,191.9c0-0.2,0-0.4,0-0.6c0-0.5,0-1,0.2-1.5c0-0.1,0-0.1,0.1-0.2c0,0.1-0.1,0.2-0.1,0.2C-60.9,190.5-61,191.2-60.9,191.9z
		 M-71.6,214.8L-71.6,214.8c0-0.1-0.1-0.1-0.1-0.2C-71.7,214.7-71.6,214.8-71.6,214.8z M-72.6,213.6
		C-72.6,213.6-72.6,213.6-72.6,213.6L-72.6,213.6C-72.6,213.6-72.6,213.6-72.6,213.6z M-72.9,213.2
		C-72.9,213.2-72.9,213.2-72.9,213.2L-72.9,213.2C-72.9,213.2-72.9,213.2-72.9,213.2z"/>
	<path style="opacity:0.2;fill:#808285;" d="M-261.7,263c1-3.3-0.3-5.6,1.4-9l2.1,0.7c-1.8,2.9,0.3,2.5,0.6,3.3
		c0.5,1.2,0.8,2.5,1.2,3.7c0.5,1.4,1.1,2.7,2.3,3.6l-1.4,1.4l2,2.1c-3.6,1.4-1.2,3.5-1.8,6.4c-0.2,1.2-0.7,1.9-1.2,2.6
		c-0.5,0.7-1,1.3-1.1,2c-0.3,1.5,0.5,1.7,1.1,2c0.4,0.2,0.7,0.4,0.8,0.8c0.8,2.2,0,6.2-0.8,9.9c-0.5,2.6-1.1,5-1.1,6.6
		c0,1.5,1.1,2.1,1.1,2.7c0.1,0.8-2.2,8.1-2.4,10.4c-1,10.6,3.5,19,4.6,28.9c1.6,13.1-3.8,37,1.3,50.5c0.8,2.1,1.8,4,3.2,5.5
		c1.3,1.4,3,2.1,4.2,3.4c0,0,0,0,0,0c0.1,0.2,1.2,1.8,3,4.2c0.2,0.3,0.4,0.5,0.6,0.8c1.6,2.2,3.6,4.9,5.8,7.7
		c1.1,1.3,2.2,2.7,3.4,4.1c0.6,0.8,1.3,1.5,1.9,2.2h109c5.3-5.3,11.8-8.8,16.4-10.7c3.5-2.7,6.6-5.9,10.1-8.7c0.6-0.5,0.9-1.7,1.5-2
		c2-1.3,4.5,0.7,6.4,0.2c2.5-0.7,8.4-9.2,10.5-11.6c2.9-3.4,7.6-6.6,8.9-11.1c0.6-2.1-0.4-3.2-0.1-4.8c0-0.1,0-0.2,0.1-0.3
		c0-0.1,0-0.1,0-0.2c0,0,0-0.1,0-0.1l0,0c0-0.1,0-0.1,0-0.2c0.1-0.3,0.1-0.6,0.2-0.9c0-0.2,0.1-0.4,0.1-0.5c0.2-0.6,0.4-1.2,0.6-1.8
		c0.1-0.3,0.3-0.7,0.4-1c0.3-0.7,0.6-1.3,0.9-2v0c0.1-0.3,0.3-0.7,0.5-1c0.1-0.2,0.1-0.3,0.2-0.5c0.1-0.2,0.2-0.5,0.3-0.7
		c0.1-0.1,0.1-0.3,0.2-0.4c0.1-0.3,0.2-0.5,0.3-0.8c0.1-0.3,0.2-0.5,0.3-0.8c0.1-0.4,0.2-0.8,0.4-1.2c0.1-0.4,0.2-0.8,0.3-1.2
		c0.1-0.2,0.1-0.4,0.1-0.6c0.1-0.3,0.1-0.6,0.2-0.9c0-0.1,0-0.1,0-0.2s0-0.1,0-0.2c0-0.1,0-0.2,0-0.2c0-0.3,0.1-0.6,0.1-0.8
		c0-0.3,0-0.6,0.1-0.9c0.1-1.4,0-2.7-0.2-3.9c0,0,0,0,0,0c-0.1-0.4-0.1-0.8-0.2-1.3c-0.1-0.4-0.2-0.7-0.2-1c0-0.2-0.1-0.3-0.1-0.5
		c-0.2-0.8-0.4-1.7-0.5-2.5c0-0.2,0-0.4-0.1-0.5c0-0.1,0-0.2,0-0.2c0-0.2,0-0.3,0-0.4c0-0.1,0-0.1,0-0.2c0-0.1,0-0.3,0-0.4
		c0-0.2,0-0.3,0-0.5c0-0.3,0-0.5,0.1-0.8c0-0.1,0-0.2,0.1-0.4c0.2-0.9,0.5-1.7,0.8-2.5c0.1-0.2,0.1-0.3,0.2-0.4
		c0.2-0.5,0.5-1.1,0.8-1.6c0.1-0.2,0.2-0.3,0.2-0.5c0.1-0.2,0.2-0.5,0.3-0.7c0.1-0.2,0.2-0.5,0.3-0.7c0.1-0.2,0.2-0.5,0.3-0.8
		c0.1-0.3,0.2-0.6,0.2-0.9c0.1-0.2,0.1-0.5,0.2-0.7c0-0.2,0.1-0.4,0.1-0.6c0-0.2,0-0.4,0-0.6c0-0.1,0-0.2,0-0.3c0-0.3,0-0.6,0-0.9
		c0-0.1,0-0.1,0-0.2c0-0.2,0-0.5-0.1-0.8c0-0.3-0.1-0.6-0.2-0.8s-0.2-0.5-0.4-0.7c-0.1-0.2-0.2-0.5-0.3-0.7c0,0,0,0,0,0
		c0,0,0-0.1-0.1-0.1c-0.1-0.2-0.1-0.4-0.2-0.6c-1-5,3.2-8.2,3.3-12.2c0.1-3.6-2.2-11.4-4.2-14.5c0.9-9.4,2.7-1.1,6.7,0.9
		c6.1,3,9.6-0.9,13.2-5c0.1-0.1,0.2-0.2,0.2-0.3c0,0,0,0,0,0c0,0,0,0,0-0.1c0.2-0.2,0.3-0.5,0.4-0.7c0-0.1,0.1-0.2,0.2-0.3
		c0.2-0.4,0.5-0.9,0.7-1.3c0.1-0.2,0.2-0.3,0.4-0.5c0.3-0.4,0.7-0.6,1.2-0.6c0.7-0.7,1.3-1.5,2-2.2V61.1c-0.9,0.8-1.8,1.5-2.4,2.1
		c-2-1-4.7-0.8-6.6-1.6c-0.1,0-0.1,0-0.2-0.1c-2.6,1.3-7.3,3.8-9.3,2.1c-0.8,2.3-1.5,4.7-2.4,6.5l-2.1,0.4l0-4.6l-2.3,4.5
		c-2.9-2.3-6.9-3.3-9.6-5l-3.9,0c-1.5-5.8-4.5-10.2,3.4-12.3c0,0.3,0.1,0.7,0.1,1.1c0,0.1,0,0.2,0.1,0.4c0,0,0,0,0,0
		c0,0.2,0,0.3,0.1,0.5c0.1,0.8,0.3,1.6,0.6,2.3c3.4-2.1,10,0.2,10.6-4.1l4,2c0,0,0,0,0,0c0.3,0,0.5-0.1,0.8-0.1
		c1.5-1.2,2.7-2.2,3.1-2.9c3.3,0,3.9,0.6,3.4,1.6c0.1,0.2,0,0.5-0.1,0.8c0.3-0.1,0.6-0.2,0.9-0.3c2.3-0.7,8.7-1.6,11.8-1.5V0
		l-112.9,0l-8,8.1c-0.6,1-1.2,1.9-1.9,2.8c-1.2,1.5-2.9,1.9-4.4,4.2c-0.2,0.2-1,0.2-1.1,0.8c-0.3,1.3,0,8-0.2,8.3
		c-0.2,0.4-2,1.1-2.9,2.9c-1.9,4-0.5,5.5-4.5,9.3c-3.3,3.2-8.7,8.1-10.7,12.7c-0.5,1.1-0.2,2.2-0.4,3.4l-1.8,0.1
		c0.4,2.8-1.5,2.8-2.2,3.9c-2,3-9.2,14.7-10,17.3c-0.4,1.3,0,3.3-0.4,4c-0.2,0.4-4.2,3.8-5.3,5.4c-2.5,4-3.9,9.9-6.4,13.6
		c-1.8,2.6-8.3,7.7-9.6,10.4c-0.5,1.1,0.2,2,0,2.3c-0.3,0.4-2.8,1.1-3.6,2.2c-0.7,0.9-6.3,13.4-6.4,14.2c-0.1,2,2,5.1,1.6,7.8
		c-0.5,3.8-5.8,8.3-5.1,11.1c1.8,6.8-1.2,8.2-2.6,13.6c-1.1,4,1,2.7-2.1,7.1c-0.3,0.4,1.7,1.6-1.6,1.2c-0.2,3.5,4.2-0.3,4.1,3.4
		c-5.5,0.2-6.4,5.4-7.9,9.3c-0.7,1.9-4.2,9.7-4.2,11c0,1,0.9,2,1,2.9c0.3,4.4-2.2,3.3-2.6,4.1c-1.8,3.2,0.3,10.1,0.4,13.8
		c0.1,1.4-0.5,3-0.5,4.7c0,2.1,2,7-1.1,5c-0.2-0.1-0.5-0.3-0.9-0.6l0,3.5l-1.4-0.7c2,4-1.5,4.1-2.6,6.7c-1.9,4.7-1.2,14-3.4,20
		c-0.7,2-2.1,2.5-2.6,3.6C-263.2,256-264.9,261.2-261.7,263z M-39.8,211.3c0,1.4,0,2.8,0,4.2c0,0.5,0,1,0,1.6c0,0.5,0,1,0,1.5
		c0,0.6,0,1.3,0,1.9c0,1.1-0.1,2.2-0.1,3.4c0,1.1-0.1,2.2-0.1,3.2c0,0.7-0.1,1.3-0.1,2c0,0.8-0.1,1.6-0.1,2.4
		c-0.2,3-0.4,6.1-0.6,9.2c-0.1,2.2,0.7,5.5,0.5,6.8c0,0.1-0.1,0.3-0.1,0.4c0,0.1-0.1,0.1-0.1,0.2c0,0.1-0.1,0.2-0.1,0.2
		c0,0.1-0.1,0.1-0.1,0.2c-0.1,0.1-0.1,0.2-0.2,0.4c-0.1,0.1-0.2,0.2-0.2,0.4c-0.1,0.2-0.2,0.4-0.3,0.5c0,0.1-0.1,0.2-0.2,0.3
		c0,0.1-0.1,0.1-0.1,0.2c0,0,0,0.1,0,0.1c0,0,0,0.1-0.1,0.2c0,0.1,0,0.1-0.1,0.2c0,0,0,0,0,0.1c0,0.1,0,0.1-0.1,0.2c0,0,0,0,0,0
		c0,0.1,0,0.2-0.1,0.3c0,0.1,0,0.2,0,0.4c-0.3,7.1,0.6,13.4,0,21.3c-0.2,3.1,0.1,5.4,0,7.8c-0.1,2-0.6,4.1-2,6.6
		c-1.5,2.6-7.7,10.4-10.8,7c-1.9-2-1.8-8-3.6-10.5c0.9-10.2-1.2-20-4.5-29.2c-0.8-2.4-1.7-4.6-2.8-6.9l-1.7,0
		c-0.6-1.8,1.9-1.7,2.1-2.5c0.3-1.7-2-8.9-2.9-10.8c-2.8-5.6-4.1-5.3-5.4-12.4c0-0.1-0.2-0.6-0.4-1.1c0-0.1-0.1-0.2-0.1-0.2
		c-0.2-0.4-0.3-0.8-0.4-1.2c0-0.1,0-0.2,0-0.2c0-0.1,0-0.1,0-0.2v0c0-0.1,0-0.1,0-0.2c0-0.1,0-0.2,0-0.2c0-0.1,0-0.1,0-0.2
		c0-0.1,0-0.2,0.1-0.2c0,0,0.1-0.1,0.2-0.1c0.3-0.1,0.7,0,1.5,0.4c0.1,0,0.2,0.1,0.2,0.2l0.1,0.1c0,0,0,0.1,0.1,0.1
		c0.1,0.1,0.1,0.2,0.2,0.2c0,0.1,0.1,0.1,0.1,0.2c0,0.1,0.1,0.1,0.1,0.2c0.1,0.1,0.1,0.1,0.2,0.2c0,0,0,0.1,0.1,0.1
		c0,0.1,0.1,0.2,0.2,0.3c0,0,0,0,0,0.1c0,0.1,0.1,0.2,0.2,0.2c0,0.1,0.1,0.2,0.2,0.2c0,0.1,0.1,0.2,0.2,0.3c0.1,0.1,0.1,0.2,0.2,0.3
		c0,0.1,0.1,0.2,0.2,0.3c0.1,0.1,0.1,0.2,0.2,0.3c0.1,0.1,0.1,0.2,0.2,0.3c0,0,0.1,0.1,0.1,0.1c0,0,0,0.1,0.1,0.1
		c0.1,0.1,0.1,0.2,0.2,0.3c0.1,0.1,0.1,0.2,0.2,0.2c0.1,0.2,0.3,0.3,0.4,0.5c0.1,0.1,0.2,0.2,0.3,0.3c0.1,0.1,0.2,0.2,0.4,0.3
		c0.2,0.1,0.3,0.2,0.5,0.3c0.1,0.1,0.3,0.1,0.4,0.2c0.1,0,0.2,0.1,0.3,0.1c0.1,0,0.2,0,0.3,0.1c0.1,0,0.1,0,0.2,0c0,0,0.1,0,0.1,0
		c0.1,0,0.2,0,0.3,0c0.1,0,0.1,0,0.2,0h0c0.1,0,0.1,0,0.2,0c0,0,0,0,0,0c0.2,0,0.4-0.1,0.6-0.2c0.1,0,0.3-0.1,0.4-0.1
		c0.3-0.1,0.5-0.3,0.8-0.4c1.8-2.6-1.6-4.3-1.7-5.8c-0.1-2,2.2-9.8-0.5-10.6l-2.3-0.1c0,0.4,0,0.9,0,1.3c0,0.3,0,0.7-0.1,1
		c0,0.3-0.1,0.5-0.1,0.8c0,0.2-0.1,0.4-0.1,0.5c0,0.1,0,0.2,0,0.2c0,0.2-0.1,0.4-0.2,0.6c0,0.1-0.1,0.2-0.1,0.3
		c-0.1,0.2-0.2,0.5-0.3,0.7c0,0.1-0.1,0.1-0.1,0.2c-0.2,0.3-0.4,0.7-0.6,1c0,0.1-0.1,0.1-0.2,0.2c-0.1,0.1-0.2,0.2-0.3,0.3v0
		c-0.1,0.1-0.2,0.2-0.4,0.4l0,0c0-0.1-0.1-0.1-0.1-0.2c0,0,0,0,0,0l-0.2-0.2c-0.1-0.1-0.2-0.3-0.3-0.4c-0.1-0.1-0.2-0.2-0.3-0.4
		c0,0,0,0,0-0.1c0,0-0.1-0.1-0.1-0.2c0-0.1-0.1-0.1-0.1-0.2c0,0,0,0-0.1-0.1c-0.1-0.1-0.2-0.3-0.3-0.4c-0.1-0.2-0.3-0.5-0.4-0.7
		c-0.1-0.1-0.1-0.2-0.2-0.4c-0.1-0.1-0.1-0.2-0.2-0.4c-0.1-0.2-0.2-0.5-0.3-0.7c0-0.1-0.1-0.2-0.1-0.3c0-0.1-0.1-0.3-0.1-0.5
		c0-0.1-0.1-0.2-0.1-0.4c0-0.1,0-0.1,0-0.2c0,0,0-0.1,0-0.1c0-0.3-0.1-0.6-0.1-0.9c0-0.1,0-0.2,0-0.3c0-0.4,0-0.7,0-1.1
		c0-0.1,0-0.1,0-0.2c0,0,0,0,0,0c0,0,0,0,0,0s0,0,0,0c0-0.2,0-0.4,0.1-0.5c0,0,0-0.1,0-0.1c0-0.1,0-0.1,0-0.2c0,0,0-0.1,0-0.1
		c0-0.2,0.1-0.4,0.1-0.6c0,0,0,0,0,0c0-0.1,0-0.2,0.1-0.2c0.1-0.3,0.2-0.6,0.2-0.9c0.5-0.1,0.9,0,1.2,0.2c0.1,0.1,0.1,0.1,0.2,0.2
		c0,0,0,0,0,0c0.1,0.1,0.2,0.2,0.3,0.3c0.1,0.1,0.2,0.3,0.4,0.4c0,0,0.1,0.1,0.1,0.1c0.1,0.1,0.1,0.1,0.2,0.2c0,0,0,0,0,0
		c0,0,0,0,0.1,0c0.1,0.1,0.2,0.1,0.3,0.2c0.1,0,0.1,0,0.2,0.1c0.2,0,0.4,0,0.5,0c0.1,0,0.2,0,0.3,0c0.1,0,0.2,0,0.2,0
		c0.1,0,0.2,0,0.3-0.1c0.1,0,0.2-0.1,0.3-0.1c0,0,0,0,0,0c0.1-0.1,0.2-0.1,0.3-0.2c0-0.1,0.1-0.1,0.1-0.2c0.1-0.1,0.2-0.3,0.2-0.4
		c0-0.1,0.1-0.2,0.1-0.2c0-0.1,0.1-0.2,0.1-0.2c0-0.1,0.1-0.2,0.1-0.4c0,0,0,0,0,0c0-0.1,0-0.3,0.1-0.4c0-0.1,0-0.3,0-0.4v-0.1
		c0-0.1,0-0.2,0-0.4c0-0.3,0.1-0.6,0.1-0.9c0-0.2,0.1-0.3,0.1-0.4c0-0.1,0.1-0.3,0.1-0.4c0-0.1,0.1-0.3,0.1-0.4
		c0.1-0.1,0.3-0.1,0.5-0.1c0,0,0.1,0,0.1,0c0,0,0,0,0,0c0.1,0,0.1,0,0.2,0.1c0.1,0,0.2,0.1,0.4,0.1c0.1,0.1,0.3,0.1,0.4,0.2
		c0.1,0,0.2,0.1,0.2,0.1c0.4,0.3,0.9,0.6,1.4,1c0.2,0.1,0.3,0.3,0.5,0.4c0.6,0.5,1.2,1,1.8,1.5c0.1,0.1,0.2,0.2,0.2,0.2
		c0.6,0.5,1.2,0.9,1.4,1c3.5,1,11.9-0.4,14.7-2.9c2.4-2.2,2.2-5.4,3.8-7.9c0.1,0,0.2,0.1,0.3,0.2c0,0,0,0,0,0.1c0,0,0,0,0,0.1
		c0,0,0,0.1,0.1,0.1c0,0,0,0,0,0c0,0,0.1,0.1,0.1,0.2c0,0.1,0.1,0.2,0.1,0.3c0,0,0,0.1,0,0.1c0,0.2,0.1,0.3,0.1,0.5c0,0,0,0.1,0,0.1
		c0.1,0.4,0.2,0.8,0.3,1.2c0,0.1,0,0.2,0.1,0.3c0,0.1,0,0.2,0.1,0.3c0,0.2,0.1,0.4,0.1,0.6c0,0.2,0.1,0.4,0.1,0.5c0,0.1,0,0.2,0,0.3
		c0,0.1,0,0.2,0,0.2c0,0.1,0,0.2,0,0.2c0.1,0.5,0.1,1,0.1,1.2c0.1,1.1,0.2,2.2,0.2,3.2c0.1,1,0.1,2,0.1,3v0c0,0.2,0,0.4,0,0.5
		c0,0.4,0,0.9,0,1.3c0,0.4,0,0.8,0,1.2c0,0.3,0,0.6,0,0.9V211.3z M-38.9,185.2c-1.1,0-2,0.1-2.8,0.2c-0.1,0-0.2,0-0.3,0
		c-0.5,0.1-0.8,0.1-1.2,0.2c-0.1,0-0.2,0-0.3,0.1c0,0,0,0-0.1,0c-0.2,0.1-0.5,0.2-0.7,0.2c-0.1,0-0.2,0.1-0.3,0.2c0,0,0,0,0,0
		c-0.1,0-0.2,0.1-0.3,0.2c-0.2,0.1-0.3,0.2-0.4,0.3c0,0-0.1,0.1-0.1,0.1c0,0-0.1,0.1-0.1,0.1c0,0.1-0.1,0.1-0.1,0.2
		c0,0,0,0.1-0.1,0.1c0,0,0,0,0,0c0,0,0,0,0,0c0,0,0,0,0,0.1c0,0,0,0.1,0,0.1c0,0,0,0.1-0.1,0.1c0,0,0,0,0,0.1c0,0,0,0,0,0.1
		c0,0,0,0.1-0.1,0.1c0,0,0,0.1,0,0.1c0,0.1-0.1,0.2-0.1,0.3c0,0,0,0.1,0,0.1c0,0,0,0.1,0,0.1c0,0,0,0,0,0.1c0,0.1,0,0.1,0,0.2
		s0,0.1,0,0.2c0,0.1,0,0.1,0,0.2c0,0,0,0.1,0,0.1c0,0.1,0,0.2-0.1,0.3c0,0,0,0.1,0,0.2c0,0.2-0.1,0.3-0.1,0.5c0,0,0,0.1,0,0.1
		c0,0,0,0,0,0c0,0,0,0.1,0,0.1c-0.2,0.7-0.4,1.5-0.9,2.3c-0.2,0.3-5,5.8-5.3,6c-1.5,1-8.5,2.6-10,1.2h0c-0.1-0.1-0.1-0.1-0.2-0.2
		c-0.3-0.6-0.4-1.1-0.4-1.5c0-0.1,0-0.2,0-0.3c0-0.1,0-0.2,0.1-0.3c0-0.1,0.1-0.2,0.1-0.2c0-0.1,0.1-0.1,0.1-0.2
		c0.1-0.2,0.2-0.3,0.3-0.4c0.1,0,0.1-0.1,0.2-0.1c0.1-0.1,0.1-0.1,0.2-0.2c0.1,0,0.1-0.1,0.2-0.2c0.1-0.1,0.3-0.2,0.4-0.3
		c0.1-0.1,0.2-0.2,0.3-0.2c0.1-0.1,0.2-0.2,0.2-0.2c0,0,0,0,0-0.1c0,0,0-0.1,0-0.1c0.3-0.8,0.2-1.6,0.1-2.6c0-0.2,0-0.4,0-0.6
		c0-0.7,0-1.4,0.1-2.1c0-0.1,0-0.1,0.1-0.2c0.1-0.1,0.1-0.3,0.2-0.5c0.5-0.9,1.4-1.9,2.2-2.8c0.1-0.1,0.2-0.2,0.2-0.3
		c0.1-0.1,0.2-0.2,0.2-0.3c0.2-0.2,0.4-0.4,0.5-0.6c0.1-0.2,0.3-0.4,0.4-0.5c0.6-0.8,0.8-2.8,1.6-3.4c0.3-0.2,0.7-0.4,1.2-0.6
		c0.2,0,0.3-0.1,0.5-0.2c0.2-0.1,0.3-0.1,0.5-0.1c0.3-0.1,0.7-0.2,1.1-0.3c0.4-0.1,0.8-0.1,1.2-0.2c0.1,0,0.1,0,0.2,0
		c0.1,0,0.3,0,0.4-0.1c0.1,0,0.2,0,0.2,0c0.1,0,0.1,0,0.2,0c0.3,0,0.5-0.1,0.8-0.1c0.2,0,0.4,0,0.6,0c0.2,0,0.5,0,0.7,0
		c0.2,0,0.4,0,0.6,0c0.4,0,0.7,0,1,0c0.2,0,0.3,0,0.4,0c0,0,0,0,0,0c0.2,0,0.5,0,0.7,0c0.3,0,0.6,0,0.8,0.1c0.1,0,0.2,0,0.4,0.1
		c0,0,0,0,0.1,0c0.2,0,0.3,0.1,0.5,0.2c0.2,0.1,0.4,0.2,0.7,0.3c0.2,0.1,0.3,0.2,0.5,0.3c0.1,0.1,0.3,0.2,0.4,0.2
		c0.2,0.1,0.4,0.3,0.6,0.4c0.1,0.1,0.3,0.2,0.4,0.3c0.1,0.1,0.1,0.1,0.2,0.2c0.1,0.1,0.2,0.2,0.3,0.3c0.1,0.1,0.2,0.2,0.3,0.3
		c0.1,0.1,0.2,0.2,0.2,0.3c0.1,0.1,0.1,0.2,0.2,0.2c0.1,0.1,0.1,0.2,0.2,0.4c0,0,0,0,0,0c0,0.1,0.1,0.1,0.1,0.2c0,0,0,0,0,0
		c0,0.1,0.1,0.1,0.1,0.2c0,0,0,0,0,0c0,0,0,0,0,0.1c0,0.1,0.1,0.1,0.1,0.2c0,0.1,0.1,0.2,0.1,0.4c0,0,0,0.1,0,0.1
		C-38.9,184.8-38.9,185-38.9,185.2z M-42.2,152.4c0,0,0,0.1,0,0.1C-42.1,152.5-42.1,152.5-42.2,152.4
		C-42.2,152.5-42.2,152.5-42.2,152.4c0-0.1-0.1-0.2-0.1-0.2c0-0.1-0.1-0.2-0.1-0.2C-42.3,152.1-42.2,152.3-42.2,152.4z M-40.9,154.1
		c-0.1,0-0.1-0.1-0.2-0.2c0,0-0.1-0.1-0.1-0.1C-41.1,153.9-41,154-40.9,154.1z M-43.9,126.1c0.1,0,0.2-0.1,0.2-0.1
		c-0.1,0.1-0.3,0.2-0.4,0.3C-44.1,126.2-44,126.2-43.9,126.1z M-245.5,230.6c0.8-1.3,0-3.1,0.3-4.3c0.1-0.6,1.6-0.8,2.2-2
		c0.6-1.2,2.6-8.5,2.5-9.6c-0.2-1.4-1.8-3.3-1.9-5l0.7-0.7c1.2,0.8,3.2-2.4,3.4-3.4c0.6-2.9-4.5,1.3-5.5,0c1.2-0.9,7.3-3.7,7.5-4.9
		c0.2-0.7-1-1.5-1.2-2.1c-0.2-1.1,0.8-2.8,0.5-4.7c-0.3-2-4.5-6.8,0.7-6.6c0.6,1.9-1.1,1.2-1.3,1.4c-0.6,0.9,0.7,3.3,2.4,0
		c0.6-1.2-0.2-2.4,2.2-3.2c-3.2-2.3,2.1-6.6,2.1-7c0.2-1-0.8-2.5-0.6-3.3c0.2-0.9,2.2-1.3,3-2.5c0.6-0.9,0.7-2.1,0.8-3.3
		c0.1-1.2,0.1-2.3,0.4-3.1c0.6-1.6,3.7-0.4,0.6-4.9c2.6-0.9,1.6-2.5,2.5-3.8c1.2-1.9,2.6-3,3.8-5.9c0.4-1-0.1-2.2,0-2.3
		c0.3-0.2,1.4-0.1,1.9-0.4c2.2-1.6,4.3-9.2,5.4-11.8c1.3-3.1,5.2-5-1.1-7.8l-0.1-0.9c0.9-1.3,1.1-3.2,1.8-4.5
		c1.8-3.3,4.6-6.9,6.2-9.9c1.5-2.8,3.8-5.4,2.3-8.7c3.7,0.8,2.8-1.7,3.6-2.6c0.3-0.3,1.4,0.1,1.9-0.6c1.3-1.7,0.5-4.8,3.4-8.2
		c3.4-4,9.1-9.7,12-14.2c4-6.3,7.2-13.4,11.6-19.3c1-1.4,2.2-2.8,3.4-4c0.7-0.7,1.5-1.4,2.2-2.1c0.4-0.3,1-0.8,1.6-1.2
		c1.1-0.8,2.3-1.6,2.5-2.2c1.4-3-2.8-2.7-2.4-4.4c1.4-0.9,1.6-2.6,2.4-3.8c0.5-0.7,1.7-1,2-1.5c0.6-0.9-0.7-2.4-0.4-2.7
		c0.2-0.3,3.2-0.4,4-0.9c0.4-0.2,5.7-5.8,6.4-6.5c1.5-1.7,3.2-7,4.3-7.5c2.4-1.3,2.4,0.2,5.8-3.2c3.1-3.1,8.2-9.4,10.2-13.5
		c0.5-1.1,0.4-4.6,1.5-4.8c2.9-0.6,6.2,0.6,8.9,0.6c1.9,0.1,3.8-1.1,6.1-0.6c2.4,0.5,1.8,2.7,3.5,2.8c2.2,0.2,6.4-1.9,9.6-2.2
		c7.1-0.6,17.4,0.3,24.8,0.7c3.1,0.2,8.7,2.8,11.1,2.8c1.4,0,2.3-2.8,5.3-2.1c0.7,0.2,0.8,1.6,1.5,2.1c1.8,1.3,4.5,1.4,5.9,3.8
		c0,0.6-6.7,4.2-7.7,5.1c-3,2.7-6,6.5-9.4,9.3c-5.7,4.7-11,5-16.2,9.3c-3.1,2.6-5.9,8-8.6,9.9c-3.2,2.3-10.3,4.7-12.7,6.5
		c-0.4,0.3-3.8,4.2-6.4,7.3c-0.9,1.1-1.7,2.1-2.3,2.8c-0.4,0.5-0.7,0.8-0.8,1c-5.1,7.4,0.3,6.2,4,9c1.7,1.3,2.8,4,5.8,4.6
		c3.3,0.6,5.4-4.3,9.7-1.8c1.1,3.3,1.8,8.3,3.4,11.4c3.9,7.5,16.9,7.5,23.8,5l1.8,6.6c3.1,1.1,7.1,1.1,10,2.3
		c1.6,0.7,2.6,2.3,4.2,2.7c2.6,0.6,4.6-1.2,7.1-0.2c1.7,1.8-1.8,0.5-1.4,3.5c0,0.3,1.3,0.3,1.6,1.2c0.7,1.8,0.6,4.8,0.1,7
		c-0.1,0.5-0.2,0.9-0.4,1.3c-0.2,0.7-0.7,1.1-1.2,1.4c-1.3,0.8-3.4,0.5-4.8,1.1c-2,0.8-7,4.8-7.5,4.9c-1.3,0.3-2.2-1.1-3.3-1.3
		c-3.6-0.6-5,4.4-7.5,6.2c-1.8-1.3-0.4-1.2,0-2.1c1.3-3.4,7-9,5.6-12.3c-1.6-3.8-6.9-1.2-7.2-1.4c-0.2-0.1-0.7-3-2.4-4.1
		c-1-0.7-2.3-0.5-3.1-1c-4.7-2.9-4.9-5.3-10.4,0c-1.9,1.8-5,6.7-6.8,9c-0.9,1.3-5.3,8.5-6,8.5c-0.7,0-1-1.4-0.9-2.2
		c0.1-0.4,1.8-6.4,1.9-6.8c0.4-1,2.2-0.9,2.6-2.4c0.4-1.2,1-8.2,0.5-9.2c-1.3-2.2-6-1.9-7.1-2.9c-1.7-1.7-0.7-6.7-5.7-9.1
		c-6.2-2.9-10.8,2.7-12.5,2.3c-1.5-0.4-3.8-4.5-8-2.7c0.5-6.1-8-9-7.6-0.7l-4.8-1.4c-0.5,2.3,2.2,0.9,3.1,2.7
		c1.7,3.5-0.5,3.7-1.3,4.9c-2.3,3.6-2.7,3.6-4.9,6.1c-0.4,0.5-3.1,7.2-3.1,8c-0.1,2.2,3.5,4,5.2,4.1c0.4,0,1-0.9,1.7-0.8
		c2.5,0.3,4.7,1.6,5.8,3.8l0.7-1.4c1.9-0.6,1.6,1.3,2.2,1.4c1.1,0.2,2.1,0,3.2-0.2c2.6-0.5,1.8-1.3,1.6-2.3
		c-0.1-0.4-0.1-0.9,0.2-1.3l4.3-2.1l0.2-4.4c4.5-0.8,4.2-5,8-5.5c0.6,0.7-5.5,14.4-4.7,17.4c1.3,4.7,7.4,0.8,8.5,2.5
		c0.6,0.9,0.2,3,0.4,4.3c0.2,0.8,1,1.6,1.1,2.4c0.2,1-0.6,1.8-0.6,2.5c0,0.3,3.6,3.4,4.6,3.7c5.5,1.4,2.6-1.6,4.6-3.3
		c1.5-0.4,2.7-1.6,3.9-2.6c1.4-1.2,2.8-2.1,4.8-1.4c0.2,0.6,0,1.1-0.2,1.5c-0.4,0.8-1,1.4-1,2.1c0,2.8,3,3.5,3.2,4.3
		c0.3,1.3-1.5,4.9,0.1,7.4c0.3,0.4,0.7,0.8,1.2,1.2c2.7,1.9,4.5,0.5,6.7,0.6c1.3,0.1,2,1,2.7,1.1c5.7,0.6,15.6,1.2,21-0.7
		c2.4-0.8,3.7-4.2,6.5-4.5c1.5,1.1,0.6,1,0.5,1.8c-0.3,1.4-1,2.1-0.8,4.1c0,0,0,0.1,0.1,0.2c0,0.1,0,0.2,0.1,0.3
		c0,0.1,0,0.1,0.1,0.2c0,0.1,0.1,0.2,0.1,0.3c0,0,0,0.1,0,0.1c0.1,0.3,0.2,0.6,0.3,1c0,0,0,0,0,0.1c0.1,0.2,0.1,0.5,0.2,0.8
		s0.2,0.5,0.2,0.8c0.1,0.2,0.2,0.5,0.2,0.7c0.1,0.2,0.1,0.3,0.2,0.5c0,0.1,0,0.1,0.1,0.2c0.1,0.4,0.2,0.7,0.3,0.7
		c0.7,1.4,4.2,2.5,5.5,4.2c0,0,0.1,0.1,0.1,0.1c0.2,0.3,0.5,0.8,0.9,1.5c0.1,0.2,0.3,0.5,0.4,0.8c0.2,0.3,0.4,0.7,0.6,1
		c0.1,0.3,0.3,0.5,0.4,0.8c0.1,0.1,0.1,0.3,0.2,0.4v0c1.3,2.5,2.7,5.2,2.9,5.8c0.6,2,0.9,8-0.9,9.2c-2.7,1.8-12.2-3.4-18.3,2.3
		c-1.9,1.8-2.3,4.6-3.5,6.2c-0.8,1.1-4.2,2.6-4.4,3.3c-0.5,1.8,0.3,5.3,0,7.5c-0.2,1.8-1.8,3.1-1.4,5.1c-3.8,0.9-3.2-2.4-4.8-3.7
		c-5-3.9-6.3,3.5-7.2,3.7l-4.1-2.1l-2.3,1.9c1.4,5.8,3.1,11.7,4,17.6h0c0.5,3.5,0.8,7,0.7,10.5c2.1,1.8,1.2,5.4,1.7,7.9
		c0.5,2.7,4.8,4.5,3.9,7.8c-0.1,0.5-1.1,0.5-1.2,0.6c-0.5,1.1,1.3,2.7,1.2,4c1.2,0.9,4-3.4,4.8-1c0.7,1.9-3.2,1-3.3,1.1
		C-76,249-76.3,251-76,253c0.7,3.7,3.2,7.2,3.8,10c0.6,2.9,0.7,7.5,1.7,10.6c0.3,0.9,1.8,0.9,2,1.6c0.5,1.8-0.4,4.7,0,6.6
		c0.1,0.6,1.4,0.2,1.4,1.5c0.2,3.2-1.6,8-1.4,11.5c0,0.1,0,0.1,0,0.2c0.2,3.1,3,5.8,3.2,7c0.1,0.7-0.5,1.6-0.4,2.5
		c0.2,1.3,1.6,2.5,1.8,3.7c0.5,3.8-5.7,16.9-6.6,22c-0.5,2.8,0.2,5.5-0.6,8.4c-0.2,0.6-3.3,4.9-3.7,5.2c-4.1,2.7-12.1,2.8-16.8,5.2
		c-2.2-0.5,0.4-7.3,0.3-9.2c0-1-1-3.9-1.6-4.7c-0.7-1.1-7.3-7.5-8.4-8.1c-3.5-1.8-7.9-2.3-11.9-4.6c-2.9-1.6-8-6.5-10.2-7
		c-2.3-0.5-6.4,0.6-9.2,0.2c-4.6-0.7-8-3.4-12.7-3.8c-4.1-0.3-14.2,0.3-18.5,0.8c-11.5,1.2-24.1,12.2-34.3,17.2
		c-5.1,2.5-11,4.3-16.3,6.4c-2.7,5.9,5.7,7.6,10,8.6c1.6,0.4,3.5-0.2,5.3,0.2c2.4,0.6,7,3.7,9.3,4.5c9.6,3,15.6,5.2,24.9,8.8
		c3.5,1.3,6.9,2.4,10.4,3.1c13.2,2.8,26.1,1.2,39.1-4.5c3.2-1.4,7-5.6,11.3-5.1c5.9,0.7,5.7,2.6,13.4,0.9c4.3-0.9,8.4-1.6,12.7-2.5
		c2.3-0.5,5.6-2.5,7.7-3.7l1.6,0.6c1.8,2.3-0.8,11.4-2.6,13.2c-0.7,0.7-2.4,1-3.5,2c-10.1,10.1-19.9,24.2-31.2,32.7
		c-3.6,2.7-16.6,6.8-18.2,10c-1.5,2.9,3.7-0.8,4-0.9c1.5-0.5,3.5-0.4,5.1-1.1c2.1-0.9,10.1-6.6,11.5-5.3c0.3,1.4-0.3,1.8-1,2.8
		c-2.1,2.8-12.3,6.7-16,8.8c-2.5,1.4-3.4,3.6-6.9,4.1c-0.9,0.1-7.4-0.1-5.7-1.9c2.1-0.9,8.5-3.5,7.2-6.2c-3.6,1.8-7.6,5.8-11.2,7.4
		c-0.2,0.1-0.5,0.2-0.7,0.3c-0.2,0.1-0.5,0.2-0.7,0.3c-0.2,0.1-0.5,0.2-0.7,0.2c-0.4,0.1-0.8,0.3-1.3,0.4c-0.2,0.1-0.4,0.1-0.6,0.2
		c-0.3,0.1-0.7,0.2-1,0.2c-0.6,0.1-1.3,0.2-1.9,0.3c-0.4,0-0.8,0.1-1.2,0.1l-0.4,0c-0.5,0-1,0.1-1.5,0.1c-0.4,0-0.9,0-1.4,0
		c-0.1,0-0.1,0-0.2,0c-1.9,0-3.8,0-5.8-0.2c-7.8-0.5-15.9-1.7-22.4-0.4c-11.1-0.6-23.1,0.8-33.8-2.1l-1.3,1.4c-1.8,0.2-3.7-1.9-5-2
		c-0.8-0.1-1.8,1.2-3.3,1.3c-2.3,0.2-5-1.5-7.6-1.5c-2.2,0-3.4,1.2-5.5,1.5c-0.5,0.1-1,0.1-1.5,0.2l-4.1-4.8
		c0.5,0.2,1.2,0.4,1.8,0.4c0.5-0.5-2.2-4.7-2.7-5c-0.9-0.8-2-0.4-2.1-0.5c-0.3-0.3,0.6-2.1,0.5-3c-0.1-0.7-1.2-1.4-1.2-2.9
		c-0.1-2.2,1.5-5.3,0.8-7.9l-2,1.4c0-4.3-0.5-8.5-0.7-12.7c-0.2-3.4,1.6-5.6-1.3-8.3l2.7-2.1c0.4-1.4-1.4-2.4-1.3-3.3
		c0.1-0.7,1.8-1.3,2-2.9c0.5-3-2-10.7-2.1-14.4c0-2.4,0.6-4,0.8-6.2c0-0.5-0.1-1.1-0.2-1.7c-0.2-1-0.5-1.9-0.4-2.3
		c0.3-1.2,3.5-1.4,2.6-3.8l-2.8-1l1.4-0.8l-4.9-19.8c2.2-12.8,2.7-24.6,7.4-36.7c3-7.8-3.3-6.3-4.8-10.6c-0.3-0.9-1.2-4.7-0.8-5.4
		l4.1-2l0.4-1.4l-2.4-1.4c-0.4-0.8,2.1-1.9-0.6-3.4l-1,2c0.2-1.4-2-2-2.1-2.5c-0.1-0.5,0.6-3.5,0.7-3.7c0.6-0.4,2.4,1.2,3.1,0
		l0.4-3.1l-2.1-0.4l0.7-4.1c-6.3,1.3-2.9-3.9-4.1-7.6C-249.1,231.1-246.6,232.9-245.5,230.6z M-96.3,337.8L-96.3,337.8L-96.3,337.8
		C-96.3,337.8-96.3,337.9-96.3,337.8c0,0.3-0.1,0.4-0.1,0.6c0,0.2-0.1,0.3-0.1,0.5c-0.1,0.2-0.1,0.5-0.2,0.7c0,0.1-0.1,0.2-0.1,0.3
		c-0.3,1.2-0.8,2.5-1.2,3.7c0,0.1-0.1,0.3-0.2,0.4c0,0.1-0.1,0.1-0.1,0.2c0,0.1-0.1,0.1-0.1,0.2c-0.1,0.1-0.1,0.3-0.2,0.4
		c0,0,0,0,0,0c-0.1,0.3-0.2,0.5-0.3,0.7c0,0.1-0.1,0.2-0.2,0.3c-0.1,0.3-0.2,0.5-0.3,0.7c-0.1,0.1-0.1,0.3-0.2,0.4
		c0,0.1-0.1,0.1-0.1,0.2c-0.1,0.1-0.1,0.2-0.2,0.3c0,0,0,0.1-0.1,0.1c0,0,0,0-0.1,0c-2.9,0.7-8.6-4-10.2-6.3c-0.7-1-0.8-4-2.1-3.4
		c-1.4,0.7-1.2,3-0.9,4.3c0,0.1,0.1,0.3,0.1,0.4c0,0.1,0.1,0.2,0.2,0.4c0.1,0.2,0.2,0.3,0.3,0.4c0.1,0.1,0.1,0.2,0.2,0.3
		c0.1,0.1,0.2,0.2,0.3,0.3c0.4,0.4,0.8,0.7,1.2,1.1c0.1,0.1,0.2,0.2,0.3,0.3c0.1,0.1,0.2,0.2,0.2,0.3c0.1,0.1,0.1,0.2,0.2,0.3
		c0,0.1,0.1,0.2,0.2,0.3v0c0,0.1,0.1,0.2,0.1,0.3c0,0.1-0.1,0.2-0.2,0.3c0,0-0.1,0.1-0.1,0.1c-0.1,0.1-0.1,0.1-0.2,0.2
		c-0.1,0.1-0.2,0.1-0.3,0.2c0,0,0,0,0,0c-0.1,0-0.1,0.1-0.2,0.1c-0.1,0.1-0.2,0.1-0.2,0.2h0c-0.2,0.1-0.3,0.2-0.5,0.3
		c-0.1,0.1-0.2,0.1-0.3,0.2c-0.2,0.1-0.3,0.2-0.5,0.3c-0.1,0.1-0.2,0.1-0.4,0.2c-0.2,0.1-0.5,0.2-0.7,0.3c-0.2,0.1-0.3,0.1-0.5,0.2
		c-0.2,0.1-0.3,0.2-0.5,0.2c-0.1,0.1-0.3,0.1-0.4,0.2c-0.4,0.1-0.7,0.3-1,0.4c-0.1,0-0.1,0-0.2,0.1c-0.4,0.1-0.7,0.2-0.9,0.2
		c-0.1,0-0.2,0-0.2,0c-0.1,0-0.1,0-0.2,0c-0.1,0-0.1,0-0.2,0c-0.1,0-0.2-0.1-0.4-0.1c-0.1,0-0.2-0.1-0.4-0.2h0
		c-0.1-0.1-0.2-0.2-0.3-0.3c-0.1-0.1-0.2-0.2-0.3-0.3c0-0.1-0.1-0.1-0.2-0.2c-0.1-0.2-0.2-0.5-0.3-0.7c0-0.1-0.1-0.2-0.1-0.3
		c0-0.2-0.1-0.3-0.1-0.5c0-0.2-0.1-0.3-0.1-0.5c0-0.1,0-0.2-0.1-0.4c0-0.2-0.1-0.3-0.1-0.5c0-0.1-0.1-0.3-0.1-0.4
		c0-0.1,0-0.2-0.1-0.2c0-0.1-0.1-0.2-0.1-0.3c0-0.1-0.1-0.2-0.1-0.3c-1.5-3-6.8-10.5-5-13.7c0.6-1,5.8-3,6.2-5
		c0.5-1.9-3.9-1.7-5.2-1c0,0-0.1,0-0.1,0.1c-0.1,0-0.1,0.1-0.1,0.1c-0.1,0.1-0.2,0.2-0.3,0.3c-0.1,0.1-0.1,0.1-0.2,0.2
		c-0.1,0.1-0.2,0.2-0.2,0.3c0,0.1-0.1,0.2-0.1,0.2c0,0,0,0.1-0.1,0.1v0c0,0.1-0.1,0.2-0.1,0.2c-0.1,0.1-0.1,0.3-0.2,0.4c0,0,0,0,0,0
		c0,0.1-0.1,0.2-0.1,0.3c0,0.1-0.1,0.2-0.1,0.3c0,0.1-0.1,0.2-0.1,0.3c0,0.1,0,0.1-0.1,0.2c-0.1,0.3-0.2,0.6-0.3,0.8
		c0,0.1,0,0.1-0.1,0.2c0,0.1-0.1,0.1-0.1,0.2c0,0,0,0.1-0.1,0.2c-0.1,0.2-0.2,0.3-0.3,0.5c0,0,0,0.1-0.1,0.1c0,0,0,0,0,0.1
		c-0.2,0.2-0.4,0.5-0.7,0.6c-0.1,0-0.1,0.1-0.2,0.1c-0.1,0-0.1,0.1-0.2,0.1c0,0-0.1,0-0.1,0c0,0-0.1,0-0.1,0c-0.3,0.1-0.6,0.1-0.9,0
		c-1.5-0.1-3.9-3.5-5.9-4.4c-9.4-4.2-22.3,0.1-31.9-3.9c-2.8,1.5-6,0.5-8.6,2.5c0,0-0.1,0.1-0.1,0.1c-0.1,0.1-0.3,0.3-0.5,0.6
		c-0.1,0.1-0.1,0.2-0.2,0.3c-0.1,0.2-0.3,0.4-0.5,0.6c-0.2,0.3-0.5,0.7-0.8,1.1c-0.3,0.4-0.5,0.8-0.8,1.2c-0.3,0.5-0.7,1.1-1,1.6
		l-0.3,0.5c-0.6,1-1.1,1.9-1.5,2.7c-0.1,0.1-0.1,0.2-0.2,0.4c-0.2,0.4-0.4,0.8-0.5,1.1c-0.1,0.1-0.1,0.2-0.1,0.4
		c-0.1,0.2-0.1,0.3-0.1,0.4c-0.2,1-0.2,1.9-0.2,2.6c0,0.1,0,0.2,0,0.3c0,0.2,0,0.5,0.1,0.7c0,0.1,0,0.2,0.1,0.3
		c0.1,0.5,0.2,1,0.4,1.5c0.1,0.2,0.2,0.5,0.3,0.7c0,0,0,0,0,0c0,0.1,0.1,0.2,0.1,0.2c0,0,0,0,0,0.1c0,0,0,0.1,0.1,0.1
		c0.1,0.1,0.1,0.2,0.2,0.4c0.2,0.3,0.3,0.5,0.5,0.8c0.3,0.4,0.6,0.9,1,1.4l-11.2-2.2l-12.9-4.6l11.3-4.9c8.7-5,20.1-14.6,30.4-15.7
		c5.9-0.7,9.1,0.7,16.5-0.7c3.1-0.6,14.4,3.3,18.5,4c10,1.7,6.9,2.1,14.6,6.1c5.8,3,12.3,2.8,16.4,9.1c0,0,0,0.1,0,0.2c0,0,0,0,0,0
		c0,0,0,0.1,0,0.1c0,0.1,0,0.3,0,0.5c0,0.1,0,0.1,0,0.2C-96.3,337.6-96.3,337.7-96.3,337.8C-96.3,337.7-96.3,337.7-96.3,337.8
		C-96.3,337.8-96.3,337.8-96.3,337.8z M-169.7,344.7c0.1-0.1,0.1-0.2,0.2-0.3c0-0.1,0.1-0.2,0.1-0.4c0.1-0.1,0.1-0.3,0.1-0.5
		c0-0.1,0.1-0.2,0.1-0.2c0-0.2,0.1-0.3,0.2-0.5c0.1-0.3,0.2-0.6,0.4-0.9c0.1-0.2,0.2-0.4,0.3-0.5c0.1-0.2,0.3-0.4,0.5-0.6
		c0.8-0.8,11.4-9,12.1-9.2c2-0.7,8.4-1.2,9.6,1l-13.6,4.3c-0.9,3.2-3,1.7-3.5,2c-0.1,0-0.2,0.1-0.2,0.2c-0.1,0.1-0.1,0.1-0.2,0.2
		c-0.1,0.1-0.2,0.2-0.3,0.3c-0.1,0.1-0.1,0.2-0.2,0.3c-0.1,0.1-0.1,0.2-0.2,0.3c-0.1,0.2-0.2,0.3-0.2,0.5c0,0.1-0.1,0.2-0.1,0.2
		c0,0.1-0.1,0.2-0.1,0.4c-0.1,0.2-0.1,0.4-0.2,0.7c0,0.2-0.1,0.5-0.1,0.7c0,0.1,0,0.3-0.1,0.4c0,0.2,0,0.4,0,0.5c0,0.2,0,0.5,0,0.7
		c0,1.4,0.3,2.7,0.9,3.3c0.4,0.4,1.8,0.8,2.5,1.4c1.2,1,5.6,4.6,7,4.8c2.4,0.3,4.6-0.9,6.9-0.8c3.3,0.1,5.3,2.2,9.6,1.4
		c0.5-0.1,5.9-2.5,6.8-2.9c2.7-1.3,6.2-6,8.1,0.4c-0.1,0.6-7.8,3.8-9,4.2c-10.1,2.8-29.3-0.8-38.3-6.4c-1.6-1-3.2-2.4-1.4-4.1
		C-171.5,345.1-170.2,345.2-169.7,344.7z M-170.9,335.2c0-4.6,3-7.1,7.6-6.2c-1.3,1.4-3.2,2.1-4.6,3.7
		C-169.1,334-168.1,335.8-170.9,335.2z"/>
	<path style="opacity:0.2;fill:#58595B;" d="M-75,219c0-0.1,0-0.2,0-0.2c0-0.1,0-0.1,0-0.2c0-0.1,0-0.2,0.1-0.2c0,0,0.1-0.1,0.2-0.1
		c0.3-0.1,0.7,0,1.5,0.4c0.1,0,0.2,0.1,0.2,0.2l0.1,0.1c0,0,0,0.1,0.1,0.1c0.1,0.1,0.1,0.2,0.2,0.2c0,0.1,0.1,0.1,0.1,0.2
		c0,0.1,0.1,0.1,0.1,0.2c0,0.1,0.1,0.2,0.1,0.2h0c0,0,0,0.1,0.1,0.1c0,0.1,0.1,0.2,0.2,0.3c0,0,0,0,0,0.1h0c0,0.1,0.1,0.2,0.2,0.2
		c0,0.1,0.1,0.2,0.1,0.2h0c0,0.1,0.1,0.2,0.2,0.3c0,0.1,0.1,0.2,0.2,0.3h0c0,0.1,0.1,0.2,0.2,0.3c0.1,0.1,0.1,0.2,0.2,0.3
		c0.1,0.1,0.1,0.2,0.2,0.3c0,0,0.1,0.1,0.1,0.1c0,0,0,0.1,0.1,0.1c0,0,0,0,0,0c0.1,0.1,0.1,0.2,0.2,0.2h0c0.1,0.1,0.1,0.2,0.2,0.2
		c0.1,0.2,0.3,0.3,0.4,0.5c0.1,0.1,0.2,0.2,0.3,0.3c0.1,0.1,0.2,0.2,0.4,0.3c0.2,0.1,0.3,0.2,0.5,0.3c0.1,0.1,0.3,0.1,0.4,0.2
		c0.1,0,0.2,0.1,0.3,0.1c0.1,0,0.2,0,0.3,0.1c0.1,0,0.1,0,0.2,0c0,0,0.1,0,0.1,0c0.1,0,0.2,0,0.3,0c0.1,0,0.1,0,0.2,0h0
		c0.1,0,0.1,0,0.2,0c0,0,0,0,0,0c0.2,0,0.4-0.1,0.6-0.2c0.1,0,0.3-0.1,0.4-0.1c0.3-0.1,0.5-0.3,0.8-0.4c1.8-2.6-1.6-4.3-1.7-5.8
		c-0.1-2,2.2-9.8-0.5-10.6l-2.3-0.1c0,0.4,0,0.9,0,1.3c0,0.3,0,0.7-0.1,1c0,0.3-0.1,0.5-0.1,0.8c0,0.2-0.1,0.4-0.1,0.5
		c0,0.1,0,0.2,0,0.2c0,0.2-0.1,0.4-0.2,0.6c0,0.1-0.1,0.2-0.1,0.3c-0.1,0.2-0.2,0.5-0.3,0.7c0,0.1-0.1,0.1-0.1,0.2
		c-0.2,0.3-0.4,0.7-0.6,1c0,0.1-0.1,0.1-0.2,0.2c-0.1,0.1-0.2,0.2-0.3,0.3v0h0c-0.1,0.1-0.2,0.2-0.4,0.4c-0.1-0.1-0.1-0.1-0.2-0.2
		c0,0,0,0,0,0l-0.2-0.2c-0.1-0.1-0.2-0.3-0.3-0.4c-0.1-0.1-0.2-0.2-0.3-0.4c0,0,0,0,0-0.1c0,0-0.1-0.1-0.1-0.2
		c0-0.1-0.1-0.1-0.1-0.2c0,0,0,0,0-0.1c-0.1-0.1-0.2-0.3-0.3-0.4c-0.1-0.2-0.3-0.5-0.4-0.7c-0.1-0.1-0.1-0.2-0.2-0.4
		c-0.1-0.1-0.1-0.2-0.2-0.4c-0.1-0.2-0.2-0.5-0.3-0.7c0-0.1-0.1-0.2-0.1-0.3c0-0.1-0.1-0.3-0.1-0.5c0-0.1-0.1-0.2-0.1-0.4
		c0-0.1,0-0.1,0-0.2c0,0,0-0.1,0-0.1c0-0.3-0.1-0.6-0.1-0.9c0-0.1,0-0.2,0-0.3c0-0.4,0-0.7,0-1.1c0-0.1,0-0.1,0-0.2c0,0,0,0,0,0
		c0,0,0,0,0,0s0,0,0,0c0-0.2,0-0.4,0.1-0.5c0,0,0-0.1,0-0.1c0-0.1,0-0.1,0-0.2c0,0,0-0.1,0-0.1c0-0.2,0.1-0.4,0.1-0.6c0,0,0,0,0,0
		c0-0.1,0-0.2,0.1-0.2c0.1-0.3,0.2-0.6,0.2-0.9c0.5-0.1,0.9,0,1.2,0.2c0.1,0.1,0.1,0.1,0.2,0.2c0,0,0,0,0,0c0.1,0.1,0.2,0.2,0.3,0.3
		c0.1,0.1,0.2,0.3,0.4,0.4c0,0,0.1,0.1,0.1,0.1c0.1,0.1,0.1,0.1,0.2,0.2c0,0,0,0,0,0c0,0,0,0,0.1,0c0.1,0.1,0.2,0.1,0.3,0.2
		c0.1,0,0.1,0,0.2,0.1c0.2,0,0.4,0,0.5,0c0.1,0,0.2,0,0.3,0c0.1,0,0.2,0,0.2,0c0.1,0,0.2,0,0.3-0.1c0.1,0,0.2-0.1,0.3-0.1
		c0,0,0,0,0,0c0.1-0.1,0.2-0.1,0.3-0.2c0-0.1,0.1-0.1,0.1-0.2c0.1-0.1,0.2-0.3,0.2-0.4c0-0.1,0.1-0.2,0.1-0.2c0-0.1,0.1-0.2,0.1-0.2
		c0-0.1,0.1-0.2,0.1-0.4c0,0,0,0,0,0c0-0.1,0-0.3,0.1-0.4c0-0.1,0-0.3,0-0.4v-0.1c0-0.1,0-0.2,0-0.4c0-0.3,0.1-0.6,0.1-0.9
		c0-0.2,0.1-0.3,0.1-0.4c0-0.1,0.1-0.3,0.1-0.4c0-0.1,0.1-0.3,0.1-0.4l0.7-0.1c0.1,0,0.1,0,0.2,0.1c0.1,0,0.2,0.1,0.4,0.1
		c0.1,0.1,0.3,0.1,0.4,0.2c0.1,0,0.2,0.1,0.2,0.1c0.4,0.3,0.9,0.6,1.4,1c0.2,0.1,0.3,0.3,0.5,0.4c0.6,0.5,1.2,1,1.8,1.5
		c0.1,0.1,0.2,0.2,0.2,0.2c0.6,0.5,1.2,0.9,1.4,1c3.5,1,11.9-0.4,14.7-2.9l-13,81.8c0.9-10.2-1.2-20-4.5-29.2
		c-0.8-2.4-1.7-4.6-2.8-6.9l-1.7,0c-0.6-1.8,1.9-1.7,2.1-2.5c0.3-1.7-2-8.9-2.9-10.8c-2.8-5.6-4.1-5.3-5.4-12.4
		c0-0.1-0.2-0.6-0.4-1.1c0-0.1-0.1-0.2-0.1-0.2c-0.2-0.4-0.3-0.8-0.4-1.2c0-0.1,0-0.2,0-0.2c0-0.1,0-0.1,0-0.2v0
		C-75,219.1-75,219-75,219z"/>
	<path style="opacity:0.2;fill:#414042;" d="M-58.8,283.9l13-81.8c2.4-2.2,2.2-5.4,3.8-7.9c0.1,0,0.2,0.1,0.3,0.2c0,0,0,0,0,0.1
		c0,0,0,0,0,0.1c0,0,0,0.1,0.1,0.1c0,0,0,0,0,0c0,0,0.1,0.1,0.1,0.2c0,0.1,0.1,0.2,0.1,0.3c0,0,0,0.1,0,0.1c0,0.2,0.1,0.3,0.1,0.5
		c0,0,0,0.1,0,0.1c0.1,0.4,0.2,0.8,0.3,1.2c0,0.1,0,0.2,0.1,0.3c0,0.1,0,0.2,0.1,0.3c0,0.2,0.1,0.4,0.1,0.6c0,0.2,0.1,0.4,0.1,0.5
		c0,0.1,0,0.2,0,0.3c0,0.1,0,0.2,0,0.2c0,0.1,0,0.2,0,0.2c0.1,0.5,0.1,1,0.1,1.2c0.1,1.1,0.2,2.2,0.2,3.2c0.1,1,0.1,2,0.1,3v0
		c0,0.2,0,0.4,0,0.5c0,0.4,0,0.9,0,1.3c0,0.4,0,0.8,0,1.2c0,0.3,0,0.6,0,0.9v0.3c0,1.4,0,2.8,0,4.2c0,0.5,0,1,0,1.6c0,0.5,0,1,0,1.5
		c0,0.6,0,1.3,0,1.9c0,1.1-0.1,2.2-0.1,3.4c0,1.1-0.1,2.2-0.1,3.2c0,0.7-0.1,1.3-0.1,2c0,0.8-0.1,1.6-0.1,2.4
		c-0.2,3-0.4,6.1-0.6,9.2c-0.1,2.2,0.7,5.5,0.5,6.8c0,0.1-0.1,0.3-0.1,0.4c0,0.1-0.1,0.1-0.1,0.2c0,0.1-0.1,0.2-0.1,0.2
		c0,0.1-0.1,0.1-0.1,0.2c-0.1,0.1-0.1,0.2-0.2,0.4c-0.1,0.1-0.2,0.2-0.2,0.4c-0.1,0.2-0.2,0.4-0.3,0.5c0,0.1-0.1,0.2-0.2,0.3
		c0,0.1-0.1,0.1-0.1,0.2c0,0,0,0.1,0,0.1c0,0,0,0.1-0.1,0.2c0,0.1,0,0.1-0.1,0.2c0,0,0,0,0,0.1c0,0.1,0,0.1-0.1,0.2c0,0,0,0,0,0
		c0,0.1,0,0.2-0.1,0.3c0,0.1,0,0.2,0,0.4c-0.3,7.1,0.6,13.4,0,21.3c-0.2,3.1,0.1,5.4,0,7.8c-0.1,2-0.6,4.1-2,6.6
		c-1.5,2.6-7.7,10.4-10.8,7C-57.1,292.4-57,286.4-58.8,283.9z"/>
	<path style="opacity:0.2;fill:#58595B;" d="M-161.6,51.1c1.4-3-2.8-2.7-2.4-4.4l51.6,11c-0.9,1.1-1.7,2.1-2.3,2.8
		c-0.4,0.5-0.7,0.8-0.8,1c-5.1,7.4,0.3,6.2,4,9c1.7,1.3,2.8,4,5.8,4.6c3.3,0.6,5.4-4.3,9.7-1.8c1.1,3.3,1.8,8.3,3.4,11.4
		c3.9,7.5,16.9,7.5,23.8,5l1.8,6.6c3.1,1.1,7.1,1.1,10,2.3c1.6,0.7,2.6,2.3,4.2,2.7c2.6,0.6,4.6-1.2,7.1-0.2
		c1.7,1.8-1.8,0.5-1.4,3.5c0,0.3,1.3,0.3,1.6,1.2c0.7,1.8,0.6,4.8,0.1,7l-0.4,1.3l-1.2,1.4c-1.3,0.8-3.4,0.5-4.8,1.1
		c-2,0.8-7,4.8-7.5,4.9c-1.3,0.3-2.2-1.1-3.3-1.3c-3.6-0.6-5,4.4-7.5,6.2c-1.8-1.3-0.4-1.2,0-2.1c1.3-3.4,7-9,5.6-12.3
		c-1.6-3.8-6.9-1.2-7.2-1.4c-0.2-0.1-0.7-3-2.4-4.1c-1-0.7-2.3-0.5-3.1-1c-4.7-2.9-4.9-5.3-10.4,0c-1.9,1.8-5,6.7-6.8,9
		c-0.9,1.3-5.3,8.5-6,8.5c-0.7,0-1-1.4-0.9-2.2c0.1-0.4,1.8-6.4,1.9-6.8c0.4-1,2.2-0.9,2.6-2.4c0.4-1.2,1-8.2,0.5-9.2
		c-1.3-2.2-6-1.9-7.1-2.9c-1.7-1.7-0.7-6.7-5.7-9.1c-6.2-2.9-10.8,2.7-12.5,2.3c-1.5-0.4-3.8-4.5-8-2.7c0.5-6.1-8-9-7.6-0.7
		l-4.8-1.4c-0.5,2.3,2.2,0.9,3.1,2.7c1.7,3.5-0.5,3.7-1.3,4.9l-25.6-40.6c0.4-0.3,1-0.8,1.6-1.2C-163.1,52.6-161.9,51.7-161.6,51.1z
		"/>
	<path style="opacity:0.2;fill:#6D6E71;" d="M-227.6,169.5c0.1-1.2,0.1-2.3,0.4-3.1c0.6-1.6,3.7-0.4,0.6-4.9
		c2.6-0.9,1.6-2.5,2.5-3.8c1.2-1.9,2.6-3,3.8-5.9c0.4-1-0.1-2.2,0-2.3c0.3-0.2,1.4-0.1,1.9-0.4c2.2-1.6,4.3-9.2,5.4-11.8
		c1.3-3.1,5.2-5-1.1-7.8l-0.1-0.9c0.9-1.3,1.1-3.2,1.8-4.5c1.8-3.3,4.6-6.9,6.2-9.9c1.5-2.8,3.8-5.4,2.3-8.7
		c3.7,0.8,2.8-1.7,3.6-2.6c0.3-0.3,1.4,0.1,1.9-0.6c1.3-1.7,0.5-4.8,3.4-8.2c3.4-4,9.1-9.7,12-14.2c4-6.3,7.2-13.4,11.6-19.3
		c1-1.4,2.2-2.8,3.4-4l2.2-2.1l25.6,40.6c-2.3,3.6-2.7,3.6-4.9,6.1c-0.4,0.5-3.1,7.2-3.1,8c-0.1,2.2,3.5,4,5.2,4.1
		c0.4,0,1-0.9,1.7-0.8c2.5,0.3,4.7,1.6,5.8,3.8l0.7-1.4c1.9-0.6,1.6,1.3,2.2,1.4c1.1,0.2,2.1,0,3.2-0.2c2.6-0.5,1.8-1.3,1.6-2.3
		c-0.1-0.4-0.1-0.9,0.2-1.3l4.3-2.1l0.2-4.4c4.5-0.8,4.2-5,8-5.5c0.6,0.7-5.5,14.4-4.7,17.4c1.3,4.7,7.4,0.8,8.5,2.5
		c0.6,0.9,0.2,3,0.4,4.3c0.2,0.8,1,1.6,1.1,2.4c0.2,1-0.6,1.8-0.6,2.5c0,0.3,3.6,3.4,4.6,3.7c5.5,1.4,2.6-1.6,4.6-3.3
		c1.5-0.4,2.7-1.6,3.9-2.6c1.4-1.2,2.8-2.1,4.8-1.4c0.2,0.6,0,1.1-0.2,1.5c-0.4,0.8-1,1.4-1,2.1c0,2.8,3,3.5,3.2,4.3
		c0.3,1.3-1.5,4.9,0.1,7.4l-72.9,23.9L-227.6,169.5z"/>
	<path style="opacity:0.2;fill:#414042;" d="M-186.7,236.8l21.4-65.7l1.9-5.7l4.8,3.1l75.6,47.9h0c0.5,3.5,0.8,7,0.7,10.5
		c2.1,1.8,1.2,5.4,1.7,7.9c0.5,2.7,4.8,4.5,3.9,7.8c-0.1,0.5-1.1,0.5-1.2,0.6c-0.5,1.1,1.3,2.7,1.2,4c1.2,0.9,4-3.4,4.8-1
		c0.7,1.9-3.2,1-3.3,1.1C-76,249-76.3,251-76,253c0.7,3.7,3.2,7.2,3.8,10c0.6,2.9,0.7,7.5,1.7,10.6c0.3,0.9,1.8,0.9,2,1.6
		c0.5,1.8-0.4,4.7,0,6.6c0.1,0.6,1.4,0.2,1.4,1.5c0.2,3.2-1.6,8-1.4,11.5l0,0l-0.2,0l-60.5-65.1l-34.2,35L-186.7,236.8z"/>
	<path style="opacity:0.2;" d="M-163.4,165.4l72.9-23.9c0.3,0.4,0.7,0.8,1.2,1.2c2.7,1.9,4.5,0.5,6.7,0.6c1.3,0.1,2,1,2.7,1.1
		c5.7,0.6,15.6,1.2,21-0.7c2.4-0.8,3.7-4.2,6.5-4.5c1.5,1.1,0.6,1,0.5,1.8c-0.3,1.4-1,2.1-0.8,4.1c0,0,0,0.1,0.1,0.2
		c0,0.1,0,0.2,0.1,0.3c0,0.1,0,0.1,0.1,0.2c0,0.1,0,0.2,0.1,0.3c0,0,0,0.1,0,0.1c0.1,0.3,0.2,0.6,0.3,1c0,0,0,0,0,0.1
		c0.1,0.2,0.1,0.5,0.2,0.8s0.2,0.5,0.2,0.8c0.1,0.2,0.2,0.5,0.2,0.7c0.1,0.2,0.1,0.3,0.2,0.5c0,0.1,0,0.1,0.1,0.2
		c0.1,0.4,0.2,0.7,0.3,0.7c0.7,1.4,4.2,2.5,5.5,4.2c0,0,0.1,0.1,0.1,0.1c0.2,0.3,0.5,0.8,0.9,1.5c0.1,0.2,0.3,0.5,0.4,0.8
		c0.2,0.3,0.4,0.7,0.6,1c0.1,0.2,0.3,0.5,0.4,0.8c0.1,0.1,0.1,0.3,0.2,0.4v0c1.3,2.5,2.7,5.2,2.9,5.8c0.6,2,0.9,8-0.9,9.2
		c-2.7,1.8-12.2-3.4-18.3,2.3c-1.9,1.8-2.3,4.6-3.5,6.2c-0.8,1.1-4.2,2.6-4.4,3.3c-0.5,1.8,0.3,5.3,0,7.5c-0.2,1.8-1.8,3.1-1.4,5.1
		c-3.8,0.9-3.2-2.4-4.8-3.7c-5-3.9-6.3,3.5-7.2,3.7l-4.1-2.1l-2.3,1.9c1.4,5.8,3.1,11.7,4,17.6l-75.6-47.9L-163.4,165.4z"/>
	<polygon style="opacity:0.2;fill:#6D6E71;" points="-192.1,256.3 -186.7,236.8 -163.4,264.5 -129.1,229.5 -68.7,294.6 
		-172.9,273.9 	"/>
	<path style="opacity:0.2;" d="M-214.3,336.2l22.2-79.9l19.1,17.6l104.3,20.8l0.2,0.2c0-0.1,0-0.1,0-0.2c0,0.1,0,0.1,0,0.2
		c0.2,3.1,3,5.8,3.2,7c0.1,0.7-0.5,1.6-0.4,2.5c0.2,1.3,1.6,2.5,1.8,3.7c0.5,3.8-5.7,16.9-6.6,22c-0.5,2.8,0.2,5.5-0.6,8.4
		c-0.2,0.6-3.3,4.9-3.7,5.2c-4.1,2.7-12.1,2.8-16.8,5.2c-2.2-0.5,0.4-7.3,0.3-9.2c0-1-1-3.9-1.6-4.7c-0.7-1.1-7.3-7.5-8.4-8.1
		c-3.5-1.8-7.9-2.3-11.9-4.6c-2.9-1.6-8-6.5-10.2-7c-2.3-0.5-6.4,0.6-9.2,0.2c-4.6-0.7-8-3.4-12.7-3.8c-4.1-0.3-14.2,0.3-18.5,0.8
		c-11.5,1.2-24.1,12.2-34.3,17.2C-203,332.3-209,334.1-214.3,336.2z"/>
	<path style="opacity:0.2;fill:#FFFFFF;" d="M-68.5,294.1c0,0.1,0,0.3,0,0.6C-68.5,294.5-68.5,294.3-68.5,294.1z"/>
	<path style="opacity:0.2;fill:#6D6E71;" d="M-244.5,347.2c0-2.4,0.6-4,0.8-6.2c0-0.5-0.1-1.1-0.2-1.7l29.7-3.1
		c-2.7,5.9,5.7,7.6,10,8.6c1.6,0.4,3.5-0.2,5.3,0.2c2.4,0.6,7,3.7,9.3,4.5c9.6,3,15.6,5.2,24.9,8.8c3.5,1.3,6.9,2.4,10.4,3.1
		l10.9,47.7l-5.1,5.9c-1.9,0-3.8,0-5.8-0.2c-7.8-0.5-15.9-1.7-22.4-0.4c-11.1-0.6-23.1,0.8-33.8-2.1l-1.3,1.4c-1.8,0.2-3.7-1.9-5-2
		c-0.8-0.1-1.8,1.2-3.3,1.3c-2.3,0.2-5-1.5-7.6-1.5c-2.2,0-3.4,1.2-5.5,1.5c-0.5,0.1-1,0.1-1.5,0.2l-4.1-4.8
		c0.5,0.2,1.2,0.4,1.8,0.4c0.5-0.5-2.2-4.7-2.7-5c-0.9-0.8-2-0.4-2.1-0.5c-0.3-0.3,0.6-2.1,0.5-3c-0.1-0.7-1.2-1.4-1.2-2.9
		c-0.1-2.2,1.5-5.3,0.8-7.9l-2,1.4c0-4.3-0.5-8.5-0.7-12.7c-0.2-3.4,1.6-5.6-1.3-8.3l2.7-2.1c0.4-1.4-1.4-2.4-1.3-3.3
		c0.1-0.7,1.8-1.3,2-2.9C-241.9,358.6-244.5,351-244.5,347.2z"/>
	<path style="opacity:0.2;fill:#58595B;" d="M-121.8,419.5c5.3-5.3,11.8-8.8,16.4-10.7c3.5-2.7,6.6-5.9,10.1-8.7
		c0.6-0.5,0.9-1.7,1.5-2c2-1.3,4.5,0.7,6.4,0.2c2.5-0.7,8.4-9.2,10.5-11.6c2.9-3.4,7.6-6.6,8.9-11.1c0.6-2.1-0.4-3.2-0.1-4.8
		c0-0.1,0-0.2,0.1-0.3c0-0.1,0-0.1,0-0.2c0,0,0-0.1,0-0.1l0,0l0,0c0-0.1,0-0.1,0-0.2c0.1-0.3,0.1-0.6,0.2-0.9c0-0.2,0.1-0.4,0.1-0.5
		c0.2-0.6,0.4-1.2,0.6-1.8c0.1-0.3,0.3-0.7,0.4-1c0.3-0.7,0.6-1.3,0.9-2v0c0,0,0,0,0,0c0.1-0.3,0.3-0.7,0.4-1
		c0.1-0.2,0.1-0.3,0.2-0.5c0.1-0.2,0.2-0.5,0.3-0.7c0.1-0.1,0.1-0.3,0.2-0.4c0.1-0.3,0.2-0.5,0.3-0.8c0.1-0.3,0.2-0.5,0.3-0.8
		c0.1-0.4,0.2-0.8,0.4-1.2c0.1-0.2,0.1-0.4,0.2-0.6c0-0.2,0.1-0.4,0.1-0.6c0.1-0.2,0.1-0.4,0.1-0.6c0-0.2,0.1-0.4,0.1-0.6
		c0-0.1,0-0.1,0-0.2c0-0.1,0-0.2,0-0.3c0-0.1,0-0.1,0-0.2c0-0.1,0-0.2,0-0.2c0,0,0-0.1,0-0.1c0-0.1,0-0.2,0-0.3c0-0.2,0-0.3,0-0.5
		c0-0.3,0.1-0.6,0.1-0.9c0.1-1.4,0-2.7-0.2-3.9c0,0,0,0,0,0c-0.1-0.4-0.1-0.8-0.2-1.3c-0.1-0.4-0.2-0.7-0.2-1c0-0.2-0.1-0.3-0.1-0.5
		c-0.2-0.8-0.4-1.7-0.5-2.5c0-0.2,0-0.4-0.1-0.5c0-0.1,0-0.2,0-0.2c0-0.2,0-0.3,0-0.4c0-0.1,0-0.1,0-0.2c0-0.1,0-0.3,0-0.4
		c0-0.2,0-0.3,0-0.5c0-0.3,0-0.5,0.1-0.8c0-0.1,0-0.2,0.1-0.4c0.2-0.9,0.5-1.7,0.8-2.5c0.1-0.2,0.1-0.3,0.2-0.4
		c0.2-0.5,0.5-1.1,0.8-1.6c0.1-0.2,0.2-0.3,0.2-0.5c0.1-0.2,0.2-0.5,0.3-0.7c0.1-0.2,0.2-0.5,0.3-0.7c0.1-0.2,0.2-0.5,0.3-0.8
		c0.1-0.3,0.2-0.6,0.2-0.9c0.1-0.2,0.1-0.5,0.2-0.7c0-0.2,0.1-0.4,0.1-0.6c0-0.2,0-0.4,0-0.6c0-0.1,0-0.2,0-0.3c0-0.3,0-0.6,0-0.9
		c0-0.1,0-0.1,0-0.2c0-0.3-0.1-0.5-0.1-0.8c0-0.3-0.1-0.6-0.2-0.8s-0.2-0.5-0.4-0.7c-0.1-0.2-0.2-0.5-0.3-0.7c0,0,0,0,0,0
		c0,0,0-0.1-0.1-0.1c-0.1-0.2-0.1-0.4-0.2-0.6c-1-5,3.2-8.2,3.3-12.2c0.1-3.6-2.2-11.4-4.2-14.5c0.9-9.4,2.7-1.1,6.7,0.9
		c6.1,3,9.6-0.9,13.2-5c0.1-0.1,0.2-0.2,0.2-0.3c0,0,0,0,0,0c0,0,0,0,0-0.1c0.2-0.2,0.3-0.5,0.4-0.7c0-0.1,0.1-0.2,0.2-0.3
		c0.2-0.4,0.5-0.9,0.7-1.3c0.1-0.2,0.2-0.3,0.4-0.5c0.3-0.4,0.7-0.6,1.2-0.6c0.7-0.7,1.3-1.5,2-2.2v130.6H-121.8z"/>
	<path style="opacity:0.2;fill:#58595B;" d="M-60.9,328.7c0,0.3,0.1,0.5,0.1,0.8h0C-60.9,329.2-60.9,329-60.9,328.7z"/>
	<path style="opacity:0.2;fill:#58595B;" d="M-62,326.3c0,0,0,0.1,0.1,0.1c0,0,0,0,0,0c0,0,0,0,0,0C-61.9,326.4-61.9,326.3-62,326.3
		z"/>
	<path style="opacity:0.2;fill:#58595B;" d="M-63.2,349.5c0.2,1.2,0.3,2.4,0.2,3.9c0,0.3,0,0.6-0.1,0.9c0-0.3,0-0.6,0.1-0.9
		C-62.9,352-63,350.7-63.2,349.5z"/>
	<path style="opacity:0.2;fill:#58595B;" d="M-63.2,355.1c0-0.3,0.1-0.6,0.1-0.8c0,0.2,0,0.3,0,0.5c0,0.1,0,0.2,0,0.3
		C-63.2,355.1-63.2,355.1-63.2,355.1z"/>
	<path style="opacity:0.2;fill:#58595B;" d="M-63.4,356.6c0.1-0.3,0.1-0.6,0.2-0.9c0-0.1,0-0.1,0-0.2c0,0.1,0,0.2,0,0.3
		c0,0.1,0,0.1,0,0.2C-63.3,356.2-63.4,356.4-63.4,356.6z"/>
	<path style="opacity:0.2;fill:#58595B;" d="M-63.9,358.4c0.1-0.4,0.2-0.8,0.3-1.2c0,0.2-0.1,0.4-0.1,0.6
		C-63.8,358-63.8,358.2-63.9,358.4z"/>
	<path style="opacity:0.2;fill:#FFFFFF;" d="M-71.7,214.7c0,0,0.1,0.1,0.2,0.2l0,0C-71.6,214.8-71.7,214.7-71.7,214.7z"/>
	<path style="opacity:0.2;fill:#FFFFFF;" d="M-72.7,213.4c0,0,0.1,0.1,0.1,0.2c0,0,0,0,0,0.1c0,0,0,0,0-0.1
		C-72.7,213.5-72.7,213.5-72.7,213.4z"/>
	<path style="opacity:0.2;fill:#FFFFFF;" d="M-73.2,212.7c0.1,0.1,0.2,0.3,0.3,0.4c0,0,0,0.1,0,0.1c0,0,0,0-0.1-0.1
		C-73,213-73.1,212.9-73.2,212.7z"/>
	<path style="opacity:0.2;fill:#FFFFFF;" d="M-96.3,337.8C-96.3,337.8-96.3,337.7-96.3,337.8c0-0.1,0-0.1,0-0.2
		C-96.3,337.7-96.3,337.7-96.3,337.8C-96.3,337.8-96.3,337.8-96.3,337.8L-96.3,337.8z"/>
	<path style="opacity:0.2;fill:#FFFFFF;" d="M-40.2,182c0.1,0.1,0.2,0.2,0.3,0.3l-0.1-0.1C-40.1,182.2-40.1,182.1-40.2,182z"/>
	<path style="opacity:0.2;fill:#FFFFFF;" d="M-50.5,179.9c0.1,0,0.3,0,0.4-0.1c0.1,0,0.2,0,0.2,0C-50.1,179.9-50.3,179.9-50.5,179.9
		z"/>
	<path style="opacity:0.2;fill:#FFFFFF;" d="M-60.8,189.9c0-0.1,0-0.1,0.1-0.2C-60.7,189.7-60.7,189.8-60.8,189.9
		c-0.1,0.5-0.2,1-0.2,1.5c0,0.4,0,0.8,0,1.2c0-0.2,0-0.4,0-0.6C-61,191.2-60.9,190.5-60.8,189.9z"/>
	<path style="opacity:0.2;fill:#414042;" d="M-154.4,361.3c13.2,2.8,26.1,1.2,39.1-4.5c3.2-1.4,7-5.6,11.3-5.1
		c5.9,0.7,5.7,2.6,13.4,0.9c4.3-0.9,8.4-1.6,12.7-2.5c2.3-0.5,5.6-2.5,7.7-3.7l1.6,0.6c1.8,2.3-0.8,11.4-2.6,13.2
		c-0.7,0.7-2.4,1-3.5,2c-10.1,10.1-19.9,24.2-31.2,32.7c-3.6,2.7-16.6,6.8-18.2,10c-1.5,2.9,3.7-0.8,4-0.9c1.5-0.5,3.5-0.4,5.1-1.1
		c2.1-0.9,10.1-6.6,11.5-5.3c0.3,1.4-0.3,1.8-1,2.8c-2.1,2.8-12.3,6.7-16,8.8c-2.5,1.4-3.4,3.6-6.9,4.1c-0.9,0.1-7.4-0.1-5.7-1.9
		c2.1-0.9,8.5-3.5,7.2-6.2c-3.6,1.8-7.6,5.8-11.2,7.4c-0.2,0.1-0.5,0.2-0.7,0.3c-0.2,0.1-0.5,0.2-0.7,0.3c-0.2,0.1-0.5,0.2-0.7,0.2
		c-0.4,0.1-0.8,0.3-1.3,0.4c-0.2,0.1-0.4,0.1-0.6,0.2c-0.3,0.1-0.7,0.2-1,0.2c-0.6,0.1-1.3,0.2-1.9,0.3c-0.4,0-0.8,0.1-1.2,0.1
		l-0.4,0c-0.5,0-1,0.1-1.5,0.1c-0.4,0-0.9,0-1.4,0c-0.1,0-0.1,0-0.2,0l5.1-5.9L-154.4,361.3z"/>
	<path style="opacity:0.2;fill:#58595B;" d="M-249.3,231.3c0.2-0.2,2.8,1.6,3.8-0.7c0.8-1.3,0-3.1,0.3-4.3c0.1-0.6,1.6-0.8,2.2-2
		c0.6-1.2,2.6-8.5,2.5-9.6c-0.2-1.4-1.8-3.3-1.9-5l0.7-0.7c1.2,0.8,3.2-2.4,3.4-3.4c0.6-2.9-4.5,1.3-5.5,0c1.2-0.9,7.3-3.7,7.5-4.9
		c0.2-0.7-1-1.5-1.2-2.1c-0.2-1.1,0.8-2.8,0.5-4.7c-0.3-2-4.5-6.8,0.7-6.6c0.6,1.9-1.1,1.2-1.3,1.4c-0.6,0.9,0.7,3.3,2.4,0
		c0.6-1.2-0.2-2.4,2.2-3.2c-3.2-2.3,2.1-6.6,2.1-7c0.2-1-0.8-2.5-0.6-3.3c0.2-0.9,2.2-1.3,3-2.5c0.6-0.9,0.7-2.1,0.8-3.3l64.2-4.2
		l-1.9,5.7l-21.4,65.7l-5.4,19.5l-22.2,79.9l-29.7,3.1c-0.2-1-0.5-1.9-0.4-2.3c0.3-1.2,3.5-1.4,2.6-3.8l-2.8-1l1.4-0.8l-4.9-19.8
		c2.2-12.8,2.7-24.6,7.4-36.7c3-7.8-3.3-6.3-4.8-10.6c-0.3-0.9-1.2-4.7-0.8-5.4l4.1-2l0.4-1.4l-2.4-1.4c-0.4-0.8,2.1-1.9-0.6-3.4
		l-1,2c0.2-1.4-2-2-2.1-2.5c-0.1-0.5,0.6-3.5,0.7-3.7c0.6-0.4,2.4,1.2,3.1,0l0.4-3.1l-2.1-0.4l0.7-4.1
		C-251.5,240.2-248.1,235-249.3,231.3z"/>
	<path style="opacity:0.2;fill:#414042;" d="M-164,46.7c1.4-0.9,1.6-2.6,2.4-3.8c0.5-0.7,1.7-1,2-1.5c0.6-0.9-0.7-2.4-0.4-2.7
		c0.2-0.3,3.2-0.4,4-0.9c0.4-0.2,5.7-5.8,6.4-6.5c1.5-1.7,3.2-7,4.3-7.5c2.4-1.3,2.4,0.2,5.8-3.2c3.1-3.1,8.2-9.4,10.2-13.5
		c0.5-1.1,0.4-4.6,1.5-4.8c2.9-0.6,6.2,0.6,8.9,0.6c1.9,0.1,3.8-1.1,6.1-0.6c2.4,0.5,1.8,2.7,3.5,2.8c2.2,0.2,6.4-1.9,9.6-2.2
		c7.1-0.6,17.4,0.3,24.8,0.7c3.1,0.2,8.7,2.8,11.1,2.8c1.4,0,2.3-2.8,5.3-2.1c0.7,0.2,0.8,1.6,1.5,2.1c1.8,1.3,4.5,1.4,5.9,3.8
		c0,0.6-6.7,4.2-7.7,5.1c-3,2.7-6,6.5-9.4,9.3c-5.7,4.7-11,5-16.2,9.3c-3.1,2.6-5.9,8-8.6,9.9c-3.2,2.3-10.3,4.7-12.7,6.5
		c-0.4,0.3-3.8,4.2-6.4,7.3L-164,46.7z"/>
</g>
</svg>
