<?xml version="1.0" encoding="utf-8"?>
<!-- Generator: Adobe Illustrator 29.1.0, SVG Export Plug-In . SVG Version: 9.03 Build 55587)  -->
<svg version="1.0" id="Layer_1" xmlns="http://www.w3.org/2000/svg" xmlns:xlink="http://www.w3.org/1999/xlink" x="0px" y="0px"
	 viewBox="0 0 595.3 550.5" style="enable-background:new 0 0 595.3 550.5;" xml:space="preserve">
<path d="M414,120.9L414,120.9c0-0.1,0.1-0.2,0.1-0.3C414.1,120.7,414.1,120.8,414,120.9z M413.8,121.6L413.8,121.6
	c0.1-0.1,0.1-0.3,0.1-0.4C413.9,121.4,413.9,121.5,413.8,121.6z M413.3,122.9L413.3,122.9c0.1-0.1,0.1-0.2,0.2-0.3
	C413.4,122.7,413.4,122.8,413.3,122.9z M392.6,96.8L392.6,96.8c0.1,0.1,0.1,0.3,0.2,0.4C392.7,97.1,392.7,97,392.6,96.8z M378,97.6
	L378,97.6c0.1-0.1,0.1-0.3,0.2-0.4C378.1,97.3,378,97.5,378,97.6z M377.3,99.1L377.3,99.1c0.1-0.2,0.1-0.3,0.2-0.5
	C377.5,98.8,377.4,99,377.3,99.1z M377.1,99.7L377.1,99.7c0-0.1,0.1-0.2,0.1-0.3C377.2,99.5,377.2,99.6,377.1,99.7z"/>
<path d="M301.9,350.7c-0.1-0.1-0.2-0.1-0.3-0.2c0.2,0.1,0.3,0.2,0.4,0.4C302.1,350.9,302,350.8,301.9,350.7z M303.3,352.7
	C303.3,352.6,303.3,352.6,303.3,352.7C303.3,352.6,303.3,352.7,303.3,352.7C303.3,352.7,303.3,352.7,303.3,352.7z M303.5,353.1
	c0-0.1-0.1-0.2-0.1-0.3c0.1,0.2,0.2,0.4,0.3,0.7C303.6,353.3,303.5,353.2,303.5,353.1z M305.4,387.7c0.1-0.1,0.2-0.1,0.3-0.2
	c0.1-0.1,0.2-0.1,0.3-0.2C305.7,387.5,305.6,387.6,305.4,387.7z M308,306.5L308,306.5c0-0.1,0.1-0.1,0.1-0.2
	C308.1,306.4,308,306.5,308,306.5z M308.1,306.2L308.1,306.2c0-0.1,0.1-0.1,0.1-0.2C308.2,306.1,308.2,306.1,308.1,306.2z
	 M308.3,305.8L308.3,305.8c0.1-0.1,0.1-0.2,0.1-0.4C308.4,305.6,308.3,305.7,308.3,305.8z M308.5,305.1
	C308.5,305.1,308.5,305.2,308.5,305.1C308.5,305.2,308.5,305.1,308.5,305.1c0-0.1,0-0.1,0.1-0.2C308.5,305,308.5,305,308.5,305.1z
	 M308.4,305.5L308.4,305.5c0,0,0-0.1,0-0.1C308.4,305.4,308.4,305.4,308.4,305.5z M308.6,304.3L308.6,304.3c0-0.1,0.1-0.3,0.1-0.4
	C308.7,304,308.7,304.2,308.6,304.3z M308.9,303L308.9,303c0-0.1,0-0.1,0-0.1C308.9,302.9,308.9,303,308.9,303z M329.3,122.9
	C329.4,122.9,329.4,122.9,329.3,122.9L329.3,122.9C329.4,122.9,329.4,122.9,329.3,122.9z M331,85.2c0,0.1,0,0.3-0.1,0.4
	c0,0.2-0.1,0.4-0.1,0.6c0.1-0.4,0.1-0.7,0.1-1.1C331,85.1,331,85.1,331,85.2z M330.8,87.3c0-0.4,0.1-0.8,0.1-1.1
	C330.8,86.5,330.8,86.9,330.8,87.3c-0.1,1.9,0,3.6,0.3,5.1C330.8,90.9,330.7,89.2,330.8,87.3z M331.2,83.9c0,0.1,0,0.2,0,0.3
	c0,0,0,0.1,0,0.1c0.1-0.4,0.1-0.8,0.2-1.2C331.3,83.3,331.3,83.6,331.2,83.9z M331.8,81.5c-0.1,0.3-0.1,0.5-0.2,0.8
	c0.1-0.5,0.3-1.1,0.4-1.6C331.9,81,331.8,81.2,331.8,81.5z M334.7,73.6c-0.2,0.4-0.4,0.9-0.6,1.4C334.3,74.5,334.5,74,334.7,73.6
	C334.7,73.6,334.7,73.6,334.7,73.6z M337.7,65.2L337.7,65.2C337.7,65.1,337.7,65.1,337.7,65.2C337.7,65.1,337.7,65.1,337.7,65.2z
	 M340.8,260.4c-0.1-0.1-0.2-0.2-0.3-0.3h0C340.6,260.2,340.7,260.3,340.8,260.4C340.8,260.4,340.8,260.4,340.8,260.4z M341.8,261.8
	L341.8,261.8c0.1,0.1,0.1,0.2,0.2,0.3C341.9,262,341.8,261.9,341.8,261.8z M341.6,270.8L341.6,270.8c0.2-0.2,0.3-0.3,0.5-0.5
	C341.9,270.5,341.8,270.7,341.6,270.8z M342.2,262.5L342.2,262.5c0.1,0.1,0.1,0.2,0.2,0.3C342.3,262.7,342.3,262.6,342.2,262.5z
	 M342.6,263.1L342.6,263.1C342.6,263.2,342.6,263.2,342.6,263.1C342.6,263.2,342.6,263.2,342.6,263.1z M343,263.8L343,263.8
	c0.1,0.1,0.1,0.2,0.2,0.3C343.1,264,343.1,263.8,343,263.8z M374.7,108.1c0,0,0,0.1,0,0.1C374.7,108.1,374.7,108,374.7,108.1
	C374.7,108,374.7,108,374.7,108.1z"/>
<path d="M308.6,304.2L308.6,304.2c0-0.1,0-0.1,0.1-0.2C308.6,304.1,308.6,304.2,308.6,304.2z"/>
<path d="M300.5,313.4l-0.1-0.1c0.1,0.1,0.2,0.3,0.3,0.4C300.7,313.5,300.6,313.5,300.5,313.4z M328.1,300.6c0,0.3,0,0.5,0,0.8
	c0,0.7-0.1,1.3-0.2,1.9c0,0.1-0.1,0.2-0.1,0.3c0.1-0.1,0.1-0.2,0.1-0.3C328.1,302.4,328.1,301.5,328.1,300.6z M342.1,270.3
	L342.1,270.3c0.1,0.1,0.1,0.2,0.2,0.2C342.2,270.5,342.2,270.4,342.1,270.3z M343.4,271.9C343.5,272,343.5,272,343.4,271.9
	L343.4,271.9C343.5,272,343.5,272,343.4,271.9z M343.8,272.5c0,0,0.1,0.1,0.1,0.1h0C343.9,272.5,343.8,272.5,343.8,272.5z"/>
<path d="M592.9,206.8c-1.3,4.3,0.4,7.4-1.8,11.8l-2.7-0.9c2.3-3.8-0.4-3.3-0.8-4.3c-0.6-1.6-1-3.3-1.6-4.9c-0.6-1.9-1.4-3.6-3.1-4.8
	l1.8-1.8L582,199c4.8-1.9,1.6-4.6,2.3-8.5c0.3-1.5,1-2.6,1.6-3.5c0.7-0.9,1.3-1.7,1.5-2.7c0.4-2-0.6-2.3-1.5-2.7
	c-0.5-0.2-0.9-0.5-1.1-1c-1-2.9,0.1-8.2,1.1-13.1c0.7-3.4,1.5-6.7,1.5-8.8c0-1.9-1.4-2.8-1.5-3.5c-0.1-1,2.9-10.7,3.2-13.7
	c1.3-14-4.6-25.1-6.1-38.1c-2.1-17.3,5-48.9-1.7-66.7c-1-2.8-2.4-5.3-4.3-7.3c-1.7-1.9-4-2.8-5.5-4.5c0,0,0,0,0,0
	c-0.2-0.2-1.6-2.4-3.9-5.5c-0.3-0.3-0.5-0.7-0.8-1.1c-2.1-2.9-4.8-6.4-7.7-10.1c-1.4-1.8-2.9-3.6-4.4-5.4c-0.8-1-1.7-2-2.5-2.9
	H408.4c-7,7-15.6,11.6-21.6,14.1c-4.6,3.6-8.7,7.8-13.3,11.5c-0.8,0.7-1.2,2.2-1.9,2.6c-2.7,1.7-5.9-1-8.4-0.3
	c-3.3,0.9-11.1,12.1-13.8,15.3c-3.8,4.5-10.1,8.7-11.7,14.7c-0.8,2.8,0.5,4.2,0.2,6.4c0,0.1-0.1,0.3-0.1,0.4c0,0.1,0,0.2-0.1,0.3
	c0,0,0,0.1,0,0.1l0,0c0,0.1,0,0.2-0.1,0.3c-0.1,0.4-0.2,0.8-0.3,1.1c-0.1,0.2-0.1,0.5-0.2,0.7c-0.2,0.8-0.5,1.5-0.8,2.3
	c-0.2,0.4-0.3,0.9-0.5,1.3c-0.4,0.9-0.7,1.8-1.1,2.7v0c-0.2,0.4-0.4,0.9-0.6,1.4c-0.1,0.2-0.2,0.5-0.3,0.7c-0.1,0.3-0.2,0.6-0.4,0.9
	c-0.1,0.2-0.1,0.4-0.2,0.5c-0.1,0.4-0.3,0.7-0.4,1.1c-0.1,0.4-0.3,0.7-0.4,1.1c-0.2,0.5-0.3,1-0.5,1.5c-0.1,0.5-0.3,1-0.4,1.6
	c-0.1,0.3-0.1,0.5-0.2,0.8c-0.1,0.4-0.2,0.8-0.2,1.2c0,0.1,0,0.1,0,0.2c0,0.1,0,0.2,0,0.2c0,0.1,0,0.2-0.1,0.3
	c-0.1,0.4-0.1,0.7-0.1,1.1c0,0.4-0.1,0.8-0.1,1.1c-0.1,1.9,0,3.6,0.3,5.1c0,0,0,0,0,0c0.1,0.6,0.2,1.1,0.3,1.7
	c0.1,0.5,0.2,0.9,0.3,1.4c0.1,0.2,0.1,0.4,0.2,0.7c0.3,1.1,0.5,2.2,0.7,3.3c0,0.3,0.1,0.5,0.1,0.7c0,0.1,0,0.2,0,0.3
	c0,0.2,0,0.4,0,0.6c0,0.1,0,0.2,0,0.2c0,0.2,0,0.4,0,0.6c0,0.2,0,0.4,0,0.6c0,0.4-0.1,0.7-0.1,1.1c0,0.2-0.1,0.3-0.1,0.5
	c-0.2,1.1-0.6,2.2-1,3.3c-0.1,0.2-0.2,0.4-0.3,0.6c-0.3,0.7-0.6,1.4-1,2.1c-0.1,0.2-0.2,0.5-0.3,0.7c-0.1,0.3-0.3,0.6-0.4,0.9
	c-0.1,0.3-0.3,0.6-0.4,1c-0.1,0.3-0.3,0.7-0.4,1c-0.1,0.4-0.2,0.7-0.3,1.1c-0.1,0.3-0.1,0.6-0.2,1c0,0.3-0.1,0.5-0.1,0.8
	c0,0.3-0.1,0.5-0.1,0.8c0,0.1,0,0.2,0,0.3c0,0.4,0,0.8,0,1.2c0,0.1,0,0.2,0,0.3c0,0.3,0.1,0.7,0.1,1c0.1,0.4,0.2,0.8,0.3,1.1
	s0.3,0.7,0.5,1c0.2,0.3,0.3,0.6,0.4,0.9c0,0,0,0,0,0c0,0.1,0.1,0.1,0.1,0.2c0.1,0.3,0.2,0.5,0.2,0.7c1.3,6.5-4.2,10.9-4.4,16.2
	c-0.2,4.7,3,15,5.5,19.1c-1.1,12.3-3.5,1.4-8.9-1.2c-8-3.9-12.6,1.1-17.4,6.6c-0.1,0.1-0.2,0.3-0.3,0.4c0,0,0,0,0,0
	c0,0,0,0.1-0.1,0.1c-0.2,0.3-0.4,0.6-0.6,0.9c-0.1,0.1-0.1,0.3-0.2,0.4c-0.3,0.6-0.6,1.2-0.9,1.7c-0.2,0.2-0.3,0.5-0.5,0.7
	c-0.4,0.5-0.9,0.8-1.6,0.8c-0.9,1-1.8,2-2.6,2.9v300.9c1.2-1,2.3-2,3.1-2.8c2.7,1.4,6.2,1.1,8.7,2.1c0.1,0,0.1,0.1,0.2,0.1
	c3.4-1.7,9.7-5,12.3-2.8c1-3,2-6.1,3.2-8.6l2.8-0.5l0,6.1l3-6c3.9,3,9.1,4.4,12.7,6.6l5.1,0c2,7.7,5.9,13.4-4.5,16.3
	c-0.1-0.5-0.1-0.9-0.2-1.4c0-0.2-0.1-0.3-0.1-0.5c0,0,0,0,0,0c0-0.2-0.1-0.4-0.1-0.6c-0.2-1-0.4-2.1-0.8-3.1
	c-4.5,2.7-13.2-0.2-14,5.4l-5.3-2.6c0,0,0,0,0,0c-0.4,0.1-0.7,0.1-1,0.1c-1.9,1.5-3.5,2.9-4,3.8c-4.4,0-5.1-0.8-4.4-2.1
	c-0.1-0.3,0-0.6,0.1-1.1c-0.4,0.2-0.8,0.3-1.2,0.4c-3,0.9-11.4,2.1-15.6,2v70h148.9l10.5-10.7c0.8-1.3,1.6-2.6,2.5-3.7
	c1.6-1.9,3.9-2.6,5.8-5.5c0.2-0.3,1.3-0.3,1.4-1c0.3-1.7,0-10.5,0.2-11c0.3-0.5,2.6-1.4,3.8-3.9c2.5-5.2,0.6-7.2,5.9-12.3
	c4.4-4.2,11.4-10.6,14.1-16.7c0.7-1.5,0.3-2.9,0.6-4.5l2.4-0.2c-0.5-3.7,1.9-3.7,2.9-5.1c2.6-3.9,12.1-19.4,13.2-22.9
	c0.6-1.8,0-4.3,0.6-5.3c0.3-0.5,5.6-5,6.9-7.1c3.3-5.2,5.2-13.1,8.4-17.9c2.3-3.5,11-10.2,12.6-13.7c0.7-1.5-0.2-2.6,0.1-3
	c0.4-0.6,3.7-1.5,4.8-3c0.9-1.2,8.4-17.7,8.4-18.7c0.1-2.6-2.6-6.7-2.1-10.4c0.7-5,7.6-11,6.7-14.7c-2.4-9,1.5-10.8,3.4-17.9
	c1.4-5.2-1.4-3.6,2.8-9.3c0.4-0.6-2.2-2.1,2.1-1.6c0.2-4.6-5.6,0.3-5.4-4.5c7.2-0.3,8.5-7.1,10.4-12.3c0.9-2.5,5.5-12.8,5.6-14.5
	c0-1.3-1.2-2.6-1.3-3.8c-0.4-5.8,2.9-4.4,3.5-5.4c2.4-4.2-0.4-13.4-0.6-18.2c-0.1-1.8,0.6-4,0.6-6.2c0-2.8-2.7-9.2,1.5-6.6
	c0.3,0.2,0.7,0.4,1.1,0.8l0-4.6l1.8,0.9c-2.7-5.3,2-5.5,3.4-8.9c2.5-6.2,1.6-18.4,4.5-26.4c0.9-2.7,2.8-3.3,3.4-4.7
	C594.9,216,597,209.1,592.9,206.8z M300.2,275.1c0-1.8,0-3.7,0-5.5c0-0.7,0-1.4,0-2.1c0-0.6,0-1.3,0-1.9c0-0.8,0-1.7,0.1-2.5
	c0-1.5,0.1-3,0.2-4.4c0.1-1.4,0.1-2.9,0.2-4.3c0-0.9,0.1-1.8,0.1-2.6c0.1-1.1,0.1-2.1,0.2-3.2c0.2-4,0.5-8.1,0.8-12.2
	c0.2-2.9-0.9-7.2-0.7-9c0-0.2,0.1-0.4,0.2-0.6c0-0.1,0.1-0.2,0.1-0.3c0.1-0.1,0.1-0.2,0.2-0.3c0.1-0.1,0.1-0.2,0.2-0.3
	c0.1-0.1,0.2-0.3,0.3-0.5c0.1-0.2,0.2-0.3,0.3-0.5c0.1-0.2,0.3-0.5,0.4-0.7c0.1-0.1,0.1-0.3,0.2-0.4c0-0.1,0.1-0.2,0.1-0.3
	c0,0,0-0.1,0.1-0.1c0-0.1,0.1-0.1,0.1-0.2c0-0.1,0.1-0.2,0.1-0.3c0,0,0,0,0-0.1c0-0.1,0.1-0.2,0.1-0.3c0,0,0,0,0-0.1
	c0-0.1,0.1-0.3,0.1-0.4c0-0.1,0-0.3,0-0.5c0.4-9.4-0.8-17.6,0-28.1c0.3-4-0.1-7.2,0.1-10.3c0.2-2.7,0.8-5.4,2.7-8.7
	c2-3.4,10.2-13.7,14.2-9.3c2.5,2.7,2.4,10.6,4.7,13.9c-1.2,13.5,1.6,26.4,5.9,38.6c1.1,3.1,2.3,6.1,3.7,9.1l2.2-0.1
	c0.8,2.3-2.5,2.2-2.8,3.4c-0.4,2.2,2.6,11.8,3.8,14.3c3.8,7.5,5.4,7,7.2,16.4c0,0.2,0.3,0.8,0.6,1.5c0,0.1,0.1,0.2,0.1,0.3
	c0.2,0.5,0.4,1.1,0.5,1.6c0,0.1,0.1,0.2,0.1,0.3c0,0.1,0,0.1,0,0.2v0c0,0.1,0,0.1,0,0.2c0,0.1,0,0.2,0,0.3c0,0.1,0,0.2,0,0.2
	c0,0.1-0.1,0.2-0.1,0.3c-0.1,0.1-0.1,0.1-0.2,0.2c-0.3,0.2-1,0-2-0.5c-0.1-0.1-0.2-0.1-0.3-0.2l-0.2-0.2c0,0-0.1-0.1-0.1-0.1
	c-0.1-0.1-0.2-0.2-0.3-0.3c-0.1-0.1-0.1-0.2-0.2-0.3c-0.1-0.1-0.1-0.2-0.2-0.3c-0.1-0.1-0.1-0.2-0.2-0.3c0-0.1-0.1-0.1-0.1-0.2
	c-0.1-0.1-0.1-0.3-0.2-0.4c0,0,0-0.1-0.1-0.1c-0.1-0.1-0.1-0.2-0.2-0.3c-0.1-0.1-0.1-0.2-0.2-0.3c-0.1-0.1-0.1-0.2-0.2-0.4
	c-0.1-0.1-0.1-0.2-0.2-0.3c-0.1-0.1-0.1-0.2-0.2-0.4c-0.1-0.1-0.2-0.2-0.2-0.3c-0.1-0.1-0.2-0.2-0.3-0.4c0-0.1-0.1-0.1-0.1-0.2
	c0,0-0.1-0.1-0.1-0.1c-0.1-0.1-0.2-0.3-0.3-0.4c-0.1-0.1-0.2-0.2-0.3-0.3c-0.2-0.2-0.4-0.4-0.6-0.6c-0.2-0.2-0.3-0.3-0.5-0.4
	c-0.2-0.1-0.3-0.3-0.5-0.4c-0.2-0.2-0.4-0.3-0.7-0.4c-0.2-0.1-0.3-0.1-0.5-0.2c-0.1,0-0.2-0.1-0.3-0.1c-0.1,0-0.3-0.1-0.4-0.1
	c-0.1,0-0.2,0-0.3,0c0,0-0.1,0-0.1,0c-0.1,0-0.3,0-0.4,0c-0.1,0-0.2,0-0.3,0h-0.1c-0.1,0-0.2,0-0.3,0c0,0,0,0,0,0
	c-0.3,0-0.5,0.1-0.8,0.2c-0.2,0.1-0.3,0.1-0.5,0.2c-0.4,0.1-0.7,0.3-1.1,0.6c-2.4,3.5,2.1,5.7,2.3,7.7c0.1,2.6-2.9,12.9,0.6,14.1
	l3.1,0.1c0-0.6,0-1.2,0-1.7c0-0.4,0-0.9,0.1-1.3c0-0.3,0.1-0.7,0.1-1c0-0.3,0.1-0.5,0.1-0.7c0-0.1,0-0.2,0.1-0.3
	c0.1-0.3,0.1-0.6,0.2-0.8c0-0.1,0.1-0.3,0.1-0.4c0.1-0.3,0.2-0.6,0.4-0.9c0-0.1,0.1-0.2,0.1-0.3c0.2-0.4,0.5-0.9,0.8-1.3
	c0.1-0.1,0.1-0.2,0.2-0.3c0.1-0.1,0.2-0.3,0.3-0.4v0c0.2-0.2,0.3-0.3,0.5-0.5l0,0c0.1,0.1,0.1,0.1,0.2,0.2c0,0,0,0,0.1,0.1l0.2,0.3
	c0.2,0.2,0.3,0.4,0.5,0.5c0.1,0.2,0.3,0.3,0.4,0.5c0,0,0,0.1,0.1,0.1c0.1,0.1,0.1,0.1,0.1,0.2c0.1,0.1,0.1,0.2,0.2,0.3
	c0,0,0.1,0.1,0.1,0.1c0.1,0.2,0.2,0.4,0.4,0.6c0.2,0.3,0.4,0.6,0.5,1c0.1,0.2,0.2,0.3,0.2,0.5c0.1,0.2,0.1,0.3,0.2,0.5
	c0.1,0.3,0.3,0.6,0.3,1c0,0.1,0.1,0.3,0.1,0.4c0.1,0.2,0.1,0.4,0.2,0.6c0,0.2,0.1,0.3,0.1,0.5c0,0.1,0,0.2,0,0.2c0,0.1,0,0.1,0,0.1
	c0.1,0.4,0.1,0.8,0.1,1.2c0,0.1,0,0.3,0,0.4c0,0.5,0,1,0,1.5c0,0.1,0,0.2,0,0.3c0,0,0,0,0,0.1c0,0,0,0,0,0s0,0,0,0
	c0,0.2-0.1,0.5-0.1,0.7c0,0.1,0,0.1,0,0.1c0,0.1,0,0.2,0,0.3c0,0.1,0,0.1,0,0.2c-0.1,0.3-0.1,0.5-0.2,0.8c0,0,0,0,0,0.1
	c0,0.1-0.1,0.2-0.1,0.3c-0.1,0.4-0.2,0.8-0.3,1.2c-0.7,0.2-1.2,0-1.6-0.3c-0.1-0.1-0.2-0.2-0.3-0.3c0,0,0,0-0.1-0.1
	c-0.1-0.1-0.3-0.3-0.4-0.4c-0.2-0.2-0.3-0.4-0.5-0.5c-0.1-0.1-0.1-0.1-0.2-0.2c-0.1-0.1-0.2-0.1-0.2-0.2c0,0,0,0-0.1-0.1
	c0,0-0.1,0-0.1,0c-0.1-0.1-0.3-0.2-0.4-0.2c-0.1,0-0.2-0.1-0.3-0.1c-0.3,0-0.5-0.1-0.7-0.1c-0.1,0-0.2,0-0.4,0c-0.1,0-0.2,0-0.3,0
	c-0.2,0-0.3,0.1-0.4,0.1c-0.1,0-0.3,0.1-0.4,0.1c0,0,0,0,0,0c-0.1,0.1-0.3,0.2-0.4,0.3c-0.1,0.1-0.1,0.1-0.2,0.2
	c-0.1,0.2-0.2,0.3-0.3,0.5c-0.1,0.1-0.1,0.2-0.1,0.3c-0.1,0.1-0.1,0.2-0.1,0.3c-0.1,0.2-0.1,0.3-0.1,0.5c0,0,0,0,0,0
	c0,0.2-0.1,0.4-0.1,0.6c0,0.2-0.1,0.3-0.1,0.5v0.1c0,0.2,0,0.3-0.1,0.5c0,0.4-0.1,0.8-0.1,1.2c0,0.2-0.1,0.4-0.1,0.6
	c0,0.2-0.1,0.4-0.1,0.6c-0.1,0.2-0.1,0.4-0.2,0.5c-0.2,0.1-0.4,0.2-0.7,0.1c-0.1,0-0.1,0-0.2,0c0,0,0,0,0,0c-0.1,0-0.2,0-0.3-0.1
	c-0.2-0.1-0.3-0.1-0.5-0.2c-0.2-0.1-0.4-0.2-0.5-0.3c-0.1-0.1-0.2-0.1-0.3-0.2c-0.6-0.4-1.2-0.8-1.9-1.3c-0.2-0.2-0.5-0.4-0.7-0.6
	c-0.8-0.7-1.6-1.4-2.3-2c-0.1-0.1-0.2-0.2-0.3-0.3c-0.8-0.7-1.5-1.2-1.9-1.3c-4.6-1.4-15.7,0.5-19.3,3.9c-3.2,2.9-2.9,7.1-5,10.4
	c-0.1,0-0.3-0.1-0.4-0.3c0,0,0-0.1,0-0.1c0,0,0-0.1-0.1-0.1c0,0-0.1-0.1-0.1-0.1c0,0,0,0,0-0.1c0-0.1-0.1-0.1-0.1-0.2
	c0-0.1-0.1-0.2-0.1-0.4c0,0,0-0.1,0-0.1c-0.1-0.2-0.1-0.4-0.2-0.6c0-0.1,0-0.1-0.1-0.2c-0.1-0.5-0.3-1-0.4-1.6
	c0-0.1-0.1-0.3-0.1-0.4c0-0.1-0.1-0.3-0.1-0.4c0-0.2-0.1-0.5-0.1-0.7c0-0.3-0.1-0.5-0.1-0.7c0-0.1,0-0.2-0.1-0.3c0-0.1,0-0.2,0-0.3
	c0-0.1,0-0.2-0.1-0.3c-0.1-0.7-0.2-1.3-0.2-1.6c-0.1-1.4-0.2-2.9-0.3-4.3c-0.1-1.3-0.1-2.6-0.2-3.9v-0.1c0-0.2,0-0.5,0-0.7
	c0-0.6,0-1.1,0-1.7c0-0.5,0-1.1,0-1.6c0-0.4,0-0.8,0-1.2V275.1z M299,309.4c1.4,0,2.6-0.1,3.6-0.2c0.1,0,0.3,0,0.4-0.1
	c0.6-0.1,1.1-0.2,1.6-0.3c0.1,0,0.2-0.1,0.3-0.1c0,0,0.1,0,0.1,0c0.3-0.1,0.6-0.2,0.9-0.3c0.1-0.1,0.3-0.1,0.4-0.2c0,0,0,0,0.1,0
	c0.1-0.1,0.2-0.1,0.3-0.2c0.2-0.1,0.4-0.3,0.5-0.5c0.1-0.1,0.1-0.1,0.2-0.2c0.1,0,0.1-0.1,0.1-0.1c0.1-0.1,0.1-0.2,0.2-0.3
	c0,0,0.1-0.1,0.1-0.1c0,0,0,0,0,0c0,0,0,0,0,0c0,0,0-0.1,0.1-0.1c0,0,0-0.1,0.1-0.1c0-0.1,0.1-0.1,0.1-0.2c0,0,0-0.1,0-0.1
	c0,0,0-0.1,0-0.1c0-0.1,0.1-0.1,0.1-0.2c0-0.1,0-0.1,0.1-0.2c0-0.1,0.1-0.2,0.1-0.4c0,0,0-0.1,0-0.1c0,0,0-0.1,0-0.1
	c0,0,0-0.1,0-0.1c0-0.1,0-0.1,0.1-0.2c0-0.1,0-0.1,0-0.2c0-0.1,0.1-0.2,0.1-0.3c0,0,0-0.1,0-0.1c0-0.1,0.1-0.3,0.1-0.4
	c0-0.1,0-0.1,0-0.2c0-0.2,0.1-0.4,0.1-0.6c0-0.1,0-0.1,0-0.1c0,0,0,0,0,0c0,0,0-0.1,0-0.1c0.2-1,0.6-2,1.2-3c0.3-0.4,6.6-7.6,7-7.9
	c2-1.3,11.2-3.5,13.2-1.5h0c0.1,0.1,0.2,0.2,0.2,0.3c0.4,0.8,0.5,1.5,0.5,2c0,0.2,0,0.3,0,0.5c0,0.2-0.1,0.3-0.1,0.4
	c0,0.1-0.1,0.2-0.1,0.3c0,0.1-0.1,0.2-0.1,0.2c-0.1,0.2-0.3,0.4-0.4,0.5c-0.1,0.1-0.1,0.1-0.2,0.2c-0.1,0.1-0.2,0.2-0.3,0.2
	c-0.1,0.1-0.2,0.1-0.3,0.2c-0.2,0.1-0.4,0.2-0.5,0.4c-0.1,0.1-0.3,0.2-0.4,0.3c-0.1,0.1-0.2,0.2-0.3,0.3c0,0-0.1,0.1-0.1,0.1
	c0,0-0.1,0.1-0.1,0.1c-0.3,1-0.3,2.2-0.2,3.4c0,0.3,0,0.6,0.1,0.8c0.1,0.9,0,1.9-0.2,2.7c0,0.1-0.1,0.2-0.1,0.3
	c-0.1,0.2-0.2,0.4-0.3,0.6c-0.6,1.1-1.8,2.5-2.9,3.7c-0.1,0.1-0.2,0.3-0.3,0.4c-0.1,0.1-0.2,0.2-0.3,0.3c-0.3,0.3-0.5,0.6-0.7,0.8
	c-0.2,0.3-0.4,0.5-0.5,0.7c-0.8,1.1-1,3.7-2.1,4.4c-0.4,0.3-1,0.5-1.6,0.8c-0.2,0.1-0.4,0.1-0.6,0.2c-0.2,0.1-0.4,0.1-0.7,0.2
	c-0.5,0.1-1,0.3-1.5,0.4c-0.5,0.1-1,0.2-1.6,0.3c-0.1,0-0.2,0-0.2,0c-0.2,0-0.4,0.1-0.6,0.1c-0.1,0-0.2,0-0.3,0c-0.1,0-0.1,0-0.2,0
	c-0.4,0-0.7,0.1-1.1,0.1c-0.3,0-0.5,0-0.8,0.1c-0.3,0-0.6,0.1-0.9,0.1c-0.3,0-0.5,0-0.8,0c-0.5,0-0.9,0-1.3,0c-0.2,0-0.4,0-0.6,0
	c0,0,0,0,0,0c-0.3,0-0.6,0-0.9-0.1c-0.4,0-0.7-0.1-1.1-0.1c-0.2,0-0.3-0.1-0.5-0.1c0,0-0.1,0-0.1,0c-0.2-0.1-0.4-0.1-0.6-0.2
	c-0.3-0.1-0.6-0.2-0.9-0.4c-0.2-0.1-0.4-0.2-0.6-0.4c-0.2-0.1-0.3-0.2-0.5-0.3c-0.3-0.2-0.5-0.4-0.8-0.6c-0.2-0.1-0.3-0.3-0.5-0.4
	c-0.1-0.1-0.2-0.2-0.3-0.2c-0.1-0.1-0.3-0.3-0.4-0.4c-0.1-0.1-0.2-0.3-0.3-0.4c-0.1-0.1-0.2-0.3-0.3-0.4c-0.1-0.1-0.2-0.2-0.2-0.3
	c-0.1-0.1-0.2-0.3-0.3-0.5c0,0,0,0,0,0c-0.1-0.1-0.1-0.2-0.1-0.3c0,0,0,0,0,0c0-0.1-0.1-0.2-0.1-0.3c0,0,0,0,0,0c0,0,0-0.1-0.1-0.1
	c0-0.1-0.1-0.2-0.1-0.3c-0.1-0.2-0.1-0.3-0.1-0.5c0-0.1,0-0.1,0-0.2C299,310,299,309.7,299,309.4z M303.3,352.7c0-0.1,0-0.1-0.1-0.1
	C303.3,352.6,303.3,352.6,303.3,352.7C303.3,352.7,303.3,352.7,303.3,352.7c0.1,0.1,0.1,0.2,0.1,0.3c0,0.1,0.1,0.2,0.1,0.3
	C303.5,353.2,303.4,353,303.3,352.7z M301.7,350.5c0.1,0.1,0.2,0.1,0.3,0.2c0.1,0.1,0.1,0.1,0.2,0.2
	C302,350.8,301.8,350.7,301.7,350.5z M305.7,387.5c-0.1,0.1-0.2,0.1-0.3,0.2c0.2-0.1,0.4-0.2,0.5-0.4
	C305.9,387.4,305.8,387.4,305.7,387.5z M571.6,249.5c-1,1.8-0.1,4.1-0.4,5.7c-0.2,0.8-2.1,1.1-3,2.7c-0.8,1.6-3.5,11.2-3.2,12.7
	c0.3,1.9,2.4,4.3,2.6,6.6l-0.9,0.9c-1.6-1.1-4.3,3.2-4.5,4.5c-0.8,3.8,5.9-1.8,7.3,0c-1.6,1.1-9.7,4.9-10,6.4
	c-0.2,1,1.4,1.9,1.5,2.8c0.3,1.4-1,3.7-0.6,6.2c0.4,2.6,5.9,8.9-0.9,8.7c-0.8-2.5,1.5-1.6,1.7-1.9c0.8-1.2-0.9-4.4-3.2-0.1
	c-0.8,1.5,0.2,3.1-2.9,4.2c4.2,3.1-2.7,8.7-2.8,9.3c-0.3,1.4,1.1,3.2,0.8,4.3c-0.3,1.2-3,1.7-3.9,3.3c-0.7,1.2-0.9,2.8-1,4.3
	c-0.1,1.5-0.1,3.1-0.5,4.1c-0.8,2.1-4.8,0.5-0.7,6.5c-3.4,1.1-2.2,3.2-3.2,5c-1.6,2.6-3.4,4-5,7.8c-0.6,1.3,0.1,3,0,3.1
	c-0.4,0.3-1.9,0.1-2.6,0.6c-2.9,2.1-5.7,12.2-7.1,15.6c-1.7,4.1-6.8,6.6,1.5,10.3l0.1,1.2c-1.2,1.7-1.5,4.3-2.4,5.9
	c-2.4,4.4-6.1,9.2-8.2,13.1c-2,3.7-5.1,7.2-3,11.5c-4.9-1-3.7,2.3-4.8,3.4c-0.4,0.4-1.9-0.1-2.5,0.8c-1.8,2.2-0.6,6.3-4.5,10.8
	c-4.5,5.3-12.1,12.8-15.8,18.7c-5.3,8.3-9.5,17.7-15.3,25.5c-1.4,1.9-2.9,3.6-4.5,5.3c-0.9,1-1.9,1.9-3,2.8c-0.5,0.4-1.3,1-2.1,1.6
	c-1.4,1-3,2.2-3.3,2.9c-1.8,3.9,3.7,3.6,3.2,5.9c-1.9,1.2-2.2,3.5-3.2,5c-0.7,1-2.3,1.3-2.7,1.9c-0.8,1.2,0.9,3.1,0.5,3.6
	c-0.3,0.4-4.3,0.6-5.2,1.2c-0.5,0.3-7.5,7.6-8.4,8.6c-2,2.2-4.3,9.2-5.7,10c-3.2,1.8-3.2-0.2-7.6,4.2c-4,4.1-10.8,12.4-13.5,17.8
	c-0.7,1.5-0.6,6-2,6.4c-3.9,0.7-8.2-0.8-11.7-0.9c-2.5-0.1-5,1.4-8,0.8c-3.2-0.6-2.3-3.5-4.6-3.7c-2.9-0.3-8.5,2.5-12.7,2.9
	c-9.4,0.7-22.9-0.4-32.6-0.9c-4.1-0.2-11.4-3.7-14.6-3.7c-1.9,0-3.1,3.8-7.1,2.8c-0.9-0.2-1-2.2-1.9-2.8c-2.4-1.7-6-1.8-7.8-5
	c0-0.9,8.8-5.5,10.2-6.8c3.9-3.6,7.9-8.6,12.4-12.3c7.5-6.2,14.6-6.6,21.3-12.3c4.1-3.4,7.8-10.6,11.4-13.1c4.3-3,13.6-6.2,16.8-8.6
	c0.6-0.4,5-5.6,8.5-9.7c1.2-1.4,2.3-2.7,3.1-3.7c0.5-0.6,0.9-1.1,1-1.3c6.7-9.7-0.4-8.3-5.2-11.8c-2.3-1.7-3.7-5.3-7.6-6
	c-4.4-0.8-7.2,5.7-12.7,2.4c-1.5-4.4-2.4-11-4.5-15c-5.1-9.9-22.3-10-31.4-6.6l-2.3-8.7c-4.1-1.5-9.3-1.4-13.2-3.1
	c-2.1-0.9-3.5-3.1-5.6-3.5c-3.5-0.8-6.1,1.5-9.3,0.3c-2.2-2.3,2.3-0.7,1.8-4.6c-0.1-0.4-1.7-0.4-2.1-1.5c-1-2.4-0.8-6.3-0.1-9.2
	c0.1-0.6,0.3-1.2,0.5-1.7c0.3-0.9,0.9-1.5,1.5-1.8c1.8-1,4.5-0.7,6.3-1.4c2.6-1.1,9.2-6.3,9.9-6.5c1.7-0.4,2.8,1.5,4.4,1.8
	c4.8,0.8,6.6-5.8,9.9-8.2c2.4,1.7,0.5,1.6,0.1,2.8c-1.7,4.5-9.2,11.9-7.3,16.3c2.1,5,9.1,1.5,9.5,1.9c0.3,0.2,0.9,4,3.2,5.5
	c1.3,0.9,3,0.7,4,1.4c6.1,3.8,6.5,7,13.7-0.1c2.5-2.4,6.6-8.8,8.9-12c1.2-1.7,7-11.2,7.9-11.2c1,0,1.4,1.8,1.2,3
	c-0.1,0.6-2.4,8.5-2.6,9c-0.6,1.4-2.9,1.2-3.4,3.1c-0.5,1.6-1.3,10.9-0.6,12.1c1.7,2.9,8,2.5,9.3,3.8c2.2,2.2,0.9,8.8,7.6,12
	c8.2,3.8,14.3-3.6,16.5-3c2,0.5,5.1,5.9,10.6,3.5c-0.7,8.1,10.5,11.9,10,0.9l6.3,1.8c0.6-3-2.9-1.2-4.1-3.6
	c-2.3-4.7,0.6-4.8,1.7-6.5c3-4.7,3.5-4.7,6.4-8.1c0.5-0.6,4-9.5,4.1-10.6c0.1-3-4.6-5.3-6.8-5.4c-0.5,0-1.3,1.1-2.3,1
	c-3.3-0.4-6.1-2.1-7.6-5l-0.9,1.8c-2.5,0.8-2.1-1.7-2.9-1.8c-1.4-0.3-2.8,0-4.2,0.3c-3.4,0.7-2.4,1.7-2.1,3c0.1,0.5,0.2,1.1-0.3,1.8
	l-5.6,2.8l-0.3,5.8c-5.9,1.1-5.5,6.6-10.5,7.3c-0.8-0.9,7.3-19,6.2-23c-1.7-6.2-9.7-1-11.2-3.3c-0.8-1.2-0.2-4-0.6-5.7
	c-0.2-1.1-1.3-2.1-1.5-3.1c-0.3-1.4,0.7-2.4,0.8-3.4c0-0.4-4.8-4.5-6.1-4.9c-7.2-1.8-3.4,2.1-6.1,4.4c-1.9,0.5-3.5,2.1-5.1,3.5
	c-1.9,1.6-3.7,2.8-6.3,1.9c-0.2-0.8-0.1-1.4,0.3-2c0.5-1,1.3-1.8,1.3-2.8c0-3.7-3.9-4.6-4.2-5.7c-0.4-1.8,2-6.4-0.1-9.7
	c-0.4-0.6-0.9-1.1-1.6-1.6c-3.6-2.5-5.9-0.6-8.9-0.8c-1.7-0.1-2.7-1.3-3.6-1.5c-7.5-0.8-20.6-1.6-27.7,0.9c-3.2,1.1-4.9,5.5-8.6,5.9
	c-2-1.4-0.8-1.4-0.6-2.4c0.4-1.8,1.4-2.8,1.1-5.4c0-0.1,0-0.2-0.1-0.3c0-0.1-0.1-0.2-0.1-0.4c0-0.1,0-0.2-0.1-0.2
	c0-0.1-0.1-0.3-0.1-0.4c0,0,0-0.1,0-0.1c-0.1-0.4-0.2-0.8-0.4-1.3c0,0,0-0.1,0-0.1c-0.1-0.3-0.2-0.7-0.3-1c-0.1-0.3-0.2-0.7-0.3-1
	c-0.1-0.3-0.2-0.6-0.3-0.9c-0.1-0.2-0.2-0.5-0.2-0.7c0-0.1-0.1-0.2-0.1-0.2c-0.2-0.5-0.3-0.9-0.3-1c-0.9-1.9-5.6-3.3-7.2-5.5
	c0-0.1-0.1-0.1-0.1-0.2c-0.2-0.4-0.6-1.1-1.1-2c-0.2-0.3-0.4-0.6-0.5-1c-0.2-0.4-0.5-0.9-0.7-1.4c-0.2-0.3-0.4-0.7-0.6-1
	c-0.1-0.2-0.2-0.4-0.3-0.5v0c-1.8-3.4-3.5-6.9-3.8-7.6c-0.8-2.6-1.2-10.6,1.2-12.1c3.6-2.4,16.1,4.5,24.1-3.1c2.5-2.4,3-6,4.5-8.1
	c1.1-1.5,5.6-3.4,5.8-4.4c0.6-2.4-0.4-7-0.1-9.8c0.3-2.4,2.3-4.1,1.9-6.8c4.9-1.2,4.2,3.2,6.4,4.9c6.5,5.1,8.3-4.6,9.5-4.9l5.4,2.7
	l3-2.4c-1.9-7.7-4-15.4-5.2-23.2h0c-0.7-4.6-1.1-9.2-0.9-13.9c-2.7-2.4-1.6-7.1-2.2-10.4c-0.7-3.6-6.3-5.9-5.1-10.3
	c0.2-0.7,1.5-0.6,1.6-0.8c0.7-1.4-1.7-3.5-1.6-5.3c-1.5-1.1-5.2,4.5-6.3,1.3c-0.9-2.5,4.2-1.3,4.4-1.5c1-2.3,1.4-5,1-7.5
	c-0.9-4.8-4.3-9.4-5.1-13.2c-0.8-3.8-1-10-2.3-14c-0.4-1.2-2.3-1.1-2.6-2.1c-0.6-2.3,0.6-6.2,0-8.7c-0.2-0.7-1.8-0.3-1.9-2
	c-0.3-4.2,2.1-10.6,1.9-15.1c0-0.1,0-0.2,0-0.3c-0.3-4-3.9-7.7-4.3-9.3c-0.2-0.9,0.7-2.2,0.5-3.3c-0.3-1.8-2.1-3.3-2.3-4.9
	c-0.7-5,7.5-22.3,8.7-29.1c0.6-3.7-0.2-7.2,0.8-11.1c0.2-0.8,4.3-6.5,4.9-6.9c5.4-3.6,16-3.7,22.1-6.8c2.8,0.6-0.6,9.6-0.5,12.2
	c0.1,1.3,1.4,5.2,2.1,6.2c0.9,1.4,9.7,10,11.1,10.7c4.7,2.3,10.4,3.1,15.7,6c3.9,2.1,10.6,8.6,13.5,9.2c3,0.6,8.4-0.8,12.1-0.3
	c6,0.9,10.5,4.5,16.7,5c5.4,0.4,18.8-0.4,24.4-1.1c15.1-1.6,31.7-16,45.3-22.8c6.7-3.3,14.5-5.6,21.5-8.5c3.5-7.8-7.6-10-13.2-11.3
	c-2.1-0.5-4.6,0.3-7-0.3c-3.2-0.8-9.2-4.9-12.3-5.9c-12.7-4-20.6-6.9-32.8-11.6c-4.6-1.8-9.2-3.1-13.7-4.1
	c-17.4-3.7-34.5-1.6-51.6,6c-4.2,1.8-9.3,7.4-14.9,6.7c-7.7-0.9-7.6-3.5-17.7-1.2c-5.6,1.2-11,2.2-16.7,3.3
	c-3.1,0.6-7.4,3.3-10.2,4.9l-2.1-0.8c-2.3-3,1.1-15.1,3.4-17.5c1-1,3.2-1.3,4.6-2.7c13.3-13.3,26.2-32,41.2-43.2
	c4.8-3.5,21.9-9,24-13.2c2-3.9-4.9,1-5.2,1.1c-2,0.7-4.6,0.5-6.8,1.4c-2.8,1.2-13.3,8.8-15.2,7c-0.4-1.8,0.4-2.4,1.3-3.7
	c2.8-3.7,16.2-8.9,21.1-11.6c3.3-1.8,4.5-4.8,9.1-5.4c1.2-0.2,9.8,0.1,7.5,2.5c-2.7,1.2-11.2,4.6-9.5,8.2c4.8-2.4,10-7.6,14.7-9.8
	c0.3-0.1,0.6-0.3,0.9-0.4c0.3-0.1,0.6-0.3,0.9-0.4c0.3-0.1,0.6-0.2,0.9-0.3c0.5-0.2,1.1-0.3,1.7-0.5c0.3-0.1,0.5-0.1,0.8-0.2
	c0.5-0.1,0.9-0.2,1.4-0.3c0.8-0.2,1.7-0.3,2.6-0.4c0.5-0.1,1-0.1,1.5-0.2l0.5,0c0.7-0.1,1.3-0.1,2-0.1c0.6,0,1.2,0,1.8-0.1
	c0.1,0,0.2,0,0.3,0c2.5,0,5.1,0.1,7.6,0.2c10.3,0.6,21,2.2,29.5,0.5c14.7,0.8,30.5-1,44.5,2.8l1.7-1.9c2.3-0.3,4.9,2.5,6.5,2.7
	c1.1,0.1,2.4-1.6,4.4-1.7c3.1-0.2,6.7,2,10,2c2.9,0,4.5-1.6,7.2-1.9c0.6-0.1,1.3-0.2,2-0.2l5.4,6.3c-0.7-0.3-1.5-0.5-2.4-0.6
	c-0.6,0.6,3,6.2,3.6,6.7c1.2,1,2.7,0.5,2.8,0.6c0.4,0.4-0.8,2.8-0.6,3.9c0.1,1,1.5,1.9,1.6,3.8c0.2,2.9-1.9,7.1-1,10.4l2.7-1.8
	c0,5.7,0.7,11.2,1,16.8c0.2,4.5-2.1,7.4,1.7,10.9l-3.6,2.8c-0.5,1.8,1.9,3.1,1.7,4.3c-0.2,0.9-2.3,1.7-2.7,3.8
	c-0.6,4,2.7,14.1,2.8,19.1c0.1,3.1-0.9,5.3-1,8.1c0,0.7,0.1,1.5,0.3,2.3c0.3,1.3,0.7,2.5,0.6,3.1c-0.4,1.6-4.7,1.8-3.5,5.1l3.6,1.4
	l-1.9,1l6.4,26.2c-2.9,17-3.6,32.5-9.7,48.4c-4,10.3,4.3,8.3,6.4,14c0.4,1.2,1.5,6.2,1.1,7.1l-5.4,2.7l-0.5,1.9l3.2,1.8
	c0.5,1-2.8,2.5,0.8,4.5l1.3-2.7c-0.3,1.9,2.6,2.6,2.8,3.3c0.2,0.7-0.8,4.7-1,4.8c-0.8,0.6-3.2-1.6-4.1,0l-0.5,4.1l2.8,0.5l-0.9,5.5
	c8.4-1.7,3.8,5.1,5.4,10C576.2,248.9,572.9,246.5,571.6,249.5z M374.7,108L374.7,108L374.7,108c0-0.1,0-0.1,0-0.1
	c0-0.2,0.1-0.4,0.1-0.6c0-0.2,0.1-0.5,0.1-0.7c0.1-0.3,0.2-0.6,0.2-0.9c0-0.1,0.1-0.3,0.1-0.4c0.4-1.5,1-3.3,1.6-4.9
	c0.1-0.2,0.1-0.4,0.2-0.6c0-0.1,0.1-0.2,0.1-0.3c0-0.1,0.1-0.2,0.1-0.3c0.1-0.2,0.1-0.3,0.2-0.5c0,0,0,0,0,0c0.1-0.3,0.3-0.7,0.4-1
	c0.1-0.2,0.1-0.3,0.2-0.4c0.2-0.4,0.3-0.7,0.4-1c0.1-0.2,0.2-0.3,0.2-0.5c0.1-0.1,0.1-0.2,0.1-0.3c0.1-0.2,0.2-0.3,0.3-0.4
	c0-0.1,0.1-0.1,0.1-0.1c0,0,0.1-0.1,0.1-0.1c3.8-0.9,11.3,5.2,13.4,8.3c1,1.4,1.1,5.3,2.7,4.5c1.9-0.9,1.6-4,1.1-5.7
	c-0.1-0.2-0.1-0.4-0.2-0.5c-0.1-0.2-0.1-0.3-0.2-0.5c-0.1-0.2-0.2-0.4-0.3-0.6c-0.1-0.1-0.2-0.3-0.3-0.4c-0.1-0.1-0.2-0.3-0.4-0.4
	c-0.5-0.5-1.1-0.9-1.6-1.4c-0.1-0.1-0.3-0.2-0.4-0.4c-0.1-0.1-0.2-0.3-0.3-0.4c-0.1-0.1-0.2-0.3-0.3-0.4c-0.1-0.1-0.1-0.2-0.2-0.4v0
	c-0.1-0.1-0.1-0.3-0.1-0.4c0.1-0.1,0.2-0.3,0.3-0.4c0.1-0.1,0.1-0.1,0.2-0.2c0.1-0.1,0.2-0.2,0.3-0.2c0.1-0.1,0.2-0.2,0.4-0.3
	c0,0,0,0,0.1-0.1c0.1-0.1,0.2-0.1,0.3-0.2c0.1-0.1,0.2-0.1,0.3-0.2h0c0.2-0.1,0.4-0.3,0.7-0.4c0.1-0.1,0.3-0.2,0.4-0.2
	c0.2-0.1,0.4-0.2,0.7-0.3c0.2-0.1,0.3-0.2,0.5-0.3c0.3-0.2,0.6-0.3,1-0.4c0.2-0.1,0.4-0.2,0.6-0.3c0.2-0.1,0.5-0.2,0.7-0.3
	c0.2-0.1,0.4-0.1,0.5-0.2c0.5-0.2,0.9-0.4,1.3-0.5c0.1,0,0.2-0.1,0.3-0.1c0.5-0.2,0.9-0.3,1.2-0.3c0.1,0,0.2,0,0.3,0
	c0.1,0,0.2,0,0.3,0c0.1,0,0.1,0,0.2,0c0.2,0,0.3,0.1,0.5,0.1c0.2,0.1,0.3,0.1,0.5,0.3h0c0.1,0.1,0.3,0.2,0.4,0.3
	c0.1,0.1,0.3,0.3,0.4,0.4c0.1,0.1,0.1,0.2,0.2,0.3c0.2,0.3,0.3,0.6,0.4,1c0,0.1,0.1,0.3,0.1,0.4c0.1,0.2,0.1,0.4,0.2,0.7
	c0.1,0.2,0.1,0.4,0.2,0.7c0,0.2,0.1,0.3,0.1,0.5c0.1,0.2,0.1,0.4,0.2,0.7c0,0.2,0.1,0.4,0.1,0.5c0,0.1,0.1,0.2,0.1,0.3
	c0,0.2,0.1,0.3,0.1,0.4c0.1,0.1,0.1,0.3,0.2,0.4c2,4,9,13.8,6.5,18.1c-0.8,1.3-7.7,3.9-8.2,6.6c-0.6,2.5,5.1,2.2,6.9,1.4
	c0.1,0,0.1-0.1,0.2-0.1c0.1,0,0.1-0.1,0.2-0.1c0.2-0.1,0.3-0.2,0.4-0.3c0.1-0.1,0.2-0.2,0.2-0.3c0.1-0.1,0.2-0.3,0.3-0.4
	c0.1-0.1,0.1-0.2,0.2-0.3c0-0.1,0.1-0.1,0.1-0.1v0c0.1-0.1,0.1-0.2,0.2-0.3c0.1-0.2,0.2-0.3,0.2-0.5c0,0,0,0,0,0
	c0-0.1,0.1-0.3,0.1-0.4c0-0.1,0.1-0.3,0.1-0.4c0-0.1,0.1-0.3,0.1-0.4c0-0.1,0.1-0.2,0.1-0.3c0.1-0.4,0.2-0.7,0.4-1.1
	c0-0.1,0.1-0.2,0.1-0.3c0-0.1,0.1-0.2,0.1-0.3c0-0.1,0.1-0.1,0.1-0.2c0.1-0.2,0.2-0.4,0.3-0.6c0-0.1,0.1-0.1,0.1-0.1
	c0,0,0.1-0.1,0.1-0.1c0.3-0.3,0.6-0.6,0.9-0.8c0.1,0,0.2-0.1,0.3-0.1c0.1,0,0.2-0.1,0.3-0.1c0,0,0.1,0,0.1,0c0,0,0.1,0,0.1,0
	c0.3-0.1,0.8-0.1,1.2-0.1c1.9,0.2,5.1,4.6,7.8,5.9c12.4,5.6,29.4-0.1,42.1,5.2c3.6-1.9,7.9-0.7,11.3-3.3c0.1,0,0.1-0.1,0.2-0.1
	c0.2-0.2,0.4-0.4,0.7-0.8c0.1-0.1,0.2-0.2,0.3-0.3c0.2-0.2,0.4-0.5,0.6-0.8c0.3-0.4,0.7-0.9,1-1.5c0.4-0.5,0.7-1.1,1.1-1.7
	c0.4-0.7,0.9-1.4,1.3-2.1l0.4-0.7c0.8-1.3,1.5-2.5,2-3.6c0.1-0.2,0.2-0.3,0.3-0.5c0.3-0.6,0.5-1.1,0.7-1.5c0.1-0.2,0.1-0.3,0.2-0.5
	c0.1-0.2,0.1-0.4,0.2-0.6c0.2-1.3,0.3-2.5,0.2-3.5c0-0.1,0-0.3,0-0.4c0-0.3,0-0.7-0.1-1c0-0.1,0-0.3-0.1-0.4
	c-0.1-0.7-0.3-1.3-0.6-1.9c-0.1-0.3-0.3-0.6-0.4-0.9c0,0,0,0,0-0.1c0-0.1-0.1-0.2-0.2-0.3c0,0,0-0.1-0.1-0.1c0-0.1-0.1-0.1-0.1-0.2
	c-0.1-0.1-0.2-0.3-0.3-0.5c-0.2-0.4-0.4-0.7-0.7-1.1c-0.4-0.6-0.8-1.2-1.3-1.9l14.7,3l17,6.1l-14.8,6.5
	c-11.5,6.6-26.5,19.2-40.1,20.8c-7.8,0.9-12-0.9-21.7,0.9c-4.1,0.8-18.9-4.4-24.5-5.3c-13.1-2.3-9.1-2.7-19.3-8
	c-7.6-3.9-16.2-3.7-21.6-12.1c0-0.1,0-0.1-0.1-0.2c0,0,0,0,0,0c0-0.1,0-0.1,0-0.2c0-0.2,0-0.4,0-0.7c0-0.1,0-0.2,0-0.3
	c0,0,0-0.1,0-0.1C374.7,108,374.7,108,374.7,108C374.7,108,374.7,108,374.7,108z M471.5,98.9c-0.1,0.1-0.2,0.3-0.2,0.4
	c-0.1,0.1-0.1,0.3-0.2,0.5c-0.1,0.2-0.1,0.4-0.2,0.6c0,0.1-0.1,0.2-0.1,0.3c-0.1,0.2-0.1,0.5-0.2,0.7c-0.1,0.4-0.3,0.8-0.5,1.2
	c-0.1,0.2-0.3,0.5-0.4,0.7c-0.2,0.3-0.4,0.5-0.6,0.8c-1,1.1-15,11.9-15.9,12.2c-2.7,0.9-11.1,1.5-12.6-1.3l17.9-5.7
	c1.1-4.2,3.9-2.2,4.6-2.6c0.1-0.1,0.2-0.1,0.3-0.2c0.1-0.1,0.2-0.2,0.3-0.3c0.1-0.1,0.3-0.3,0.4-0.4c0.1-0.1,0.2-0.3,0.3-0.4
	c0.1-0.1,0.1-0.3,0.2-0.4c0.1-0.2,0.2-0.5,0.3-0.7c0.1-0.1,0.1-0.2,0.1-0.3c0.1-0.2,0.1-0.3,0.2-0.5c0.1-0.3,0.2-0.6,0.2-0.9
	c0.1-0.3,0.1-0.6,0.2-0.9c0-0.2,0.1-0.4,0.1-0.6c0-0.2,0.1-0.5,0.1-0.7c0-0.3,0-0.7,0-1c0-1.8-0.4-3.5-1.2-4.4
	c-0.6-0.6-2.4-1-3.3-1.9c-1.6-1.4-7.4-6.1-9.2-6.3c-3.1-0.3-6,1.2-9.1,1.1c-4.4-0.1-7-2.9-12.6-1.9c-0.6,0.1-7.8,3.3-8.9,3.8
	c-3.6,1.8-8.2,7.9-10.7-0.6c0.1-0.8,10.2-5.1,11.9-5.5c13.3-3.6,38.6,1.1,50.5,8.4c2.1,1.3,4.3,3.1,1.9,5.4
	C473.9,98.3,472.2,98.1,471.5,98.9z M473.1,111.4c0,6-4,9.4-10,8.2c1.8-1.8,4.2-2.8,6-4.8C470.8,113,469.4,110.5,473.1,111.4z"/>
<path style="fill:#76C372;" d="M346.7,264.9c0,0.1,0,0.2,0,0.3c0,0.1,0,0.2,0,0.2c0,0.1-0.1,0.2-0.1,0.3c-0.1,0.1-0.1,0.1-0.2,0.2
	c-0.3,0.2-1,0-2-0.5c-0.1-0.1-0.2-0.1-0.3-0.2l-0.2-0.2c0,0-0.1-0.1-0.1-0.1c-0.1-0.1-0.2-0.2-0.3-0.3c-0.1-0.1-0.1-0.2-0.2-0.3
	c-0.1-0.1-0.1-0.2-0.2-0.3c-0.1-0.1-0.1-0.2-0.2-0.3h0c0-0.1-0.1-0.1-0.1-0.2c-0.1-0.1-0.1-0.3-0.2-0.4c0,0,0-0.1,0-0.1h0
	c-0.1-0.1-0.1-0.2-0.2-0.3c-0.1-0.1-0.1-0.2-0.2-0.3h0c-0.1-0.1-0.1-0.2-0.2-0.4c-0.1-0.1-0.1-0.2-0.2-0.3h0
	c-0.1-0.1-0.1-0.2-0.2-0.4c-0.1-0.1-0.2-0.2-0.2-0.3c-0.1-0.1-0.2-0.2-0.3-0.4c0-0.1-0.1-0.1-0.1-0.2c0,0-0.1-0.1-0.1-0.1
	c0,0,0,0,0-0.1c-0.1-0.1-0.2-0.2-0.3-0.3h0c-0.1-0.1-0.2-0.2-0.3-0.3c-0.2-0.2-0.4-0.4-0.6-0.6c-0.2-0.2-0.3-0.3-0.5-0.4
	c-0.2-0.1-0.3-0.3-0.5-0.4c-0.2-0.2-0.4-0.3-0.7-0.4c-0.2-0.1-0.3-0.1-0.5-0.2c-0.1,0-0.2-0.1-0.3-0.1c-0.1,0-0.3-0.1-0.4-0.1
	c-0.1,0-0.2,0-0.3,0c0,0-0.1,0-0.1,0c-0.1,0-0.3,0-0.4,0c-0.1,0-0.2,0-0.3,0h-0.1c-0.1,0-0.2,0-0.3,0c0,0,0,0,0,0
	c-0.3,0-0.5,0.1-0.8,0.2c-0.2,0.1-0.3,0.1-0.5,0.2c-0.4,0.1-0.7,0.3-1.1,0.6c-2.4,3.5,2.1,5.7,2.3,7.7c0.1,2.6-2.9,12.9,0.6,14.1
	l3.1,0.1c0-0.6,0-1.2,0-1.7c0-0.4,0-0.9,0.1-1.3c0-0.3,0.1-0.7,0.1-1c0-0.3,0.1-0.5,0.1-0.7c0-0.1,0-0.2,0.1-0.3
	c0.1-0.3,0.1-0.6,0.2-0.8c0-0.1,0.1-0.3,0.1-0.4c0.1-0.3,0.2-0.6,0.4-0.9c0-0.1,0.1-0.2,0.1-0.3c0.2-0.4,0.5-0.9,0.8-1.3
	c0.1-0.1,0.1-0.2,0.2-0.3c0.1-0.1,0.2-0.3,0.3-0.4v0h0c0.1-0.2,0.3-0.3,0.5-0.5c0.1,0.1,0.1,0.1,0.2,0.2c0,0,0,0,0.1,0.1l0.2,0.3
	c0.2,0.2,0.3,0.4,0.5,0.5c0.1,0.2,0.3,0.3,0.4,0.5c0,0,0,0.1,0,0.1c0.1,0.1,0.1,0.1,0.2,0.2c0.1,0.1,0.1,0.2,0.2,0.3
	c0,0,0.1,0.1,0.1,0.1c0.1,0.2,0.3,0.4,0.4,0.6c0.2,0.3,0.4,0.6,0.5,1c0.1,0.2,0.2,0.3,0.2,0.5c0.1,0.2,0.1,0.3,0.2,0.5
	c0.1,0.3,0.3,0.6,0.3,1c0,0.1,0.1,0.3,0.1,0.4c0.1,0.2,0.1,0.4,0.2,0.6c0,0.2,0.1,0.3,0.1,0.5c0,0.1,0,0.2,0,0.2c0,0.1,0,0.1,0,0.1
	c0.1,0.4,0.1,0.8,0.1,1.2c0,0.1,0,0.3,0,0.4c0,0.5,0,1,0,1.5c0,0.1,0,0.2,0,0.3c0,0,0,0,0,0.1c0,0,0,0,0,0s0,0,0,0
	c0,0.2-0.1,0.5-0.1,0.7c0,0.1,0,0.1,0,0.1c0,0.1,0,0.2,0,0.3c0,0.1,0,0.1,0,0.2c-0.1,0.3-0.1,0.5-0.2,0.8c0,0,0,0,0,0.1
	c0,0.1-0.1,0.2-0.1,0.3c-0.1,0.4-0.2,0.8-0.3,1.2c-0.7,0.2-1.2,0-1.6-0.3c-0.1-0.1-0.2-0.2-0.3-0.3c0,0,0,0-0.1-0.1
	c-0.1-0.1-0.3-0.3-0.4-0.4c-0.2-0.2-0.3-0.4-0.5-0.5c-0.1-0.1-0.1-0.1-0.2-0.2c-0.1-0.1-0.2-0.1-0.2-0.2c0,0,0,0-0.1-0.1
	c0,0-0.1,0-0.1,0c-0.1-0.1-0.3-0.2-0.4-0.2c-0.1,0-0.2-0.1-0.3-0.1c-0.3,0-0.5-0.1-0.7-0.1c-0.1,0-0.2,0-0.4,0c-0.1,0-0.2,0-0.3,0
	c-0.2,0-0.3,0.1-0.4,0.1c-0.1,0-0.3,0.1-0.4,0.1c0,0,0,0,0,0c-0.1,0.1-0.3,0.2-0.4,0.3c-0.1,0.1-0.1,0.1-0.2,0.2
	c-0.1,0.2-0.2,0.3-0.3,0.5c-0.1,0.1-0.1,0.2-0.1,0.3c-0.1,0.1-0.1,0.2-0.1,0.3c-0.1,0.2-0.1,0.3-0.1,0.5c0,0,0,0,0,0
	c0,0.2-0.1,0.4-0.1,0.6c0,0.2-0.1,0.3-0.1,0.5v0.1c0,0.2,0,0.3-0.1,0.5c0,0.4-0.1,0.8-0.1,1.2c0,0.2-0.1,0.4-0.1,0.6
	c0,0.2-0.1,0.4-0.1,0.6c-0.1,0.2-0.1,0.4-0.2,0.5l-0.9,0.1c-0.1,0-0.2,0-0.3-0.1c-0.2-0.1-0.3-0.1-0.5-0.2c-0.2-0.1-0.4-0.2-0.5-0.3
	c-0.1-0.1-0.2-0.1-0.3-0.2c-0.6-0.4-1.2-0.8-1.9-1.3c-0.2-0.2-0.5-0.4-0.7-0.6c-0.8-0.7-1.6-1.4-2.3-2c-0.1-0.1-0.2-0.2-0.3-0.3
	c-0.8-0.7-1.5-1.2-1.9-1.3c-4.6-1.4-15.7,0.5-19.3,3.9l17.2-108c-1.2,13.5,1.6,26.4,5.9,38.6c1.1,3.1,2.3,6.1,3.7,9.1l2.2-0.1
	c0.8,2.3-2.5,2.2-2.8,3.4c-0.4,2.2,2.6,11.8,3.8,14.3c3.8,7.5,5.4,7,7.2,16.4c0,0.2,0.3,0.8,0.6,1.5c0,0.1,0.1,0.2,0.1,0.3
	c0.2,0.5,0.4,1.1,0.5,1.6c0,0.1,0.1,0.2,0.1,0.3c0,0.1,0,0.1,0,0.2v0C346.7,264.7,346.7,264.8,346.7,264.9z"/>
<path style="fill:#F3D65B;" d="M325.3,179.1l-17.2,108c-3.2,2.9-2.9,7.1-5,10.4c-0.1,0-0.3-0.1-0.4-0.3c0,0,0-0.1,0-0.1
	c0,0,0-0.1-0.1-0.1c0,0-0.1-0.1-0.1-0.1c0,0,0,0,0-0.1c0-0.1-0.1-0.1-0.1-0.2c0-0.1-0.1-0.2-0.1-0.4c0,0,0-0.1,0-0.1
	c-0.1-0.2-0.1-0.4-0.2-0.6c0-0.1,0-0.1-0.1-0.2c-0.1-0.5-0.3-1-0.4-1.6c0-0.1-0.1-0.3-0.1-0.4c0-0.1-0.1-0.3-0.1-0.4
	c0-0.2-0.1-0.5-0.1-0.7c0-0.3-0.1-0.5-0.1-0.7c0-0.1,0-0.2-0.1-0.3c0-0.1,0-0.2,0-0.3c0-0.1,0-0.2-0.1-0.3c-0.1-0.7-0.2-1.3-0.2-1.6
	c-0.1-1.4-0.2-2.9-0.3-4.3c-0.1-1.3-0.1-2.6-0.2-3.9v-0.1c0-0.2,0-0.5,0-0.7c0-0.6,0-1.1,0-1.7c0-0.5,0-1.1,0-1.6c0-0.4,0-0.8,0-1.2
	v-0.3c0-1.8,0-3.7,0-5.5c0-0.7,0-1.4,0-2.1c0-0.6,0-1.3,0-1.9c0-0.8,0-1.7,0.1-2.5c0-1.5,0.1-3,0.2-4.4c0.1-1.4,0.1-2.9,0.2-4.3
	c0-0.9,0.1-1.8,0.1-2.6c0.1-1.1,0.1-2.1,0.2-3.2c0.2-4,0.5-8.1,0.8-12.2c0.2-2.9-0.9-7.2-0.7-9c0-0.2,0.1-0.4,0.2-0.6
	c0-0.1,0.1-0.2,0.1-0.3c0.1-0.1,0.1-0.2,0.2-0.3c0.1-0.1,0.1-0.2,0.2-0.3c0.1-0.1,0.2-0.3,0.3-0.5c0.1-0.2,0.2-0.3,0.3-0.5
	c0.1-0.2,0.3-0.5,0.4-0.7c0.1-0.1,0.1-0.3,0.2-0.4c0-0.1,0.1-0.2,0.1-0.3c0,0,0-0.1,0.1-0.1c0-0.1,0.1-0.1,0.1-0.2
	c0-0.1,0.1-0.2,0.1-0.3c0,0,0,0,0-0.1c0-0.1,0.1-0.2,0.1-0.3c0,0,0,0,0-0.1c0-0.1,0.1-0.3,0.1-0.4c0-0.1,0-0.3,0-0.5
	c0.4-9.4-0.8-17.6,0-28.1c0.3-4-0.1-7.2,0.1-10.3c0.2-2.7,0.8-5.4,2.7-8.7c2-3.4,10.2-13.7,14.2-9.3
	C323,167.9,322.9,175.8,325.3,179.1z"/>
<path style="fill:#76C372;" d="M460.9,486.5c-1.8,3.9,3.7,3.6,3.2,5.9L396,477.8c1.2-1.4,2.3-2.7,3.1-3.7c0.5-0.6,0.9-1.1,1-1.3
	c6.7-9.7-0.4-8.3-5.2-11.8c-2.3-1.7-3.7-5.3-7.6-6c-4.4-0.8-7.2,5.7-12.7,2.4c-1.5-4.4-2.4-11-4.5-15c-5.1-9.9-22.3-10-31.4-6.6
	l-2.3-8.7c-4.1-1.5-9.3-1.4-13.2-3.1c-2.1-0.9-3.5-3.1-5.6-3.5c-3.5-0.8-6.1,1.5-9.3,0.3c-2.2-2.3,2.3-0.7,1.8-4.6
	c-0.1-0.4-1.7-0.4-2.1-1.5c-1-2.4-0.8-6.3-0.1-9.2l0.5-1.7l1.5-1.8c1.8-1,4.5-0.7,6.3-1.4c2.6-1.1,9.2-6.3,9.9-6.5
	c1.7-0.4,2.8,1.5,4.4,1.8c4.8,0.8,6.6-5.8,9.9-8.2c2.4,1.7,0.5,1.6,0.1,2.8c-1.7,4.5-9.2,11.9-7.3,16.3c2.1,5,9.1,1.5,9.5,1.9
	c0.3,0.2,0.9,4,3.2,5.5c1.3,0.9,3,0.7,4,1.4c6.1,3.8,6.5,7,13.7-0.1c2.5-2.4,6.6-8.8,8.9-12c1.2-1.7,7-11.2,7.9-11.2
	c1,0,1.4,1.8,1.2,3c-0.1,0.6-2.4,8.5-2.6,9c-0.6,1.4-2.9,1.2-3.4,3.1c-0.5,1.6-1.3,10.9-0.6,12.1c1.7,2.9,8,2.5,9.3,3.8
	c2.2,2.2,0.9,8.8,7.6,12c8.2,3.8,14.3-3.6,16.5-3c2,0.5,5.1,5.9,10.6,3.5c-0.7,8.1,10.5,11.9,10,0.9l6.3,1.8c0.6-3-2.9-1.2-4.1-3.6
	c-2.3-4.7,0.6-4.8,1.7-6.5l33.7,53.7c-0.5,0.4-1.3,1-2.1,1.6C462.8,484.6,461.2,485.8,460.9,486.5z"/>
<path style="fill:#D287BA;" d="M547.9,330.1c-0.1,1.5-0.1,3.1-0.5,4.1c-0.8,2.1-4.8,0.5-0.7,6.5c-3.4,1.1-2.2,3.2-3.2,5
	c-1.6,2.6-3.4,4-5,7.8c-0.6,1.3,0.1,3,0,3.1c-0.4,0.3-1.9,0.1-2.6,0.6c-2.9,2.1-5.7,12.2-7.1,15.6c-1.7,4.1-6.8,6.6,1.5,10.3
	l0.1,1.2c-1.2,1.7-1.5,4.3-2.4,5.9c-2.4,4.4-6.1,9.2-8.2,13.1c-2,3.7-5.1,7.2-3,11.5c-4.9-1-3.7,2.3-4.8,3.4
	c-0.4,0.4-1.9-0.1-2.5,0.8c-1.8,2.2-0.6,6.3-4.5,10.8c-4.5,5.3-12.1,12.8-15.8,18.7c-5.3,8.3-9.5,17.7-15.3,25.5
	c-1.4,1.9-2.9,3.6-4.5,5.3l-3,2.8l-33.7-53.7c3-4.7,3.5-4.7,6.4-8.1c0.5-0.6,4-9.5,4.1-10.6c0.1-3-4.6-5.3-6.8-5.4
	c-0.5,0-1.3,1.1-2.3,1c-3.3-0.4-6.1-2.1-7.6-5l-0.9,1.8c-2.5,0.8-2.1-1.7-2.9-1.8c-1.4-0.3-2.8,0-4.2,0.3c-3.4,0.7-2.4,1.7-2.1,3
	c0.1,0.5,0.2,1.1-0.3,1.8l-5.6,2.8l-0.3,5.8c-5.9,1.1-5.5,6.6-10.5,7.3c-0.8-0.9,7.3-19,6.2-23c-1.7-6.2-9.7-1-11.2-3.3
	c-0.8-1.2-0.2-4-0.6-5.7c-0.2-1.1-1.3-2.1-1.5-3.1c-0.3-1.4,0.7-2.4,0.8-3.4c0-0.4-4.8-4.5-6.1-4.9c-7.2-1.8-3.4,2.1-6.1,4.4
	c-1.9,0.5-3.5,2.1-5.1,3.5c-1.9,1.6-3.7,2.8-6.3,1.9c-0.2-0.8-0.1-1.4,0.3-2c0.5-1,1.3-1.8,1.3-2.8c0-3.7-3.9-4.6-4.2-5.7
	c-0.4-1.8,2-6.4-0.1-9.7l96.1-31.6L547.9,330.1z"/>
<path style="fill:#F3D65B;" d="M493.9,241.3l-28.3,86.8l-2.5,7.6l-6.4-4.1l-99.6-63.3h0c-0.7-4.6-1.1-9.2-0.9-13.9
	c-2.7-2.4-1.6-7.1-2.2-10.4c-0.7-3.6-6.3-5.9-5.1-10.3c0.2-0.7,1.5-0.6,1.6-0.8c0.7-1.4-1.7-3.5-1.6-5.3c-1.5-1.1-5.2,4.5-6.3,1.3
	c-0.9-2.5,4.2-1.3,4.4-1.5c1-2.3,1.4-5,1-7.5c-0.9-4.8-4.3-9.4-5.1-13.2c-0.8-3.8-1-10-2.3-14c-0.4-1.2-2.3-1.1-2.6-2.1
	c-0.6-2.3,0.6-6.2,0-8.7c-0.2-0.7-1.8-0.3-1.9-2c-0.3-4.2,2.1-10.6,1.9-15.1l0,0l0.3,0l79.8,86l45.1-46.3L493.9,241.3z"/>
<path style="fill:#E15E5A;" d="M463.2,335.6L367,367.3c-0.4-0.6-0.9-1.1-1.6-1.6c-3.6-2.5-5.9-0.6-8.9-0.8c-1.7-0.1-2.7-1.3-3.6-1.5
	c-7.5-0.8-20.6-1.6-27.7,0.9c-3.2,1.1-4.9,5.5-8.6,5.9c-2-1.4-0.8-1.4-0.6-2.4c0.4-1.8,1.4-2.8,1.1-5.4c0-0.1,0-0.2-0.1-0.3
	c0-0.1-0.1-0.2-0.1-0.4c0-0.1,0-0.2-0.1-0.2c0-0.1-0.1-0.3-0.1-0.4c0,0,0-0.1,0-0.1c-0.1-0.4-0.2-0.8-0.4-1.3c0,0,0-0.1,0-0.1
	c-0.1-0.3-0.2-0.7-0.3-1c-0.1-0.3-0.2-0.7-0.3-1c-0.1-0.3-0.2-0.6-0.3-0.9c-0.1-0.2-0.2-0.5-0.2-0.7c0-0.1-0.1-0.2-0.1-0.2
	c-0.2-0.5-0.3-0.9-0.3-1c-0.9-1.9-5.6-3.3-7.2-5.5c0-0.1-0.1-0.1-0.1-0.2c-0.2-0.4-0.6-1.1-1.1-2c-0.2-0.3-0.3-0.6-0.5-1
	c-0.2-0.4-0.5-0.9-0.7-1.4c-0.2-0.3-0.4-0.7-0.6-1c-0.1-0.2-0.2-0.4-0.3-0.5v0c-1.8-3.4-3.5-6.9-3.8-7.6c-0.8-2.6-1.2-10.6,1.2-12.1
	c3.6-2.4,16.1,4.5,24.1-3.1c2.5-2.4,3-6,4.5-8.1c1.1-1.5,5.6-3.4,5.8-4.4c0.6-2.4-0.4-7-0.1-9.8c0.3-2.4,2.3-4.1,1.9-6.8
	c4.9-1.2,4.2,3.2,6.4,4.9c6.5,5.1,8.3-4.6,9.5-4.9l5.4,2.7l3-2.4c-1.9-7.7-4-15.4-5.2-23.2l99.6,63.3L463.2,335.6z"/>
<polygon style="fill:#D287BA;" points="501,215.5 493.9,241.3 463.2,204.7 418,250.9 338.3,164.9 475.8,192.3 "/>
<path style="fill:#E15E5A;" d="M530.3,110L501,215.5l-25.2-23.2l-137.5-27.4l-0.3-0.3c0,0.1,0,0.2,0,0.2c0-0.1,0-0.2,0-0.3
	c-0.3-4-3.9-7.7-4.3-9.3c-0.2-0.9,0.7-2.2,0.5-3.3c-0.3-1.8-2.1-3.3-2.3-4.9c-0.7-5,7.5-22.3,8.7-29.1c0.6-3.7-0.2-7.2,0.8-11.1
	c0.2-0.8,4.3-6.5,4.9-6.9c5.4-3.6,16-3.7,22.1-6.8c2.8,0.6-0.6,9.6-0.5,12.2c0.1,1.3,1.4,5.2,2.1,6.2c0.9,1.4,9.7,10,11.1,10.7
	c4.7,2.3,10.4,3.1,15.7,6c3.9,2.1,10.6,8.6,13.5,9.2c3,0.6,8.4-0.8,12.1-0.3c6,0.9,10.5,4.5,16.7,5c5.4,0.4,18.8-0.4,24.4-1.1
	c15.1-1.6,31.7-16,45.3-22.8C515.5,115.2,523.3,112.9,530.3,110z"/>
<path style="fill:#FFFFFF;" d="M338.1,165.6c0-0.2,0-0.4-0.1-0.8C338,165.2,338.1,165.4,338.1,165.6z"/>
<path style="fill:#D287BA;" d="M570.2,95.5c0.1,3.1-0.9,5.3-1,8.1c0,0.7,0.1,1.5,0.3,2.3l-39.2,4.1c3.5-7.8-7.6-10-13.2-11.3
	c-2.1-0.5-4.6,0.3-7-0.3c-3.2-0.8-9.2-4.9-12.3-5.9c-12.7-4-20.6-6.9-32.8-11.6c-4.6-1.8-9.2-3.1-13.7-4.1l-14.4-62.9l6.7-7.8
	c2.5,0,5.1,0.1,7.6,0.2c10.3,0.6,21,2.2,29.5,0.5c14.7,0.8,30.5-1,44.5,2.8l1.7-1.9c2.3-0.3,4.9,2.5,6.5,2.7
	c1.1,0.1,2.4-1.6,4.4-1.7c3.1-0.2,6.7,2,10,2c2.9,0,4.5-1.6,7.2-1.9c0.6-0.1,1.3-0.2,2-0.2l5.4,6.3c-0.7-0.3-1.5-0.5-2.4-0.6
	c-0.6,0.6,3,6.2,3.6,6.7c1.2,1,2.7,0.5,2.8,0.6c0.4,0.4-0.8,2.8-0.6,3.9c0.1,1,1.5,1.9,1.6,3.8c0.2,2.9-1.9,7.1-1,10.4l2.7-1.8
	c0,5.7,0.7,11.2,1,16.8c0.2,4.5-2.1,7.4,1.7,10.9l-3.6,2.8c-0.5,1.8,1.9,3.1,1.7,4.3c-0.2,0.9-2.3,1.7-2.7,3.8
	C566.8,80.4,570.1,90.5,570.2,95.5z"/>
<path style="fill:#76C372;" d="M408.4,0c-7,7-15.6,11.6-21.6,14.1c-4.6,3.6-8.7,7.8-13.3,11.5c-0.8,0.7-1.2,2.2-1.9,2.6
	c-2.7,1.7-5.9-1-8.4-0.3c-3.3,0.9-11.1,12.1-13.8,15.3c-3.8,4.5-10.1,8.7-11.7,14.7c-0.8,2.8,0.5,4.2,0.2,6.4c0,0.1-0.1,0.3-0.1,0.4
	c0,0.1,0,0.2-0.1,0.3c0,0,0,0.1,0,0.1l0,0l0,0c0,0.1,0,0.2-0.1,0.3c-0.1,0.4-0.2,0.8-0.3,1.1c-0.1,0.2-0.1,0.5-0.2,0.7
	c-0.2,0.8-0.5,1.5-0.8,2.3c-0.2,0.4-0.3,0.9-0.5,1.3c-0.4,0.9-0.7,1.8-1.1,2.7v0c0,0,0,0,0,0c-0.2,0.4-0.4,0.9-0.6,1.4
	c-0.1,0.2-0.2,0.5-0.3,0.7c-0.1,0.3-0.2,0.6-0.4,0.9c-0.1,0.2-0.1,0.4-0.2,0.5c-0.1,0.4-0.3,0.7-0.4,1.1c-0.1,0.4-0.3,0.7-0.4,1.1
	c-0.2,0.5-0.3,1-0.5,1.5c-0.1,0.3-0.1,0.5-0.2,0.8c-0.1,0.3-0.1,0.5-0.2,0.8c-0.1,0.3-0.1,0.5-0.2,0.8c-0.1,0.3-0.1,0.5-0.2,0.8
	c0,0.1,0,0.2,0,0.3c0,0.1-0.1,0.2-0.1,0.3c0,0.1,0,0.2,0,0.2c0,0.1,0,0.2-0.1,0.3c0,0,0,0.1,0,0.1c0,0.1,0,0.3-0.1,0.4
	c0,0.2-0.1,0.4-0.1,0.6c-0.1,0.4-0.1,0.8-0.1,1.1c-0.1,1.9,0,3.6,0.3,5.1c0,0,0,0,0,0c0.1,0.6,0.2,1.1,0.3,1.7
	c0.1,0.5,0.2,0.9,0.3,1.4c0.1,0.2,0.1,0.4,0.2,0.7c0.3,1.1,0.5,2.2,0.7,3.3c0,0.3,0.1,0.5,0.1,0.7c0,0.1,0,0.2,0,0.3
	c0,0.2,0,0.4,0,0.6c0,0.1,0,0.2,0,0.2c0,0.2,0,0.4,0,0.6c0,0.2,0,0.4,0,0.6c0,0.4-0.1,0.7-0.1,1.1c0,0.2-0.1,0.3-0.1,0.5
	c-0.2,1.1-0.6,2.2-1,3.3c-0.1,0.2-0.2,0.4-0.3,0.6c-0.3,0.7-0.6,1.4-1,2.1c-0.1,0.2-0.2,0.5-0.3,0.7c-0.1,0.3-0.3,0.6-0.4,0.9
	c-0.1,0.3-0.3,0.6-0.4,1c-0.1,0.3-0.3,0.7-0.4,1c-0.1,0.4-0.2,0.7-0.3,1.1c-0.1,0.3-0.1,0.6-0.2,1c0,0.3-0.1,0.5-0.1,0.8
	c0,0.3-0.1,0.5-0.1,0.8c0,0.1,0,0.2,0,0.3c0,0.4,0,0.8,0,1.2c0,0.1,0,0.2,0,0.3c0,0.3,0.1,0.7,0.1,1c0.1,0.4,0.2,0.8,0.3,1.1
	s0.3,0.7,0.5,1c0.2,0.3,0.3,0.6,0.4,0.9c0,0,0,0,0,0c0,0.1,0.1,0.1,0.1,0.2c0.1,0.3,0.2,0.5,0.2,0.7c1.3,6.5-4.2,10.9-4.4,16.2
	c-0.2,4.7,3,15,5.5,19.1c-1.1,12.3-3.5,1.4-8.9-1.2c-8-3.9-12.6,1.1-17.4,6.6c-0.1,0.1-0.2,0.3-0.3,0.4c0,0,0,0,0,0
	c0,0,0,0.1-0.1,0.1c-0.2,0.3-0.4,0.6-0.6,0.9c-0.1,0.1-0.1,0.3-0.2,0.4c-0.3,0.6-0.6,1.2-0.9,1.7c-0.2,0.2-0.3,0.5-0.5,0.7
	c-0.4,0.5-0.9,0.8-1.6,0.8c-0.9,1-1.8,2-2.6,2.9V0H408.4z"/>
<path style="fill:#76C372;" d="M328.1,120c-0.1-0.3-0.1-0.7-0.1-1h0C328,119.3,328,119.6,328.1,120z"/>
<path style="fill:#76C372;" d="M329.4,123.1c0-0.1-0.1-0.1-0.1-0.2c0,0,0,0,0,0c0,0,0,0,0,0C329.4,123,329.4,123.1,329.4,123.1z"/>
<path style="fill:#76C372;" d="M331,92.4c-0.3-1.5-0.4-3.2-0.3-5.1c0-0.4,0.1-0.8,0.1-1.1c0,0.4-0.1,0.8-0.1,1.1
	C330.7,89.2,330.8,90.9,331,92.4z"/>
<path style="fill:#76C372;" d="M331,85.1c-0.1,0.4-0.1,0.7-0.1,1.1c0-0.2,0-0.4,0.1-0.6c0-0.1,0-0.3,0.1-0.4
	C331,85.1,331,85.1,331,85.1z"/>
<path style="fill:#76C372;" d="M331.4,83.1c-0.1,0.4-0.2,0.8-0.2,1.2c0,0.1,0,0.1,0,0.2c0-0.1,0-0.2,0.1-0.3c0-0.1,0-0.2,0-0.3
	C331.3,83.6,331.3,83.3,331.4,83.1z"/>
<path style="fill:#76C372;" d="M332,80.7c-0.1,0.5-0.3,1-0.4,1.6c0.1-0.3,0.1-0.5,0.2-0.8C331.8,81.2,331.9,81,332,80.7z"/>
<path style="fill:#FFFFFF;" d="M342.3,270.6c-0.1-0.1-0.1-0.1-0.2-0.2l0,0C342.2,270.4,342.2,270.5,342.3,270.6z"/>
<path style="fill:#FFFFFF;" d="M343.6,272.2c-0.1-0.1-0.1-0.1-0.2-0.2c0,0,0,0,0-0.1c0,0,0,0.1,0.1,0.1
	C343.5,272.1,343.6,272.1,343.6,272.2z"/>
<path style="fill:#FFFFFF;" d="M344.2,273.1c-0.1-0.2-0.2-0.4-0.4-0.6c0,0,0-0.1-0.1-0.1c0,0,0.1,0.1,0.1,0.1
	C344,272.7,344.1,272.9,344.2,273.1z"/>
<path style="fill:#FFFFFF;" d="M374.7,108c0,0,0,0.1,0,0.1c0,0,0,0.1,0,0.1C374.7,108.1,374.7,108,374.7,108
	C374.7,108,374.7,108,374.7,108L374.7,108z"/>
<path style="fill:#FFFFFF;" d="M300.9,312.8c-0.1-0.1-0.2-0.3-0.3-0.4l0.1,0.1C300.7,312.6,300.8,312.7,300.9,312.8z"/>
<path style="fill:#FFFFFF;" d="M314.4,316.4c-0.2,0-0.4,0.1-0.6,0.1c-0.1,0-0.2,0-0.3,0C313.8,316.5,314.1,316.5,314.4,316.4z"/>
<path style="fill:#FFFFFF;" d="M327.9,303.3c0,0.1-0.1,0.2-0.1,0.3C327.8,303.5,327.8,303.4,327.9,303.3c0.2-0.6,0.2-1.3,0.2-1.9
	c0-0.5,0-1.1-0.1-1.6c0,0.3,0,0.6,0.1,0.8C328.1,301.5,328.1,302.4,327.9,303.3z"/>
<path style="fill:#F3D65B;" d="M451.3,76.8c-17.4-3.7-34.5-1.6-51.6,6c-4.2,1.8-9.3,7.4-14.9,6.7c-7.7-0.9-7.6-3.5-17.7-1.2
	c-5.6,1.2-11,2.2-16.7,3.3c-3.1,0.6-7.4,3.3-10.2,4.9l-2.1-0.8c-2.3-3,1.1-15.1,3.4-17.5c1-1,3.2-1.3,4.6-2.7
	c13.3-13.3,26.2-32,41.2-43.2c4.8-3.5,21.9-9,24-13.2c2-3.9-4.9,1-5.2,1.1c-2,0.7-4.6,0.5-6.8,1.4c-2.8,1.2-13.3,8.8-15.2,7
	c-0.4-1.8,0.4-2.4,1.3-3.7c2.8-3.7,16.2-8.9,21.1-11.6c3.3-1.8,4.5-4.8,9.1-5.4c1.2-0.2,9.8,0.1,7.5,2.5c-2.7,1.2-11.2,4.6-9.5,8.2
	c4.8-2.4,10-7.6,14.7-9.8c0.3-0.1,0.6-0.3,0.9-0.4c0.3-0.1,0.6-0.3,0.9-0.4c0.3-0.1,0.6-0.2,0.9-0.3c0.5-0.2,1.1-0.3,1.7-0.5
	c0.3-0.1,0.5-0.1,0.8-0.2c0.5-0.1,0.9-0.2,1.4-0.3c0.8-0.2,1.7-0.3,2.6-0.4c0.5-0.1,1-0.1,1.5-0.2l0.5,0c0.7-0.1,1.3-0.1,2-0.1
	c0.6,0,1.2,0,1.8-0.1c0.1,0,0.2,0,0.3,0l-6.7,7.8L451.3,76.8z"/>
<path style="fill:#76C372;" d="M576.5,248.5c-0.3,0.3-3.6-2.1-5,0.9c-1,1.8-0.1,4.1-0.4,5.7c-0.2,0.8-2.1,1.1-3,2.7
	c-0.8,1.6-3.5,11.2-3.2,12.7c0.3,1.9,2.4,4.3,2.6,6.6l-0.9,0.9c-1.6-1.1-4.3,3.2-4.5,4.5c-0.8,3.8,5.9-1.8,7.3,0
	c-1.6,1.1-9.7,4.9-10,6.4c-0.2,1,1.4,1.9,1.5,2.8c0.3,1.4-1,3.7-0.6,6.2c0.4,2.6,5.9,8.9-0.9,8.7c-0.8-2.5,1.5-1.6,1.7-1.9
	c0.8-1.2-0.9-4.4-3.2-0.1c-0.8,1.5,0.2,3.1-2.9,4.2c4.2,3.1-2.7,8.7-2.8,9.3c-0.3,1.4,1.1,3.2,0.8,4.3c-0.3,1.2-3,1.7-3.9,3.3
	c-0.7,1.2-0.9,2.8-1,4.3l-84.7,5.5l2.5-7.6l28.3-86.8l7.1-25.7L530.3,110l39.2-4.1c0.3,1.3,0.7,2.5,0.6,3.1
	c-0.4,1.6-4.7,1.8-3.5,5.1l3.6,1.4l-1.9,1l6.4,26.2c-2.9,17-3.6,32.5-9.7,48.4c-4,10.3,4.3,8.3,6.4,14c0.4,1.2,1.5,6.2,1.1,7.1
	l-5.4,2.7l-0.5,1.9l3.2,1.8c0.5,1-2.8,2.5,0.8,4.5l1.3-2.7c-0.3,1.9,2.6,2.6,2.8,3.3c0.2,0.7-0.8,4.7-1,4.8c-0.8,0.6-3.2-1.6-4.1,0
	l-0.5,4.1l2.8,0.5l-0.9,5.5C579.5,236.8,574.9,243.7,576.5,248.5z"/>
<path style="fill:#F3D65B;" d="M464,492.4c-1.9,1.2-2.2,3.5-3.2,5c-0.7,1-2.3,1.3-2.7,1.9c-0.8,1.2,0.9,3.1,0.5,3.6
	c-0.3,0.4-4.3,0.6-5.2,1.2c-0.5,0.3-7.5,7.6-8.4,8.6c-2,2.2-4.3,9.2-5.7,10c-3.2,1.8-3.2-0.2-7.6,4.2c-4,4.1-10.8,12.4-13.5,17.8
	c-0.7,1.5-0.6,6-2,6.4c-3.9,0.7-8.2-0.8-11.7-0.9c-2.5-0.1-5,1.4-8,0.8c-3.2-0.6-2.3-3.5-4.6-3.7c-2.9-0.3-8.5,2.5-12.7,2.9
	c-9.4,0.7-22.9-0.4-32.6-0.9c-4.1-0.2-11.4-3.7-14.6-3.7c-1.9,0-3.1,3.8-7.1,2.8c-0.9-0.2-1-2.2-1.9-2.8c-2.4-1.7-6-1.8-7.8-5
	c0-0.9,8.8-5.5,10.2-6.8c3.9-3.6,7.9-8.6,12.4-12.3c7.5-6.2,14.6-6.6,21.3-12.3c4.1-3.4,7.8-10.6,11.4-13.1c4.3-3,13.6-6.2,16.8-8.6
	c0.6-0.4,5-5.6,8.5-9.7L464,492.4z"/>
<path d="M181.1,120.6c0,0.1,0.1,0.2,0.1,0.3h0C181.2,120.8,181.2,120.7,181.1,120.6z M181.3,121.3c0,0.1,0.1,0.3,0.1,0.4h0
	C181.4,121.5,181.4,121.4,181.3,121.3z M181.8,122.6c0,0.1,0.1,0.2,0.1,0.3h0C181.9,122.8,181.8,122.7,181.8,122.6z M202.5,97.2
	c0.1-0.1,0.1-0.2,0.2-0.4h0C202.6,97,202.6,97.1,202.5,97.2z M217.1,97.2c0.1,0.1,0.1,0.3,0.2,0.4h0
	C217.3,97.5,217.2,97.3,217.1,97.2z M217.7,98.6c0.1,0.2,0.1,0.3,0.2,0.5h0C217.9,99,217.8,98.8,217.7,98.6z M218,99.4
	c0,0.1,0.1,0.2,0.1,0.3h0C218.1,99.6,218.1,99.5,218,99.4z"/>
<path d="M293.2,350.9c0.1-0.1,0.3-0.3,0.4-0.4c-0.1,0.1-0.2,0.1-0.3,0.2C293.3,350.8,293.2,350.9,293.2,350.9z M291.9,352.7
	c0-0.1,0-0.1,0.1-0.1C292,352.6,292,352.6,291.9,352.7C291.9,352.7,291.9,352.7,291.9,352.7z M291.7,353.4c0.1-0.2,0.2-0.4,0.3-0.7
	c-0.1,0.1-0.1,0.2-0.1,0.3C291.7,353.2,291.7,353.3,291.7,353.4z M289.3,387.3c0.1,0.1,0.2,0.1,0.3,0.2c0.1,0.1,0.2,0.1,0.3,0.2
	C289.7,387.6,289.5,387.5,289.3,387.3z M287.2,306.3c0,0.1,0,0.1,0.1,0.2h0C287.2,306.5,287.2,306.4,287.2,306.3z M287,306
	c0,0.1,0,0.1,0.1,0.2h0C287.1,306.1,287.1,306.1,287,306z M286.9,305.5c0,0.1,0.1,0.3,0.1,0.4h0C287,305.7,286.9,305.6,286.9,305.5z
	 M286.7,304.9c0,0.1,0,0.1,0,0.2c0,0,0,0.1,0,0.1c0,0,0-0.1,0-0.1C286.8,305,286.8,305,286.7,304.9z M286.9,305.3c0,0,0,0.1,0,0.1h0
	C286.9,305.4,286.9,305.4,286.9,305.3z M286.5,303.9c0,0.1,0.1,0.3,0.1,0.4h0C286.6,304.2,286.6,304,286.5,303.9z M286.3,302.9
	c0,0.1,0,0.1,0,0.1h0C286.3,303,286.3,302.9,286.3,302.9z M265.9,123L265.9,123C265.9,122.9,265.9,122.9,265.9,123
	C265.9,122.9,265.9,122.9,265.9,123z M264.2,85.1c0.1,0.4,0.1,0.7,0.1,1.1c0-0.2,0-0.4-0.1-0.6c0-0.1,0-0.3-0.1-0.4
	C264.3,85.1,264.2,85.1,264.2,85.1z M264.2,92.4c0.3-1.5,0.4-3.2,0.3-5.1c0-0.4-0.1-0.8-0.1-1.1c0,0.4,0.1,0.8,0.1,1.1
	C264.6,89.2,264.5,90.9,264.2,92.4z M263.9,83.1c0.1,0.4,0.2,0.8,0.2,1.2c0,0,0-0.1,0-0.1c0-0.1,0-0.2,0-0.3
	C264,83.6,264,83.3,263.9,83.1z M263.3,80.7c0.1,0.5,0.3,1,0.4,1.6c-0.1-0.3-0.1-0.5-0.2-0.8C263.4,81.2,263.4,81,263.3,80.7z
	 M260.5,73.6c0.2,0.4,0.4,0.9,0.6,1.4C260.9,74.5,260.7,74,260.5,73.6C260.5,73.6,260.5,73.6,260.5,73.6z M257.5,65.1
	c0,0,0,0.1,0,0.1L257.5,65.1C257.5,65.1,257.5,65.1,257.5,65.1z M254.4,260.4c0.1-0.1,0.2-0.3,0.3-0.4h0
	C254.7,260.1,254.6,260.3,254.4,260.4C254.5,260.4,254.4,260.4,254.4,260.4z M253.3,262.1c0.1-0.1,0.1-0.2,0.2-0.3h0
	C253.4,261.9,253.4,262,253.3,262.1z M253.2,270.4c0.2,0.2,0.3,0.3,0.5,0.5h0C253.5,270.7,253.4,270.5,253.2,270.4z M252.9,262.8
	c0.1-0.1,0.1-0.2,0.2-0.3h0C253,262.6,252.9,262.7,252.9,262.8z M252.6,263.2C252.7,263.2,252.7,263.2,252.6,263.2L252.6,263.2
	C252.7,263.2,252.6,263.2,252.6,263.2z M252.1,264c0.1-0.1,0.1-0.2,0.2-0.3h0C252.2,263.8,252.2,264,252.1,264z M220.6,108
	c0,0.1,0,0.1,0,0.2C220.6,108.1,220.6,108.1,220.6,108C220.6,108,220.6,108,220.6,108z"/>
<path d="M278.7,304.9c0,0.1,0,0.1,0,0.2h0C278.7,305,278.7,305,278.7,304.9z"/>
<path d="M294.5,313.6c0.1-0.1,0.2-0.3,0.3-0.4l-0.1,0.1C294.7,313.5,294.6,313.5,294.5,313.6z M267.4,303.3c0,0.1,0.1,0.2,0.1,0.3
	C267.5,303.5,267.5,303.4,267.4,303.3c-0.2-0.6-0.2-1.3-0.2-1.9c0-0.3,0-0.5,0-0.8C267.2,301.5,267.2,302.4,267.4,303.3z M253,270.6
	c0.1-0.1,0.1-0.1,0.2-0.2l0,0C253.1,270.4,253,270.5,253,270.6z M251.8,272L251.8,272C251.8,272,251.8,272,251.8,272
	C251.8,272,251.8,272,251.8,272z M251.4,272.6L251.4,272.6c0,0,0.1-0.1,0.1-0.1C251.4,272.5,251.4,272.5,251.4,272.6z"/>
<path d="M2,219.4c0.7,1.5,2.5,2.1,3.4,4.7c2.8,8,2,20.2,4.5,26.4c1.4,3.4,6.1,3.6,3.4,8.9l1.8-0.9l0,4.6c0.4-0.3,0.8-0.6,1.1-0.8
	c4.2-2.6,1.5,3.9,1.5,6.6c0,2.2,0.7,4.4,0.6,6.2c-0.2,4.8-3,14-0.6,18.2c0.6,1,3.9-0.4,3.5,5.4c-0.1,1.2-1.3,2.5-1.3,3.8
	c0,1.7,4.6,12,5.6,14.5c1.9,5.2,3.2,12,10.4,12.3c0.1,4.9-5.7,0-5.4,4.5c4.3-0.5,1.7,1,2.1,1.6c4.2,5.8,1.4,4.1,2.8,9.3
	c1.9,7.1,5.8,9,3.4,17.9c-1,3.7,6,9.7,6.7,14.7c0.5,3.6-2.2,7.7-2.1,10.4c0.1,1,7.5,17.5,8.4,18.7c1.1,1.5,4.4,2.4,4.8,3
	c0.3,0.4-0.7,1.5,0.1,3c1.7,3.5,10.3,10.3,12.6,13.7c3.2,4.8,5.1,12.7,8.4,17.9c1.4,2.2,6.6,6.6,6.9,7.1c0.6,1,0,3.6,0.6,5.3
	c1.1,3.5,10.6,18.9,13.2,22.9c1,1.4,3.4,1.5,2.9,5.1l2.4,0.2c0.3,1.5-0.1,2.9,0.6,4.5c2.7,6.1,9.7,12.5,14.1,16.7
	c5.3,5,3.4,7.1,5.9,12.3c1.2,2.5,3.5,3.4,3.8,3.9c0.3,0.5-0.1,9.3,0.2,11c0.1,0.7,1.2,0.7,1.4,1c2,3,4.2,3.6,5.8,5.5
	c0.9,1.1,1.7,2.4,2.5,3.7l10.5,10.7h148.9v-70c-4.2,0.1-12.6-1.1-15.6-2c-0.4-0.1-0.8-0.3-1.2-0.4c0.1,0.5,0.2,0.9,0.1,1.1
	c0.7,1.3,0,2.1-4.4,2.1c-0.5-0.9-2.1-2.3-4-3.8c-0.3,0-0.6,0-1-0.1c0,0,0,0,0,0l-5.3,2.6c-0.8-5.6-9.5-2.7-14-5.4
	c-0.3,1-0.6,2-0.8,3.1c-0.1,0.2-0.1,0.4-0.1,0.6c0,0,0,0,0,0c0,0.2-0.1,0.3-0.1,0.5c-0.1,0.5-0.1,1-0.2,1.4
	c-10.4-2.9-6.5-8.6-4.5-16.3l5.1,0c3.6-2.2,8.8-3.6,12.7-6.6l3,6l0-6.1l2.8,0.5c1.1,2.5,2.1,5.6,3.2,8.6c2.6-2.2,8.8,1.1,12.3,2.8
	c0.1,0,0.1-0.1,0.2-0.1c2.5-1,6-0.7,8.7-2.1c0.8,0.8,1.9,1.8,3.1,2.8V172.4c-0.9-0.9-1.8-1.9-2.6-2.9c-0.7,0-1.2-0.3-1.6-0.8
	c-0.2-0.2-0.3-0.4-0.5-0.7c-0.3-0.5-0.6-1.1-0.9-1.7c-0.1-0.1-0.1-0.3-0.2-0.4c-0.2-0.3-0.4-0.7-0.6-0.9c0,0,0-0.1-0.1-0.1
	c0,0,0,0,0,0c-0.1-0.1-0.2-0.3-0.3-0.4c-4.8-5.5-9.4-10.6-17.4-6.6c-5.3,2.6-7.7,13.5-8.9,1.2c2.6-4,5.7-14.4,5.5-19.1
	c-0.2-5.3-5.6-9.6-4.4-16.2c0-0.3,0.1-0.5,0.2-0.7c0-0.1,0-0.1,0.1-0.2c0,0,0,0,0,0c0.1-0.3,0.3-0.6,0.4-0.9c0.2-0.3,0.3-0.6,0.5-1
	s0.3-0.7,0.3-1.1c0.1-0.3,0.1-0.7,0.1-1c0-0.1,0-0.2,0-0.3c0-0.4,0-0.8,0-1.2c0-0.1,0-0.2,0-0.3c0-0.3,0-0.5-0.1-0.8
	c0-0.3-0.1-0.5-0.1-0.8c-0.1-0.3-0.1-0.6-0.2-1c-0.1-0.4-0.2-0.8-0.3-1.1c-0.1-0.3-0.2-0.7-0.4-1c-0.1-0.3-0.3-0.6-0.4-1
	c-0.1-0.3-0.3-0.6-0.4-0.9c-0.1-0.2-0.2-0.4-0.3-0.7c-0.3-0.7-0.7-1.4-1-2.1c-0.1-0.2-0.2-0.4-0.3-0.6c-0.4-1.1-0.8-2.1-1-3.3
	c0-0.2-0.1-0.3-0.1-0.5c-0.1-0.3-0.1-0.7-0.1-1.1c0-0.2,0-0.4,0-0.6c0-0.2,0-0.4,0-0.6c0-0.1,0-0.2,0-0.2c0-0.2,0-0.4,0-0.6
	c0-0.1,0-0.2,0-0.3c0-0.2,0.1-0.5,0.1-0.7c0.2-1.1,0.4-2.2,0.7-3.3c0.1-0.2,0.1-0.4,0.2-0.7c0.1-0.4,0.2-0.9,0.3-1.4
	c0.1-0.6,0.2-1.1,0.3-1.7c0,0,0,0,0,0c0.2-1.5,0.4-3.2,0.3-5.1c0-0.4-0.1-0.8-0.1-1.1c-0.1-0.4-0.1-0.7-0.1-1.1c0-0.1,0-0.2-0.1-0.3
	c0-0.1,0-0.2,0-0.2c0-0.1,0-0.1,0-0.2c-0.1-0.4-0.1-0.8-0.2-1.2c-0.1-0.3-0.1-0.5-0.2-0.8c-0.1-0.5-0.3-1.1-0.4-1.6
	c-0.2-0.5-0.3-1-0.5-1.5c-0.1-0.4-0.3-0.7-0.4-1.1c-0.1-0.4-0.3-0.7-0.4-1.1c-0.1-0.2-0.1-0.4-0.2-0.5c-0.1-0.3-0.2-0.6-0.4-0.9
	c-0.1-0.2-0.2-0.5-0.3-0.7c-0.2-0.5-0.4-0.9-0.6-1.4v0c-0.4-0.9-0.8-1.8-1.1-2.7c-0.2-0.4-0.4-0.9-0.5-1.3c-0.3-0.8-0.6-1.5-0.8-2.3
	c-0.1-0.2-0.1-0.5-0.2-0.7c-0.1-0.4-0.2-0.8-0.3-1.1c0-0.1,0-0.2-0.1-0.3l0,0c0,0,0-0.1,0-0.1c0-0.1,0-0.2-0.1-0.3
	c0-0.1-0.1-0.3-0.1-0.4c-0.3-2.2,0.9-3.6,0.2-6.4c-1.6-6.1-7.9-10.3-11.7-14.7c-2.7-3.2-10.5-14.4-13.8-15.3c-2.5-0.7-5.7,2-8.4,0.3
	c-0.7-0.4-1.1-1.9-1.9-2.6c-4.6-3.7-8.7-7.9-13.3-11.5c-6-2.6-14.5-7.1-21.6-14.1L43.2,0c-0.8,1-1.7,1.9-2.5,2.9
	c-1.5,1.8-3,3.6-4.4,5.4c-2.9,3.7-5.6,7.3-7.7,10.1c-0.3,0.4-0.6,0.8-0.8,1.1c-2.3,3.2-3.8,5.3-3.9,5.5c0,0,0,0,0,0
	c-1.5,1.7-3.8,2.6-5.5,4.5c-1.8,2-3.2,4.5-4.3,7.3c-6.7,17.8,0.3,49.3-1.7,66.7c-1.5,13-7.4,24.2-6.1,38.1c0.3,3,3.2,12.7,3.2,13.7
	c-0.1,0.7-1.5,1.6-1.5,3.5c0,2.1,0.7,5.3,1.5,8.8c1.1,4.9,2.1,10.2,1.1,13.1c-0.2,0.6-0.6,0.8-1.1,1c-0.9,0.4-1.9,0.7-1.5,2.7
	c0.2,1,0.8,1.8,1.5,2.7c0.6,0.9,1.3,2,1.6,3.5c0.7,3.9-2.4,6.6,2.3,8.5l-2.7,2.7l1.8,1.8c-1.6,1.2-2.5,2.9-3.1,4.8
	c-0.5,1.6-0.9,3.3-1.6,4.9c-0.4,1-3.2,0.6-0.8,4.3l-2.7,0.9c-2.2-4.4-0.6-7.5-1.8-11.8C-1.7,209.1,0.4,216,2,219.4z M295,275.4
	c0,0.4,0,0.8,0,1.2c0,0.6,0,1.1,0,1.6c0,0.6,0,1.1,0,1.7c0,0.2,0,0.5,0,0.7v0.1c-0.1,1.3-0.1,2.6-0.2,3.9c-0.1,1.4-0.2,2.9-0.3,4.3
	c0,0.3-0.1,0.9-0.2,1.6c0,0.1,0,0.2-0.1,0.3c0,0.1,0,0.2,0,0.3c0,0.1,0,0.2-0.1,0.3c0,0.2-0.1,0.5-0.1,0.7c0,0.3-0.1,0.5-0.1,0.7
	c0,0.1-0.1,0.3-0.1,0.4c0,0.1,0,0.3-0.1,0.4c-0.1,0.6-0.2,1.1-0.4,1.6c0,0.1,0,0.1-0.1,0.2c-0.1,0.2-0.1,0.4-0.2,0.6
	c0,0,0,0.1,0,0.1c-0.1,0.1-0.1,0.3-0.1,0.4c0,0.1-0.1,0.2-0.1,0.2c0,0,0,0,0,0.1c0,0.1-0.1,0.1-0.1,0.1c0,0,0,0.1-0.1,0.1
	c0,0,0,0.1,0,0.1c-0.1,0.2-0.3,0.3-0.4,0.3c-2-3.3-1.8-7.5-5-10.4c-3.7-3.4-14.7-5.3-19.3-3.9c-0.4,0.1-1.1,0.6-1.9,1.3
	c-0.1,0.1-0.2,0.2-0.3,0.3c-0.7,0.6-1.5,1.3-2.3,2c-0.2,0.2-0.5,0.4-0.7,0.6c-0.6,0.5-1.3,1-1.9,1.3c-0.1,0.1-0.2,0.1-0.3,0.2
	c-0.2,0.1-0.4,0.2-0.5,0.3c-0.2,0.1-0.3,0.1-0.5,0.2c-0.1,0-0.2,0.1-0.3,0.1c0,0,0,0,0,0c-0.1,0-0.1,0-0.2,0c-0.3,0-0.5,0-0.7-0.1
	c-0.1-0.2-0.1-0.4-0.2-0.5c-0.1-0.2-0.1-0.4-0.1-0.6c0-0.2-0.1-0.4-0.1-0.6c-0.1-0.4-0.1-0.8-0.1-1.2c0-0.2,0-0.3-0.1-0.5V286
	c0-0.2,0-0.3-0.1-0.5c0-0.2-0.1-0.4-0.1-0.6c0,0,0,0,0,0c0-0.2-0.1-0.3-0.1-0.5c0-0.1-0.1-0.2-0.1-0.3c0-0.1-0.1-0.2-0.1-0.3
	c-0.1-0.2-0.2-0.4-0.3-0.5c-0.1-0.1-0.1-0.1-0.2-0.2c-0.1-0.1-0.2-0.2-0.4-0.3c0,0,0,0,0,0c-0.1-0.1-0.2-0.1-0.4-0.1
	c-0.1,0-0.3-0.1-0.4-0.1c-0.1,0-0.2,0-0.3,0c-0.1,0-0.2,0-0.4,0c-0.2,0-0.4,0-0.7,0.1c-0.1,0-0.2,0-0.3,0.1c-0.1,0-0.3,0.1-0.4,0.2
	c0,0,0,0-0.1,0c0,0,0,0-0.1,0.1c-0.1,0.1-0.2,0.1-0.2,0.2c-0.1,0.1-0.1,0.1-0.2,0.2c-0.2,0.2-0.3,0.4-0.5,0.5
	c-0.1,0.1-0.3,0.3-0.4,0.4c0,0,0,0.1-0.1,0.1c-0.1,0.1-0.2,0.2-0.3,0.3c-0.4,0.3-0.9,0.5-1.6,0.3c-0.1-0.4-0.2-0.8-0.3-1.2
	c0-0.1-0.1-0.2-0.1-0.3c0,0,0,0,0-0.1c-0.1-0.3-0.1-0.5-0.2-0.8c0-0.1,0-0.1,0-0.2c0-0.1,0-0.2,0-0.3c0-0.1,0-0.1,0-0.1
	c0-0.2-0.1-0.5-0.1-0.7c0,0,0,0,0,0s0,0,0,0c0,0,0,0,0-0.1c0-0.1,0-0.2,0-0.3c-0.1-0.5-0.1-1,0-1.5c0-0.1,0-0.3,0-0.4
	c0-0.4,0.1-0.8,0.1-1.2c0,0,0-0.1,0-0.1c0-0.1,0-0.1,0-0.2c0-0.2,0.1-0.3,0.1-0.5c0-0.2,0.1-0.4,0.2-0.6c0-0.1,0.1-0.3,0.1-0.4
	c0.1-0.3,0.2-0.6,0.3-1c0.1-0.2,0.1-0.3,0.2-0.5c0.1-0.2,0.1-0.3,0.2-0.5c0.2-0.3,0.3-0.6,0.5-1c0.1-0.2,0.2-0.4,0.4-0.6
	c0,0,0.1-0.1,0.1-0.1c0.1-0.1,0.1-0.2,0.2-0.3c0.1-0.1,0.1-0.1,0.1-0.2c0,0,0,0,0.1-0.1c0.1-0.2,0.3-0.3,0.4-0.5
	c0.1-0.2,0.3-0.4,0.5-0.5l0.2-0.3c0,0,0,0,0.1-0.1c0.1-0.1,0.1-0.1,0.2-0.2l0,0c0.2,0.2,0.3,0.3,0.5,0.5v0c0.1,0.1,0.2,0.3,0.3,0.4
	c0.1,0.1,0.1,0.2,0.2,0.3c0.3,0.4,0.6,0.8,0.8,1.3c0.1,0.1,0.1,0.2,0.1,0.3c0.1,0.3,0.3,0.6,0.4,0.9c0.1,0.1,0.1,0.3,0.1,0.4
	c0.1,0.3,0.2,0.5,0.2,0.8c0,0.1,0.1,0.2,0.1,0.3c0.1,0.2,0.1,0.5,0.1,0.7c0.1,0.3,0.1,0.7,0.1,1c0.1,0.4,0.1,0.9,0.1,1.3
	c0,0.6,0,1.1,0,1.7l3.1-0.1c3.5-1.2,0.5-11.4,0.6-14.1c0.1-2,4.6-4.2,2.3-7.7c-0.4-0.2-0.7-0.4-1.1-0.6c-0.2-0.1-0.4-0.1-0.5-0.2
	c-0.3-0.1-0.5-0.2-0.8-0.2c0,0,0,0,0,0c-0.1,0-0.2,0-0.3,0h-0.1c-0.1,0-0.2,0-0.3,0c-0.1,0-0.3,0-0.4,0c-0.1,0-0.1,0-0.1,0
	c-0.1,0-0.2,0-0.3,0c-0.1,0-0.3,0-0.4,0.1c-0.1,0-0.2,0.1-0.3,0.1c-0.2,0.1-0.3,0.1-0.5,0.2c-0.2,0.1-0.5,0.3-0.7,0.4
	c-0.2,0.1-0.3,0.2-0.5,0.4c-0.2,0.1-0.3,0.3-0.5,0.4c-0.2,0.2-0.4,0.4-0.6,0.6c-0.1,0.1-0.2,0.2-0.3,0.3c-0.1,0.1-0.2,0.3-0.3,0.4
	c0,0-0.1,0.1-0.1,0.1c0,0.1-0.1,0.1-0.1,0.2c-0.1,0.1-0.2,0.2-0.3,0.4c-0.1,0.1-0.2,0.2-0.2,0.3c-0.1,0.1-0.2,0.2-0.2,0.4
	c-0.1,0.1-0.1,0.2-0.2,0.3c-0.1,0.1-0.1,0.2-0.2,0.4c-0.1,0.1-0.1,0.2-0.2,0.3c-0.1,0.1-0.1,0.2-0.2,0.3c0,0,0,0.1-0.1,0.1
	c-0.1,0.1-0.2,0.3-0.2,0.4c0,0.1-0.1,0.1-0.1,0.2c-0.1,0.1-0.1,0.2-0.2,0.3c-0.1,0.1-0.1,0.2-0.2,0.3c-0.1,0.1-0.1,0.2-0.2,0.3
	c-0.1,0.1-0.2,0.2-0.3,0.3c0,0-0.1,0.1-0.1,0.1l-0.2,0.2c-0.1,0.1-0.2,0.2-0.3,0.2c-1,0.5-1.6,0.7-2,0.5c-0.1,0-0.2-0.1-0.2-0.2
	c-0.1-0.1-0.1-0.2-0.1-0.3c0-0.1,0-0.1,0-0.2c0-0.1,0-0.2,0-0.3c0-0.1,0-0.1,0-0.2v0c0-0.1,0-0.1,0-0.2c0-0.1,0-0.2,0.1-0.3
	c0.1-0.5,0.3-1.1,0.5-1.6c0-0.1,0.1-0.2,0.1-0.3c0.3-0.7,0.6-1.3,0.6-1.5c1.8-9.5,3.4-9,7.2-16.4c1.2-2.4,4.3-12,3.8-14.3
	c-0.2-1.1-3.6-1-2.8-3.4l2.2,0.1c1.4-3,2.6-6,3.7-9.1c4.3-12.2,7.1-25.1,5.9-38.6c2.4-3.3,2.3-11.2,4.7-13.9
	c4.1-4.4,12.3,5.9,14.2,9.3c1.9,3.3,2.5,6,2.7,8.7c0.2,3.1-0.2,6.3,0.1,10.3c0.8,10.5-0.4,18.7,0,28.1c0,0.2,0,0.3,0,0.5
	c0,0.1,0.1,0.3,0.1,0.4c0,0,0,0,0,0.1c0,0.1,0.1,0.2,0.1,0.3c0,0,0,0,0,0.1c0,0.1,0.1,0.2,0.1,0.3c0,0.1,0,0.1,0.1,0.2
	c0,0.1,0,0.1,0.1,0.1c0,0.1,0.1,0.2,0.1,0.3c0.1,0.1,0.1,0.3,0.2,0.4c0.1,0.3,0.3,0.5,0.4,0.7c0.1,0.2,0.2,0.3,0.3,0.5
	c0.1,0.2,0.2,0.3,0.3,0.5c0.1,0.1,0.1,0.2,0.2,0.3c0.1,0.1,0.1,0.2,0.2,0.3c0.1,0.1,0.1,0.2,0.1,0.3c0.1,0.2,0.1,0.4,0.2,0.6
	c0.3,1.8-0.8,6.1-0.7,9c0.3,4.1,0.5,8.1,0.8,12.2c0.1,1.1,0.1,2.1,0.2,3.2c0.1,0.9,0.1,1.8,0.1,2.6c0.1,1.4,0.1,2.9,0.2,4.3
	c0.1,1.5,0.1,3,0.2,4.4c0,0.8,0.1,1.7,0.1,2.5c0,0.6,0,1.3,0,1.9c0,0.7,0,1.4,0,2.1c0,1.8,0,3.7,0,5.5V275.4z M296.2,310.4
	c0,0.1,0,0.1,0,0.2c0,0.2-0.1,0.3-0.1,0.5c0,0.1,0,0.2-0.1,0.3c0,0,0,0.1-0.1,0.1c0,0,0,0,0,0c0,0.1-0.1,0.2-0.1,0.3c0,0,0,0,0,0
	c0,0.1-0.1,0.2-0.1,0.3c0,0,0,0,0,0c-0.1,0.1-0.2,0.3-0.3,0.5c-0.1,0.1-0.1,0.2-0.2,0.3c-0.1,0.1-0.2,0.3-0.3,0.4
	c-0.1,0.1-0.2,0.3-0.3,0.4c-0.1,0.1-0.3,0.3-0.4,0.4c-0.1,0.1-0.2,0.2-0.3,0.2c-0.2,0.1-0.3,0.3-0.5,0.4c-0.3,0.2-0.5,0.4-0.8,0.6
	c-0.2,0.1-0.3,0.2-0.5,0.3c-0.2,0.1-0.4,0.3-0.6,0.4c-0.3,0.1-0.6,0.3-0.9,0.4c-0.2,0.1-0.4,0.1-0.6,0.2c0,0-0.1,0-0.1,0
	c-0.2,0-0.3,0.1-0.5,0.1c-0.3,0.1-0.7,0.1-1.1,0.1c-0.3,0-0.6,0.1-0.9,0.1c0,0,0,0,0,0c-0.2,0-0.4,0-0.6,0c-0.4,0-0.9,0-1.3,0
	c-0.3,0-0.5,0-0.8,0c-0.3,0-0.6,0-0.9-0.1c-0.3,0-0.5,0-0.8-0.1c-0.3,0-0.7-0.1-1.1-0.1c-0.1,0-0.1,0-0.2,0c-0.1,0-0.2,0-0.3,0
	c-0.2,0-0.4-0.1-0.6-0.1c-0.1,0-0.2,0-0.2,0c-0.5-0.1-1.1-0.2-1.6-0.3c-0.5-0.1-1-0.2-1.5-0.4c-0.2-0.1-0.5-0.1-0.7-0.2
	c-0.2-0.1-0.4-0.1-0.6-0.2c-0.6-0.2-1.1-0.5-1.6-0.8c-1.1-0.7-1.4-3.4-2.1-4.4c-0.1-0.2-0.3-0.4-0.5-0.7c-0.2-0.3-0.5-0.5-0.7-0.8
	c-0.1-0.1-0.2-0.2-0.3-0.3c-0.1-0.1-0.2-0.2-0.3-0.4c-1.1-1.2-2.3-2.6-2.9-3.7c-0.1-0.2-0.2-0.4-0.3-0.6c-0.1-0.1-0.1-0.2-0.1-0.3
	c-0.2-0.9-0.3-1.8-0.2-2.7c0-0.3,0-0.6,0.1-0.8c0.1-1.2,0.2-2.4-0.2-3.4c0,0,0-0.1-0.1-0.1c0,0,0-0.1-0.1-0.1
	c-0.1-0.1-0.2-0.2-0.3-0.3c-0.1-0.1-0.3-0.2-0.4-0.3c-0.2-0.1-0.3-0.2-0.5-0.4c-0.1-0.1-0.2-0.1-0.3-0.2c-0.1-0.1-0.2-0.1-0.3-0.2
	c-0.1-0.1-0.1-0.1-0.2-0.2c-0.2-0.2-0.3-0.3-0.4-0.5c-0.1-0.1-0.1-0.1-0.1-0.2c-0.1-0.1-0.1-0.2-0.1-0.3c-0.1-0.1-0.1-0.3-0.1-0.4
	c0-0.1,0-0.3,0-0.5c0-0.6,0.1-1.2,0.5-2c0.1-0.1,0.1-0.2,0.2-0.3h0c2-1.9,11.1,0.2,13.2,1.5c0.4,0.3,6.8,7.5,7,7.9
	c0.6,1.1,1,2.1,1.2,3c0,0,0,0.1,0,0.1c0,0,0,0,0,0c0,0.1,0,0.1,0,0.1c0,0.2,0.1,0.4,0.1,0.6c0,0.1,0,0.2,0,0.2
	c0,0.1,0.1,0.3,0.1,0.4c0,0,0,0.1,0,0.1c0,0.1,0,0.2,0.1,0.3c0,0.1,0,0.1,0,0.2c0,0.1,0,0.1,0.1,0.2c0,0,0,0.1,0,0.1
	c0,0.1,0,0.1,0,0.1c0,0,0,0.1,0,0.1c0,0.1,0.1,0.3,0.1,0.4c0,0.1,0,0.1,0.1,0.2c0,0.1,0.1,0.1,0.1,0.2c0,0,0,0.1,0,0.1
	c0,0,0,0.1,0,0.1c0,0.1,0.1,0.1,0.1,0.2c0,0,0,0.1,0.1,0.1c0,0,0,0.1,0.1,0.1c0,0,0,0,0,0c0,0,0,0,0,0c0,0.1,0.1,0.1,0.1,0.1
	c0.1,0.1,0.1,0.2,0.2,0.3c0,0,0.1,0.1,0.1,0.1c0.1,0.1,0.1,0.1,0.2,0.2c0.2,0.2,0.3,0.3,0.5,0.5c0.1,0.1,0.2,0.2,0.3,0.2
	c0,0,0,0,0.1,0c0.1,0.1,0.3,0.1,0.4,0.2c0.3,0.1,0.5,0.2,0.9,0.3c0,0,0.1,0,0.1,0c0.1,0,0.2,0.1,0.3,0.1c0.5,0.1,1,0.2,1.6,0.3
	c0.1,0,0.3,0,0.4,0.1c1,0.1,2.2,0.2,3.6,0.2C296.3,309.7,296.3,310,296.2,310.4z M291.7,353.4c0-0.1,0.1-0.2,0.1-0.3
	c0-0.1,0.1-0.2,0.1-0.3c0,0,0-0.1,0-0.1c0,0,0,0,0-0.1c0,0.1-0.1,0.1-0.1,0.1C291.8,353,291.8,353.2,291.7,353.4z M293.2,350.9
	c0.1-0.1,0.1-0.1,0.2-0.2c0.1-0.1,0.2-0.1,0.3-0.2C293.4,350.7,293.3,350.8,293.2,350.9z M289.3,387.3c0.2,0.1,0.4,0.3,0.5,0.4
	c-0.1-0.1-0.2-0.1-0.3-0.2C289.5,387.4,289.4,387.4,289.3,387.3z M18.8,248.5c1.6-4.9-2.9-11.7,5.4-10l-0.9-5.5l2.8-0.5l-0.5-4.1
	c-0.9-1.5-3.3,0.6-4.1,0c-0.2-0.1-1.1-4.1-1-4.8c0.1-0.7,3.1-1.5,2.8-3.3l1.3,2.7c3.7-2,0.4-3.5,0.8-4.5l3.2-1.8l-0.5-1.9l-5.4-2.7
	c-0.4-0.9,0.7-5.9,1.1-7.1c2.1-5.6,10.4-3.7,6.4-14c-6.2-16-6.8-31.5-9.7-48.4l6.4-26.2l-1.9-1l3.6-1.4c1.2-3.2-3.1-3.5-3.5-5.1
	c-0.1-0.5,0.3-1.8,0.6-3.1c0.2-0.8,0.3-1.6,0.3-2.3c-0.2-2.8-1.1-5-1-8.1c0.1-5,3.4-15.1,2.8-19.1c-0.3-2.1-2.5-2.9-2.7-3.8
	c-0.2-1.2,2.2-2.5,1.7-4.3l-3.6-2.8C27.1,62,24.8,59,25,54.6c0.3-5.6,1-11.1,1-16.8l2.7,1.8c0.9-3.4-1.2-7.5-1-10.4
	c0.1-1.9,1.5-2.8,1.6-3.8c0.2-1.1-1-3.5-0.6-3.9c0.1-0.1,1.6,0.4,2.8-0.6c0.6-0.5,4.2-6,3.6-6.7c-0.9,0.1-1.6,0.3-2.4,0.6l5.4-6.3
	c0.7,0.1,1.3,0.1,2,0.2c2.7,0.3,4.3,1.9,7.2,1.9c3.3,0,6.9-2.2,10-2c2,0.1,3.3,1.8,4.4,1.7c1.7-0.1,4.2-3,6.5-2.7l1.7,1.9
	c14-3.8,29.8-2,44.5-2.8C123,8.6,133.7,7,144,6.4c2.6-0.2,5.1-0.3,7.6-0.2c0.1,0,0.2,0,0.3,0c0.6,0,1.2,0,1.8,0.1
	c0.7,0,1.3,0.1,2,0.1l0.5,0c0.5,0,1,0.1,1.5,0.2c0.9,0.1,1.7,0.2,2.6,0.4c0.5,0.1,0.9,0.2,1.4,0.3c0.3,0.1,0.5,0.1,0.8,0.2
	c0.6,0.1,1.1,0.3,1.7,0.5c0.3,0.1,0.6,0.2,0.9,0.3c0.3,0.1,0.6,0.2,0.9,0.4c0.3,0.1,0.6,0.3,0.9,0.4c4.7,2.2,9.9,7.4,14.7,9.8
	c1.7-3.6-6.8-7-9.5-8.2c-2.3-2.4,6.2-2.7,7.5-2.5c4.6,0.6,5.9,3.6,9.1,5.4c4.9,2.7,18.3,7.9,21.1,11.6c0.9,1.2,1.7,1.9,1.3,3.7
	c-1.9,1.8-12.4-5.8-15.2-7c-2.2-0.9-4.7-0.7-6.8-1.4c-0.3-0.1-7.2-5-5.2-1.1c2.1,4.2,19.3,9.6,24,13.2c15,11.2,27.9,29.9,41.2,43.2
	c1.4,1.4,3.6,1.7,4.6,2.7c2.4,2.4,5.8,14.5,3.4,17.5l-2.1,0.8c-2.8-1.6-7.1-4.3-10.2-4.9c-5.6-1.1-11-2-16.7-3.3
	c-10.1-2.2-9.9,0.3-17.7,1.2c-5.6,0.7-10.8-4.9-14.9-6.7c-17.1-7.6-34.1-9.7-51.6-6c-4.5,1-9.1,2.3-13.7,4.1
	c-12.3,4.7-20.1,7.6-32.8,11.6c-3.1,1-9.1,5-12.3,5.9c-2.3,0.6-4.8-0.2-7,0.3C72.5,100,61.5,102.2,65,110c7,2.8,14.8,5.2,21.5,8.5
	c13.6,6.7,30.2,21.1,45.3,22.8c5.6,0.6,19.1,1.5,24.4,1.1c6.2-0.5,10.7-4.2,16.7-5c3.6-0.5,9,1,12.1,0.3c2.9-0.6,9.7-7.1,13.5-9.2
	c5.3-2.9,11.1-3.7,15.7-6c1.5-0.7,10.2-9.3,11.1-10.7c0.7-1,2-4.9,2.1-6.2c0.1-2.6-3.3-11.6-0.5-12.2c6.1,3.1,16.7,3.3,22.1,6.8
	c0.6,0.4,4.7,6,4.9,6.9c1,3.8,0.2,7.3,0.8,11.1c1.1,6.8,9.4,24.1,8.7,29.1c-0.2,1.6-2,3.2-2.3,4.9c-0.2,1.1,0.7,2.4,0.5,3.3
	c-0.3,1.6-3.9,5.3-4.3,9.3c0,0.1,0,0.2,0,0.3c-0.3,4.5,2.2,10.9,1.9,15.1c-0.1,1.7-1.7,1.2-1.9,2c-0.6,2.5,0.6,6.4,0,8.7
	c-0.3,1-2.2,0.9-2.6,2.1c-1.3,4.1-1.5,10.2-2.3,14c-0.8,3.7-4.2,8.3-5.1,13.2c-0.4,2.5,0,5.2,1,7.5c0.2,0.2,5.3-1,4.4,1.5
	c-1.1,3.2-4.8-2.5-6.3-1.3c0.1,1.7-2.3,3.9-1.6,5.3c0.1,0.2,1.4,0.1,1.6,0.8c1.2,4.4-4.4,6.7-5.1,10.3c-0.7,3.3,0.5,8-2.2,10.4
	c0.2,4.7-0.2,9.3-0.9,13.9h0c-1.2,7.8-3.3,15.5-5.2,23.2l3,2.4l5.4-2.7c1.2,0.3,3,10.1,9.5,4.9c2.2-1.7,1.4-6.2,6.4-4.9
	c-0.5,2.7,1.5,4.3,1.9,6.8c0.4,2.9-0.7,7.4-0.1,9.8c0.3,0.9,4.8,2.9,5.8,4.4c1.5,2.1,2,5.7,4.5,8.1c8,7.6,20.5,0.7,24.1,3.1
	c2.3,1.5,1.9,9.5,1.2,12.1c-0.2,0.7-2,4.3-3.8,7.6v0c-0.1,0.2-0.2,0.4-0.3,0.5c-0.2,0.4-0.4,0.7-0.6,1c-0.3,0.5-0.5,0.9-0.7,1.4
	c-0.2,0.3-0.4,0.7-0.5,1c-0.5,0.9-0.9,1.6-1.1,2c-0.1,0.1-0.1,0.1-0.1,0.2c-1.6,2.2-6.3,3.6-7.2,5.5c-0.1,0.1-0.2,0.5-0.3,1
	c0,0.1-0.1,0.2-0.1,0.2c-0.1,0.2-0.1,0.4-0.2,0.7c-0.1,0.3-0.2,0.6-0.3,0.9c-0.1,0.3-0.2,0.7-0.3,1c-0.1,0.3-0.2,0.7-0.3,1
	c0,0,0,0.1,0,0.1c-0.1,0.5-0.3,0.9-0.4,1.3c0,0,0,0.1,0,0.1c0,0.1-0.1,0.3-0.1,0.4c0,0.1-0.1,0.2-0.1,0.2c0,0.1-0.1,0.3-0.1,0.4
	c-0.1,0.2-0.1,0.3-0.1,0.3c-0.3,2.6,0.7,3.5,1.1,5.4c0.2,1,1.4,1-0.6,2.4c-3.7-0.4-5.4-4.8-8.6-5.9c-7.1-2.5-20.2-1.7-27.7-0.9
	c-0.9,0.1-1.9,1.3-3.6,1.5c-3,0.2-5.3-1.7-8.9,0.8c-0.7,0.5-1.2,1-1.6,1.6c-2.1,3.3,0.3,8-0.1,9.7c-0.3,1.1-4.2,2-4.2,5.7
	c0,0.9,0.8,1.8,1.3,2.8c0.3,0.6,0.5,1.3,0.3,2c-2.5,0.9-4.4-0.3-6.3-1.9c-1.6-1.4-3.2-2.9-5.1-3.5c-2.7-2.3,1.1-6.2-6.1-4.4
	c-1.3,0.3-6.1,4.5-6.1,4.9c0,0.9,1,2,0.8,3.4c-0.2,1.1-1.2,2-1.5,3.1c-0.4,1.7,0.2,4.6-0.6,5.7c-1.5,2.4-9.5-2.9-11.2,3.3
	c-1.1,3.9,7,22.1,6.2,23c-5-0.7-4.6-6.2-10.5-7.3l-0.3-5.8l-5.6-2.8c-0.5-0.6-0.4-1.2-0.3-1.8c0.3-1.3,1.3-2.3-2.1-3
	c-1.4-0.3-2.8-0.5-4.2-0.3c-0.8,0.1-0.4,2.7-2.9,1.8l-0.9-1.8c-1.5,2.9-4.4,4.6-7.6,5c-1,0.1-1.8-1-2.3-1c-2.2,0.1-7,2.4-6.8,5.4
	c0.1,1,3.6,9.9,4.1,10.6c2.9,3.4,3.4,3.4,6.4,8.1c1,1.6,4,1.8,1.7,6.5c-1.2,2.4-4.7,0.6-4.1,3.6l6.3-1.8c-0.5,10.9,10.7,7.2,10-0.9
	c5.5,2.4,8.6-3,10.6-3.5c2.2-0.6,8.3,6.8,16.5,3c6.7-3.1,5.4-9.7,7.6-12c1.3-1.4,7.6-1,9.3-3.8c0.7-1.2-0.1-10.5-0.6-12.1
	c-0.6-1.9-2.9-1.8-3.4-3.1c-0.2-0.5-2.5-8.4-2.6-9c-0.2-1.2,0.2-3,1.2-3c0.9,0,6.6,9.5,7.9,11.2c2.3,3.2,6.5,9.5,8.9,12
	c7.2,7.1,7.5,3.9,13.7,0.1c1.1-0.7,2.7-0.5,4-1.4c2.3-1.5,2.9-5.3,3.2-5.5c0.4-0.3,7.4,3.2,9.5-1.9c1.9-4.4-5.6-11.7-7.3-16.3
	c-0.5-1.2-2.3-1,0.1-2.8c3.3,2.4,5.1,9,9.9,8.2c1.6-0.3,2.7-2.2,4.4-1.8c0.7,0.2,7.3,5.4,9.9,6.5c1.8,0.8,4.5,0.4,6.3,1.4
	c0.7,0.4,1.2,0.9,1.5,1.8c0.2,0.5,0.4,1.1,0.5,1.7c0.7,2.9,0.9,6.8-0.1,9.2c-0.4,1.1-2.1,1.1-2.1,1.5c-0.5,3.9,4.1,2.2,1.8,4.6
	c-3.3,1.2-5.9-1.1-9.3-0.3c-2.1,0.5-3.5,2.6-5.6,3.5c-3.9,1.7-9.2,1.6-13.2,3.1l-2.3,8.7c-9-3.4-26.2-3.4-31.4,6.6
	c-2.1,4-3,10.6-4.5,15c-5.6,3.4-8.4-3.1-12.7-2.4c-3.9,0.7-5.4,4.4-7.6,6c-4.8,3.6-12,2.1-5.2,11.8c0.1,0.2,0.5,0.7,1,1.3
	c0.8,0.9,1.9,2.2,3.1,3.7c3.5,4.1,7.9,9.2,8.5,9.7c3.1,2.5,12.5,5.6,16.8,8.6c3.6,2.5,7.3,9.7,11.4,13.1c6.8,5.7,13.9,6.1,21.3,12.3
	c4.5,3.7,8.5,8.7,12.4,12.3c1.4,1.3,10.2,5.9,10.2,6.8c-1.8,3.2-5.4,3.3-7.8,5c-0.9,0.6-1,2.6-1.9,2.8c-4,1-5.2-2.7-7.1-2.8
	c-3.2,0-10.5,3.5-14.6,3.7c-9.7,0.5-23.2,1.7-32.6,0.9c-4.2-0.3-9.7-3.1-12.7-2.9c-2.3,0.2-1.4,3.1-4.6,3.7c-3,0.6-5.5-0.9-8-0.8
	c-3.5,0.1-7.9,1.6-11.7,0.9c-1.4-0.3-1.3-4.8-2-6.4c-2.6-5.4-9.4-13.7-13.5-17.8c-4.4-4.4-4.5-2.5-7.6-4.2c-1.4-0.8-3.7-7.7-5.7-10
	c-0.9-1-7.9-8.3-8.4-8.6c-0.9-0.6-4.9-0.8-5.2-1.2c-0.3-0.5,1.3-2.4,0.5-3.6c-0.4-0.6-2-0.9-2.7-1.9c-1.1-1.5-1.3-3.7-3.2-5
	c-0.5-2.3,4.9-2,3.2-5.9c-0.4-0.8-1.9-1.9-3.3-2.9c-0.8-0.6-1.6-1.2-2.1-1.6c-1-0.9-2-1.8-3-2.8c-1.6-1.7-3.1-3.4-4.5-5.3
	c-5.8-7.8-10-17.1-15.3-25.5c-3.7-5.9-11.3-13.4-15.8-18.7c-3.9-4.5-2.7-8.6-4.5-10.8c-0.7-0.8-2.1-0.3-2.5-0.8
	c-1.1-1.1,0.1-4.5-4.8-3.4c2-4.3-1.1-7.8-3-11.5c-2.1-4-5.8-8.7-8.2-13.1c-0.9-1.6-1.2-4.2-2.4-5.9l0.1-1.2
	c8.3-3.8,3.2-6.3,1.5-10.3c-1.5-3.4-4.2-13.6-7.1-15.6c-0.7-0.5-2.2-0.3-2.6-0.6c-0.1-0.1,0.6-1.7,0-3.1c-1.6-3.8-3.4-5.2-5-7.8
	c-1.1-1.7,0.2-3.8-3.2-5c4.1-5.9,0-4.4-0.7-6.5c-0.4-1.1-0.4-2.6-0.5-4.1c-0.1-1.5-0.3-3.1-1-4.3c-0.9-1.6-3.6-2.1-3.9-3.3
	c-0.2-1.1,1.1-2.9,0.8-4.3c-0.1-0.5-7-6.2-2.8-9.3c-3.2-1.1-2.1-2.7-2.9-4.2c-2.3-4.3-4-1.1-3.2,0.1c0.2,0.3,2.5-0.5,1.7,1.9
	c-6.9,0.3-1.4-6-0.9-8.7c0.4-2.4-0.9-4.7-0.6-6.2c0.2-0.9,1.7-1.8,1.5-2.8c-0.3-1.5-8.3-5.3-10-6.4c1.3-1.8,8,3.8,7.3,0
	c-0.3-1.4-2.9-5.6-4.5-4.5l-0.9-0.9c0.1-2.2,2.3-4.7,2.6-6.6c0.3-1.5-2.4-11.2-3.2-12.7c-0.8-1.6-2.8-1.9-3-2.7
	c-0.4-1.7,0.6-4-0.4-5.7C22.4,246.5,19.1,248.9,18.8,248.5z M220.6,108C220.6,108,220.6,108,220.6,108c0,0.1,0,0.2,0,0.2
	c0,0.1,0,0.2,0,0.3c0,0.3,0,0.5,0,0.7c0,0.1,0,0.1,0,0.2c0,0,0,0,0,0c0,0.1,0,0.1-0.1,0.2c-5.3,8.4-13.9,8.1-21.6,12.1
	c-10.2,5.3-6.1,5.7-19.3,8c-5.5,1-20.3,6.1-24.5,5.3c-9.7-1.8-13.9,0-21.7-0.9c-13.6-1.5-28.6-14.1-40.1-20.8l-14.8-6.5l17-6.1
	l14.7-3c-0.5,0.7-0.9,1.3-1.3,1.9c-0.3,0.4-0.5,0.8-0.7,1.1c-0.1,0.2-0.2,0.3-0.3,0.5c0,0.1-0.1,0.1-0.1,0.2c0,0-0.1,0.1-0.1,0.1
	c-0.1,0.1-0.1,0.2-0.2,0.3c0,0,0,0,0,0.1c-0.2,0.3-0.3,0.6-0.4,0.9c-0.3,0.6-0.4,1.2-0.6,1.9c0,0.1-0.1,0.3-0.1,0.4
	c-0.1,0.3-0.1,0.6-0.1,1c0,0.1,0,0.3,0,0.4c0,1,0,2.1,0.2,3.5c0,0.2,0.1,0.4,0.2,0.6c0.1,0.1,0.1,0.3,0.2,0.5
	c0.2,0.4,0.4,0.9,0.7,1.5c0.1,0.2,0.2,0.3,0.3,0.5c0.6,1.1,1.3,2.3,2,3.6l0.4,0.7c0.4,0.7,0.9,1.4,1.3,2.1c0.4,0.6,0.8,1.1,1.1,1.7
	c0.4,0.5,0.7,1,1,1.5c0.2,0.3,0.4,0.6,0.6,0.8c0.1,0.1,0.2,0.2,0.3,0.3c0.3,0.3,0.5,0.6,0.7,0.8c0.1,0.1,0.1,0.1,0.2,0.1
	c3.4,2.6,7.7,1.4,11.3,3.3c12.7-5.3,29.7,0.4,42.1-5.2c2.7-1.2,5.9-5.7,7.8-5.9c0.4,0,0.9,0,1.2,0.1c0.1,0,0.1,0,0.1,0
	c0.1,0,0.1,0,0.1,0c0.1,0,0.2,0.1,0.3,0.1c0.1,0,0.2,0.1,0.3,0.1c0.4,0.2,0.7,0.5,0.9,0.8c0,0,0,0.1,0.1,0.1c0,0.1,0.1,0.1,0.1,0.1
	c0.1,0.2,0.2,0.4,0.3,0.6c0,0.1,0.1,0.1,0.1,0.2c0.1,0.1,0.1,0.2,0.1,0.3c0,0.1,0.1,0.2,0.1,0.3c0.1,0.3,0.3,0.7,0.4,1.1
	c0,0.1,0.1,0.2,0.1,0.3c0,0.1,0.1,0.3,0.1,0.4c0,0.1,0.1,0.3,0.1,0.4c0,0.1,0.1,0.3,0.1,0.4c0,0,0,0,0,0c0.1,0.2,0.1,0.4,0.2,0.5
	c0.1,0.1,0.1,0.2,0.2,0.3v0c0,0.1,0,0.1,0.1,0.1c0.1,0.1,0.1,0.2,0.2,0.3c0.1,0.1,0.2,0.3,0.3,0.4c0.1,0.1,0.1,0.2,0.2,0.3
	c0.1,0.1,0.3,0.3,0.4,0.3c0.1,0,0.1,0.1,0.2,0.1c0.1,0.1,0.1,0.1,0.2,0.1c1.8,0.8,7.5,1.1,6.9-1.4c-0.5-2.7-7.4-5.3-8.2-6.6
	c-2.5-4.2,4.6-14.1,6.5-18.1c0.1-0.1,0.1-0.3,0.2-0.4c0.1-0.1,0.1-0.3,0.1-0.4c0-0.1,0.1-0.2,0.1-0.3c0.1-0.2,0.1-0.3,0.1-0.5
	c0.1-0.2,0.1-0.4,0.2-0.7c0-0.2,0.1-0.3,0.1-0.5c0.1-0.2,0.1-0.4,0.2-0.7c0.1-0.2,0.1-0.5,0.2-0.7c0-0.1,0.1-0.3,0.1-0.4
	c0.1-0.3,0.3-0.7,0.4-1c0.1-0.1,0.1-0.2,0.2-0.3c0.1-0.1,0.2-0.3,0.4-0.4c0.1-0.1,0.3-0.2,0.4-0.3h0c0.1-0.1,0.3-0.2,0.5-0.3
	c0.1-0.1,0.3-0.1,0.5-0.1c0.1,0,0.1,0,0.2,0c0.1,0,0.2,0,0.3,0c0.1,0,0.2,0,0.3,0c0.2,0,0.6,0.1,1.2,0.3c0.1,0,0.2,0.1,0.3,0.1
	c0.4,0.1,0.9,0.3,1.3,0.5c0.2,0.1,0.3,0.1,0.5,0.2c0.2,0.1,0.4,0.2,0.7,0.3c0.2,0.1,0.4,0.2,0.6,0.3c0.3,0.1,0.6,0.3,1,0.4
	c0.2,0.1,0.3,0.2,0.5,0.3c0.2,0.1,0.4,0.2,0.7,0.3c0.1,0.1,0.3,0.2,0.4,0.2c0.2,0.1,0.4,0.3,0.7,0.4h0c0.1,0.1,0.2,0.1,0.3,0.2
	c0.1,0.1,0.2,0.1,0.3,0.2c0,0,0.1,0,0.1,0.1c0.1,0.1,0.3,0.2,0.4,0.3c0.1,0.1,0.2,0.2,0.3,0.2c0.1,0.1,0.1,0.1,0.2,0.2
	c0.2,0.2,0.3,0.3,0.3,0.4c0,0.1-0.1,0.3-0.1,0.4v0c-0.1,0.1-0.1,0.3-0.2,0.4c-0.1,0.1-0.2,0.3-0.3,0.4c-0.1,0.1-0.2,0.3-0.3,0.4
	c-0.1,0.1-0.2,0.2-0.4,0.4c-0.5,0.5-1.1,0.9-1.6,1.4c-0.1,0.1-0.3,0.3-0.4,0.4c-0.1,0.1-0.2,0.2-0.3,0.4c-0.1,0.2-0.3,0.4-0.3,0.6
	c-0.1,0.1-0.2,0.3-0.2,0.5c-0.1,0.2-0.1,0.3-0.2,0.5c-0.4,1.7-0.7,4.8,1.1,5.7c1.6,0.8,1.8-3.1,2.7-4.5c2.1-3.1,9.6-9.2,13.4-8.3
	c0,0,0.1,0,0.1,0.1c0,0,0.1,0.1,0.1,0.1c0.1,0.1,0.2,0.2,0.3,0.4c0,0.1,0.1,0.2,0.1,0.3c0.1,0.1,0.2,0.3,0.2,0.5
	c0.1,0.3,0.3,0.6,0.4,1c0.1,0.1,0.1,0.3,0.2,0.4c0.1,0.3,0.3,0.6,0.4,1c0,0,0,0,0,0c0.1,0.2,0.1,0.3,0.2,0.5c0,0.1,0.1,0.2,0.1,0.3
	c0,0.1,0.1,0.2,0.1,0.3c0.1,0.2,0.1,0.4,0.2,0.6c0.6,1.6,1.2,3.3,1.6,4.9c0,0.2,0.1,0.3,0.1,0.4c0.1,0.3,0.2,0.6,0.2,0.9
	c0.1,0.3,0.1,0.5,0.1,0.7c0.1,0.2,0.1,0.4,0.1,0.6C220.6,107.9,220.6,107.9,220.6,108L220.6,108L220.6,108
	C220.6,108,220.6,108,220.6,108z M120.5,97.5c-2.4-2.3-0.3-4.1,1.9-5.4c11.9-7.4,37.2-12.1,50.5-8.4c1.6,0.4,11.8,4.7,11.9,5.5
	c-2.5,8.5-7.1,2.4-10.7,0.6c-1.1-0.5-8.3-3.7-8.9-3.8c-5.6-1.1-8.3,1.7-12.6,1.9c-3.1,0.1-6-1.4-9.1-1.1c-1.8,0.2-7.5,4.9-9.2,6.3
	c-1,0.8-2.8,1.3-3.3,1.9c-0.9,0.9-1.2,2.6-1.2,4.4c0,0.3,0,0.6,0,1c0,0.2,0,0.5,0.1,0.7c0,0.2,0,0.4,0.1,0.6c0,0.3,0.1,0.6,0.2,0.9
	c0.1,0.3,0.1,0.6,0.2,0.9c0.1,0.2,0.1,0.3,0.2,0.5c0,0.1,0.1,0.2,0.1,0.3c0.1,0.2,0.2,0.5,0.3,0.7c0.1,0.1,0.1,0.3,0.2,0.4
	c0.1,0.2,0.2,0.3,0.3,0.4c0.1,0.2,0.2,0.3,0.4,0.4c0.1,0.1,0.2,0.2,0.3,0.3c0.1,0.1,0.2,0.2,0.3,0.2c0.6,0.4,3.5-1.6,4.6,2.6
	l17.9,5.7c-1.5,2.9-10,2.2-12.6,1.3c-0.9-0.3-14.9-11.1-15.9-12.2c-0.2-0.3-0.4-0.5-0.6-0.8c-0.2-0.2-0.3-0.5-0.4-0.7
	c-0.2-0.4-0.4-0.8-0.5-1.2c-0.1-0.2-0.2-0.5-0.2-0.7c0-0.1-0.1-0.2-0.1-0.3c-0.1-0.2-0.1-0.4-0.2-0.6c-0.1-0.2-0.1-0.4-0.2-0.5
	c-0.1-0.1-0.1-0.3-0.2-0.4C123.1,98.1,121.3,98.3,120.5,97.5z M126.1,114.7c1.8,2,4.3,3,6,4.8c-6,1.2-9.9-2.1-10-8.2
	C125.9,110.5,124.5,113,126.1,114.7z"/>
<path style="fill:#76C372;" d="M248.6,264.9c0,0.1,0,0.2,0,0.3c0,0.1,0,0.2,0,0.2c0,0.1,0.1,0.2,0.1,0.3c0.1,0.1,0.1,0.1,0.2,0.2
	c0.3,0.2,1,0,2-0.5c0.1-0.1,0.2-0.1,0.3-0.2l0.2-0.2c0,0,0.1-0.1,0.1-0.1c0.1-0.1,0.2-0.2,0.3-0.3c0.1-0.1,0.1-0.2,0.2-0.3
	c0.1-0.1,0.1-0.2,0.2-0.3c0.1-0.1,0.1-0.2,0.2-0.3h0c0-0.1,0.1-0.1,0.1-0.2c0.1-0.1,0.1-0.3,0.2-0.4c0,0,0-0.1,0-0.1h0
	c0.1-0.1,0.1-0.2,0.2-0.3c0.1-0.1,0.1-0.2,0.2-0.3h0c0.1-0.1,0.1-0.2,0.2-0.4c0.1-0.1,0.1-0.2,0.2-0.3h0c0.1-0.1,0.1-0.2,0.2-0.4
	c0.1-0.1,0.2-0.2,0.2-0.3c0.1-0.1,0.2-0.2,0.3-0.4c0-0.1,0.1-0.1,0.1-0.2c0,0,0.1-0.1,0.1-0.1c0,0,0,0,0-0.1
	c0.1-0.1,0.2-0.2,0.3-0.3h0c0.1-0.1,0.2-0.2,0.3-0.3c0.2-0.2,0.4-0.4,0.6-0.6c0.2-0.2,0.3-0.3,0.5-0.4c0.2-0.1,0.3-0.3,0.5-0.4
	c0.2-0.2,0.4-0.3,0.7-0.4c0.2-0.1,0.3-0.1,0.5-0.2c0.1,0,0.2-0.1,0.3-0.1c0.1,0,0.3-0.1,0.4-0.1c0.1,0,0.2,0,0.3,0c0,0,0.1,0,0.1,0
	c0.1,0,0.3,0,0.4,0c0.1,0,0.2,0,0.3,0h0.1c0.1,0,0.2,0,0.3,0c0,0,0,0,0,0c0.3,0,0.5,0.1,0.8,0.2c0.2,0.1,0.3,0.1,0.5,0.2
	c0.4,0.1,0.7,0.3,1.1,0.6c2.4,3.5-2.1,5.7-2.3,7.7c-0.1,2.6,2.9,12.9-0.6,14.1l-3.1,0.1c0-0.6,0-1.2,0-1.7c0-0.4,0-0.9-0.1-1.3
	c0-0.3-0.1-0.7-0.1-1c0-0.3-0.1-0.5-0.1-0.7c0-0.1,0-0.2-0.1-0.3c-0.1-0.3-0.1-0.6-0.2-0.8c0-0.1-0.1-0.3-0.1-0.4
	c-0.1-0.3-0.2-0.6-0.4-0.9c0-0.1-0.1-0.2-0.1-0.3c-0.2-0.4-0.5-0.9-0.8-1.3c-0.1-0.1-0.1-0.2-0.2-0.3c-0.1-0.1-0.2-0.3-0.3-0.4v0h0
	c-0.1-0.2-0.3-0.3-0.5-0.5c-0.1,0.1-0.1,0.1-0.2,0.2c0,0,0,0-0.1,0.1l-0.2,0.3c-0.2,0.2-0.3,0.4-0.5,0.5c-0.1,0.2-0.3,0.3-0.4,0.5
	c0,0,0,0.1,0,0.1c-0.1,0.1-0.1,0.1-0.2,0.2c-0.1,0.1-0.1,0.2-0.2,0.3c0,0-0.1,0.1-0.1,0.1c-0.1,0.2-0.3,0.4-0.4,0.6
	c-0.2,0.3-0.4,0.6-0.5,1c-0.1,0.2-0.2,0.3-0.2,0.5c-0.1,0.2-0.1,0.3-0.2,0.5c-0.1,0.3-0.3,0.6-0.3,1c0,0.1-0.1,0.3-0.1,0.4
	c-0.1,0.2-0.1,0.4-0.2,0.6c0,0.2-0.1,0.3-0.1,0.5c0,0.1,0,0.2,0,0.2c0,0.1,0,0.1,0,0.1c-0.1,0.4-0.1,0.8-0.1,1.2c0,0.1,0,0.3,0,0.4
	c0,0.5,0,1,0,1.5c0,0.1,0,0.2,0,0.3c0,0,0,0,0,0.1c0,0,0,0,0,0s0,0,0,0c0,0.2,0.1,0.5,0.1,0.7c0,0.1,0,0.1,0,0.1c0,0.1,0,0.2,0,0.3
	c0,0.1,0,0.1,0,0.2c0.1,0.3,0.1,0.5,0.2,0.8c0,0,0,0,0,0.1c0,0.1,0.1,0.2,0.1,0.3c0.1,0.4,0.2,0.8,0.3,1.2c0.7,0.2,1.2,0,1.6-0.3
	c0.1-0.1,0.2-0.2,0.3-0.3c0,0,0,0,0.1-0.1c0.1-0.1,0.3-0.3,0.4-0.4c0.2-0.2,0.3-0.4,0.5-0.5c0.1-0.1,0.1-0.1,0.2-0.2
	c0.1-0.1,0.2-0.1,0.2-0.2c0,0,0,0,0.1-0.1c0,0,0.1,0,0.1,0c0.1-0.1,0.3-0.2,0.4-0.2c0.1,0,0.2-0.1,0.3-0.1c0.3,0,0.5-0.1,0.7-0.1
	c0.1,0,0.2,0,0.4,0c0.1,0,0.2,0,0.3,0c0.2,0,0.3,0.1,0.4,0.1c0.1,0,0.3,0.1,0.4,0.1c0,0,0,0,0,0c0.1,0.1,0.3,0.2,0.4,0.3
	c0.1,0.1,0.1,0.1,0.2,0.2c0.1,0.2,0.2,0.3,0.3,0.5c0.1,0.1,0.1,0.2,0.1,0.3c0.1,0.1,0.1,0.2,0.1,0.3c0.1,0.2,0.1,0.3,0.1,0.5
	c0,0,0,0,0,0c0,0.2,0.1,0.4,0.1,0.6c0,0.2,0.1,0.3,0.1,0.5v0.1c0,0.2,0,0.3,0.1,0.5c0,0.4,0.1,0.8,0.1,1.2c0,0.2,0.1,0.4,0.1,0.6
	c0,0.2,0.1,0.4,0.1,0.6c0.1,0.2,0.1,0.4,0.2,0.5l0.9,0.1c0.1,0,0.2,0,0.3-0.1c0.2-0.1,0.3-0.1,0.5-0.2c0.2-0.1,0.4-0.2,0.5-0.3
	c0.1-0.1,0.2-0.1,0.3-0.2c0.6-0.4,1.2-0.8,1.9-1.3c0.2-0.2,0.5-0.4,0.7-0.6c0.8-0.7,1.6-1.4,2.3-2c0.1-0.1,0.2-0.2,0.3-0.3
	c0.8-0.7,1.5-1.2,1.9-1.3c4.6-1.4,15.7,0.5,19.3,3.9l-17.2-108c1.2,13.5-1.6,26.4-5.9,38.6c-1.1,3.1-2.3,6.1-3.7,9.1l-2.2-0.1
	c-0.8,2.3,2.5,2.2,2.8,3.4c0.4,2.2-2.6,11.8-3.8,14.3c-3.8,7.5-5.4,7-7.2,16.4c0,0.2-0.3,0.8-0.6,1.5c0,0.1-0.1,0.2-0.1,0.3
	c-0.2,0.5-0.4,1.1-0.5,1.6c0,0.1-0.1,0.2-0.1,0.3c0,0.1,0,0.1,0,0.2v0C248.6,264.7,248.6,264.8,248.6,264.9z"/>
<path style="fill:#F3D65B;" d="M270,179.1l17.2,108c3.2,2.9,2.9,7.1,5,10.4c0.1,0,0.3-0.1,0.4-0.3c0,0,0-0.1,0-0.1
	c0,0,0-0.1,0.1-0.1c0,0,0.1-0.1,0.1-0.1c0,0,0,0,0-0.1c0-0.1,0.1-0.1,0.1-0.2c0-0.1,0.1-0.2,0.1-0.4c0,0,0-0.1,0-0.1
	c0.1-0.2,0.1-0.4,0.2-0.6c0-0.1,0-0.1,0.1-0.2c0.1-0.5,0.3-1,0.4-1.6c0-0.1,0.1-0.3,0.1-0.4c0-0.1,0.1-0.3,0.1-0.4
	c0-0.2,0.1-0.5,0.1-0.7c0-0.3,0.1-0.5,0.1-0.7c0-0.1,0-0.2,0.1-0.3c0-0.1,0-0.2,0-0.3c0-0.1,0-0.2,0.1-0.3c0.1-0.7,0.2-1.3,0.2-1.6
	c0.1-1.4,0.2-2.9,0.3-4.3c0.1-1.3,0.1-2.6,0.2-3.9v-0.1c0-0.2,0-0.5,0-0.7c0-0.6,0-1.1,0-1.7c0-0.5,0-1.1,0-1.6c0-0.4,0-0.8,0-1.2
	v-0.3c0-1.8,0-3.7,0-5.5c0-0.7,0-1.4,0-2.1c0-0.6,0-1.3,0-1.9c0-0.8,0-1.7-0.1-2.5c0-1.5-0.1-3-0.2-4.4c-0.1-1.4-0.1-2.9-0.2-4.3
	c0-0.9-0.1-1.8-0.1-2.6c-0.1-1.1-0.1-2.1-0.2-3.2c-0.2-4-0.5-8.1-0.8-12.2c-0.2-2.9,0.9-7.2,0.7-9c0-0.2-0.1-0.4-0.2-0.6
	c0-0.1-0.1-0.2-0.1-0.3c-0.1-0.1-0.1-0.2-0.2-0.3c-0.1-0.1-0.1-0.2-0.2-0.3c-0.1-0.1-0.2-0.3-0.3-0.5c-0.1-0.2-0.2-0.3-0.3-0.5
	c-0.1-0.2-0.3-0.5-0.4-0.7c-0.1-0.1-0.1-0.3-0.2-0.4c0-0.1-0.1-0.2-0.1-0.3c0,0,0-0.1-0.1-0.1c0-0.1-0.1-0.1-0.1-0.2
	c0-0.1-0.1-0.2-0.1-0.3c0,0,0,0,0-0.1c0-0.1-0.1-0.2-0.1-0.3c0,0,0,0,0-0.1c0-0.1-0.1-0.3-0.1-0.4c0-0.1,0-0.3,0-0.5
	c-0.4-9.4,0.8-17.6,0-28.1c-0.3-4,0.1-7.2-0.1-10.3c-0.2-2.7-0.8-5.4-2.7-8.7c-2-3.4-10.2-13.7-14.2-9.3
	C272.3,167.9,272.4,175.8,270,179.1z"/>
<path style="fill:#76C372;" d="M134.4,486.5c1.8,3.9-3.7,3.6-3.2,5.9l68.1-14.6c-1.2-1.4-2.3-2.7-3.1-3.7c-0.5-0.6-0.9-1.1-1-1.3
	c-6.7-9.7,0.4-8.3,5.2-11.8c2.3-1.7,3.7-5.3,7.6-6c4.4-0.8,7.2,5.7,12.7,2.4c1.5-4.4,2.4-11,4.5-15c5.1-9.9,22.3-10,31.4-6.6
	l2.3-8.7c4.1-1.5,9.3-1.4,13.2-3.1c2.1-0.9,3.5-3.1,5.6-3.5c3.5-0.8,6.1,1.5,9.3,0.3c2.2-2.3-2.3-0.7-1.8-4.6
	c0.1-0.4,1.7-0.4,2.1-1.5c1-2.4,0.8-6.3,0.1-9.2l-0.5-1.7l-1.5-1.8c-1.8-1-4.5-0.7-6.3-1.4c-2.6-1.1-9.2-6.3-9.9-6.5
	c-1.7-0.4-2.8,1.5-4.4,1.8c-4.8,0.8-6.6-5.8-9.9-8.2c-2.4,1.7-0.5,1.6-0.1,2.8c1.7,4.5,9.2,11.9,7.3,16.3c-2.1,5-9.1,1.5-9.5,1.9
	c-0.3,0.2-0.9,4-3.2,5.5c-1.3,0.9-3,0.7-4,1.4c-6.1,3.8-6.5,7-13.7-0.1c-2.5-2.4-6.6-8.8-8.9-12c-1.2-1.7-7-11.2-7.9-11.2
	c-1,0-1.4,1.8-1.2,3c0.1,0.6,2.4,8.5,2.6,9c0.6,1.4,2.9,1.2,3.4,3.1c0.5,1.6,1.3,10.9,0.6,12.1c-1.7,2.9-8,2.5-9.3,3.8
	c-2.2,2.2-0.9,8.8-7.6,12c-8.2,3.8-14.3-3.6-16.5-3c-2,0.5-5.1,5.9-10.6,3.5c0.7,8.1-10.5,11.9-10,0.9l-6.3,1.8
	c-0.6-3,2.9-1.2,4.1-3.6c2.3-4.7-0.6-4.8-1.7-6.5L128.9,482c0.5,0.4,1.3,1,2.1,1.6C132.5,484.6,134,485.8,134.4,486.5z"/>
<path style="fill:#D287BA;" d="M47.4,330.1c0.1,1.5,0.1,3.1,0.5,4.1c0.8,2.1,4.8,0.5,0.7,6.5c3.4,1.1,2.2,3.2,3.2,5
	c1.6,2.6,3.4,4,5,7.8c0.6,1.3-0.1,3,0,3.1c0.4,0.3,1.9,0.1,2.6,0.6c2.9,2.1,5.7,12.2,7.1,15.6c1.7,4.1,6.8,6.6-1.5,10.3l-0.1,1.2
	c1.2,1.7,1.5,4.3,2.4,5.9c2.4,4.4,6.1,9.2,8.2,13.1c2,3.7,5.1,7.2,3,11.5c4.9-1,3.7,2.3,4.8,3.4c0.4,0.4,1.9-0.1,2.5,0.8
	c1.8,2.2,0.6,6.3,4.5,10.8c4.5,5.3,12.1,12.8,15.8,18.7c5.3,8.3,9.5,17.7,15.3,25.5c1.4,1.9,2.9,3.6,4.5,5.3l3,2.8l33.7-53.7
	c-3-4.7-3.5-4.7-6.4-8.1c-0.5-0.6-4-9.5-4.1-10.6c-0.1-3,4.6-5.3,6.8-5.4c0.5,0,1.3,1.1,2.3,1c3.3-0.4,6.1-2.1,7.6-5l0.9,1.8
	c2.5,0.8,2.1-1.7,2.9-1.8c1.4-0.3,2.8,0,4.2,0.3c3.4,0.7,2.4,1.7,2.1,3c-0.1,0.5-0.2,1.1,0.3,1.8l5.6,2.8l0.3,5.8
	c5.9,1.1,5.5,6.6,10.5,7.3c0.8-0.9-7.3-19-6.2-23c1.7-6.2,9.7-1,11.2-3.3c0.8-1.2,0.2-4,0.6-5.7c0.2-1.1,1.3-2.1,1.5-3.1
	c0.3-1.4-0.7-2.4-0.8-3.4c0-0.4,4.8-4.5,6.1-4.9c7.2-1.8,3.4,2.1,6.1,4.4c1.9,0.5,3.5,2.1,5.1,3.5c1.9,1.6,3.7,2.8,6.3,1.9
	c0.2-0.8,0.1-1.4-0.3-2c-0.5-1-1.3-1.8-1.3-2.8c0-3.7,3.9-4.6,4.2-5.7c0.4-1.8-2-6.4,0.1-9.7l-96.1-31.6L47.4,330.1z"/>
<path style="fill:#F3D65B;" d="M101.4,241.3l28.3,86.8l2.5,7.6l6.4-4.1l99.6-63.3h0c0.7-4.6,1.1-9.2,0.9-13.9
	c2.7-2.4,1.6-7.1,2.2-10.4c0.7-3.6,6.3-5.9,5.1-10.3c-0.2-0.7-1.5-0.6-1.6-0.8c-0.7-1.4,1.7-3.5,1.6-5.3c1.5-1.1,5.2,4.5,6.3,1.3
	c0.9-2.5-4.2-1.3-4.4-1.5c-1-2.3-1.4-5-1-7.5c0.9-4.8,4.3-9.4,5.1-13.2c0.8-3.8,1-10,2.3-14c0.4-1.2,2.3-1.1,2.6-2.1
	c0.6-2.3-0.6-6.2,0-8.7c0.2-0.7,1.8-0.3,1.9-2c0.3-4.2-2.1-10.6-1.9-15.1l0,0l-0.3,0l-79.8,86l-45.1-46.3L101.4,241.3z"/>
<path style="fill:#E15E5A;" d="M132.1,335.6l96.1,31.6c0.4-0.6,0.9-1.1,1.6-1.6c3.6-2.5,5.9-0.6,8.9-0.8c1.7-0.1,2.7-1.3,3.6-1.5
	c7.5-0.8,20.6-1.6,27.7,0.9c3.2,1.1,4.9,5.5,8.6,5.9c2-1.4,0.8-1.4,0.6-2.4c-0.4-1.8-1.4-2.8-1.1-5.4c0-0.1,0-0.2,0.1-0.3
	c0-0.1,0.1-0.2,0.1-0.4c0-0.1,0-0.2,0.1-0.2c0-0.1,0.1-0.3,0.1-0.4c0,0,0-0.1,0-0.1c0.1-0.4,0.2-0.8,0.4-1.3c0,0,0-0.1,0-0.1
	c0.1-0.3,0.2-0.7,0.3-1c0.1-0.3,0.2-0.7,0.3-1c0.1-0.3,0.2-0.6,0.3-0.9c0.1-0.2,0.2-0.5,0.2-0.7c0-0.1,0.1-0.2,0.1-0.2
	c0.2-0.5,0.3-0.9,0.3-1c0.9-1.9,5.6-3.3,7.2-5.5c0-0.1,0.1-0.1,0.1-0.2c0.2-0.4,0.6-1.1,1.1-2c0.2-0.3,0.3-0.6,0.5-1
	c0.2-0.4,0.5-0.9,0.7-1.4c0.2-0.3,0.4-0.7,0.6-1c0.1-0.2,0.2-0.4,0.3-0.5v0c1.8-3.4,3.5-6.9,3.8-7.6c0.8-2.6,1.2-10.6-1.2-12.1
	c-3.6-2.4-16.1,4.5-24.1-3.1c-2.5-2.4-3-6-4.5-8.1c-1.1-1.5-5.6-3.4-5.8-4.4c-0.6-2.4,0.4-7,0.1-9.8c-0.3-2.4-2.3-4.1-1.9-6.8
	c-4.9-1.2-4.2,3.2-6.4,4.9c-6.5,5.1-8.3-4.6-9.5-4.9l-5.4,2.7l-3-2.4c1.9-7.7,4-15.4,5.2-23.2l-99.6,63.3L132.1,335.6z"/>
<polygon style="fill:#D287BA;" points="94.2,215.5 101.4,241.3 132.1,204.7 177.2,250.9 257,164.9 119.5,192.3 "/>
<path style="fill:#E15E5A;" d="M65,110l29.3,105.5l25.2-23.2L257,164.9l0.3-0.3c0,0.1,0,0.2,0,0.2c0-0.1,0-0.2,0-0.3
	c0.3-4,3.9-7.7,4.3-9.3c0.2-0.9-0.7-2.2-0.5-3.3c0.3-1.8,2.1-3.3,2.3-4.9c0.7-5-7.5-22.3-8.7-29.1c-0.6-3.7,0.2-7.2-0.8-11.1
	c-0.2-0.8-4.3-6.5-4.9-6.9c-5.4-3.6-16-3.7-22.1-6.8c-2.8,0.6,0.6,9.6,0.5,12.2c-0.1,1.3-1.4,5.2-2.1,6.2c-0.9,1.4-9.7,10-11.1,10.7
	c-4.7,2.3-10.4,3.1-15.7,6c-3.9,2.1-10.6,8.6-13.5,9.2c-3,0.6-8.4-0.8-12.1-0.3c-6,0.9-10.5,4.5-16.7,5c-5.4,0.4-18.8-0.4-24.4-1.1
	c-15.1-1.6-31.7-16-45.3-22.8C79.8,115.2,71.9,112.9,65,110z"/>
<path style="fill:#FFFFFF;" d="M257.2,165.6c0-0.2,0-0.4,0.1-0.8C257.2,165.2,257.2,165.4,257.2,165.6z"/>
<path style="fill:#D287BA;" d="M25.1,95.5c-0.1,3.1,0.9,5.3,1,8.1c0,0.7-0.1,1.5-0.3,2.3L65,110c-3.5-7.8,7.6-10,13.2-11.3
	c2.1-0.5,4.6,0.3,7-0.3c3.2-0.8,9.2-4.9,12.3-5.9c12.7-4,20.6-6.9,32.8-11.6c4.6-1.8,9.2-3.1,13.7-4.1l14.4-62.9l-6.7-7.8
	c-2.5,0-5.1,0.1-7.6,0.2c-10.3,0.6-21,2.2-29.5,0.5C99.8,7.7,84,5.8,69.9,9.6l-1.7-1.9c-2.3-0.3-4.9,2.5-6.5,2.7
	c-1.1,0.1-2.4-1.6-4.4-1.7c-3.1-0.2-6.7,2-10,2c-2.9,0-4.5-1.6-7.2-1.9c-0.6-0.1-1.3-0.2-2-0.2l-5.4,6.3c0.7-0.3,1.5-0.5,2.4-0.6
	c0.6,0.6-3,6.2-3.6,6.7c-1.2,1-2.7,0.5-2.8,0.6c-0.4,0.4,0.8,2.8,0.6,3.9c-0.1,1-1.5,1.9-1.6,3.8c-0.2,2.9,1.9,7.1,1,10.4L26,37.8
	c0,5.7-0.7,11.2-1,16.8c-0.2,4.5,2.1,7.4-1.7,10.9l3.6,2.8c0.5,1.8-1.9,3.1-1.7,4.3c0.2,0.9,2.3,1.7,2.7,3.8
	C28.5,80.4,25.2,90.5,25.1,95.5z"/>
<path style="fill:#76C372;" d="M186.9,0c7,7,15.6,11.6,21.6,14.1c4.6,3.6,8.7,7.8,13.3,11.5c0.8,0.7,1.2,2.2,1.9,2.6
	c2.7,1.7,5.9-1,8.4-0.3c3.3,0.9,11.1,12.1,13.8,15.3c3.8,4.5,10.1,8.7,11.7,14.7c0.8,2.8-0.5,4.2-0.2,6.4c0,0.1,0.1,0.3,0.1,0.4
	c0,0.1,0,0.2,0.1,0.3c0,0,0,0.1,0,0.1l0,0l0,0c0,0.1,0,0.2,0.1,0.3c0.1,0.4,0.2,0.8,0.3,1.1c0.1,0.2,0.1,0.5,0.2,0.7
	c0.2,0.8,0.5,1.5,0.8,2.3c0.2,0.4,0.3,0.9,0.5,1.3c0.4,0.9,0.7,1.8,1.1,2.7v0c0,0,0,0,0,0c0.2,0.4,0.4,0.9,0.6,1.4
	c0.1,0.2,0.2,0.5,0.3,0.7c0.1,0.3,0.2,0.6,0.4,0.9c0.1,0.2,0.1,0.4,0.2,0.5c0.1,0.4,0.3,0.7,0.4,1.1c0.1,0.4,0.3,0.7,0.4,1.1
	c0.2,0.5,0.3,1,0.5,1.5c0.1,0.3,0.1,0.5,0.2,0.8c0.1,0.3,0.1,0.5,0.2,0.8c0.1,0.3,0.1,0.5,0.2,0.8c0.1,0.3,0.1,0.5,0.2,0.8
	c0,0.1,0,0.2,0,0.3c0,0.1,0.1,0.2,0.1,0.3c0,0.1,0,0.2,0,0.2c0,0.1,0,0.2,0.1,0.3c0,0,0,0.1,0,0.1c0,0.1,0,0.3,0.1,0.4
	c0,0.2,0.1,0.4,0.1,0.6c0.1,0.4,0.1,0.8,0.1,1.1c0.1,1.9,0,3.6-0.3,5.1c0,0,0,0,0,0c-0.1,0.6-0.2,1.1-0.3,1.7
	c-0.1,0.5-0.2,0.9-0.3,1.4c-0.1,0.2-0.1,0.4-0.2,0.7c-0.3,1.1-0.5,2.2-0.7,3.3c0,0.3-0.1,0.5-0.1,0.7c0,0.1,0,0.2,0,0.3
	c0,0.2,0,0.4,0,0.6c0,0.1,0,0.2,0,0.2c0,0.2,0,0.4,0,0.6c0,0.2,0,0.4,0,0.6c0,0.4,0.1,0.7,0.1,1.1c0,0.2,0.1,0.3,0.1,0.5
	c0.2,1.1,0.6,2.2,1,3.3c0.1,0.2,0.2,0.4,0.3,0.6c0.3,0.7,0.6,1.4,1,2.1c0.1,0.2,0.2,0.5,0.3,0.7c0.1,0.3,0.3,0.6,0.4,0.9
	c0.1,0.3,0.3,0.6,0.4,1c0.1,0.3,0.3,0.7,0.4,1c0.1,0.4,0.2,0.7,0.3,1.1c0.1,0.3,0.1,0.6,0.2,1c0,0.3,0.1,0.5,0.1,0.8
	c0,0.3,0.1,0.5,0.1,0.8c0,0.1,0,0.2,0,0.3c0,0.4,0,0.8,0,1.2c0,0.1,0,0.2,0,0.3c0,0.3-0.1,0.7-0.1,1c-0.1,0.4-0.2,0.8-0.3,1.1
	s-0.3,0.7-0.5,1c-0.2,0.3-0.3,0.6-0.4,0.9c0,0,0,0,0,0c0,0.1-0.1,0.1-0.1,0.2c-0.1,0.3-0.2,0.5-0.2,0.7c-1.3,6.5,4.2,10.9,4.4,16.2
	c0.2,4.7-3,15-5.5,19.1c1.1,12.3,3.5,1.4,8.9-1.2c8-3.9,12.6,1.1,17.4,6.6c0.1,0.1,0.2,0.3,0.3,0.4c0,0,0,0,0,0c0,0,0,0.1,0.1,0.1
	c0.2,0.3,0.4,0.6,0.6,0.9c0.1,0.1,0.1,0.3,0.2,0.4c0.3,0.6,0.6,1.2,0.9,1.7c0.2,0.2,0.3,0.5,0.5,0.7c0.4,0.5,0.9,0.8,1.6,0.8
	c0.9,1,1.8,2,2.6,2.9V0L186.9,0z"/>
<path style="fill:#76C372;" d="M267.2,120c0.1-0.3,0.1-0.7,0.1-1h0C267.3,119.3,267.2,119.6,267.2,120z"/>
<path style="fill:#76C372;" d="M265.8,123.1c0-0.1,0.1-0.1,0.1-0.2c0,0,0,0,0,0c0,0,0,0,0,0C265.9,123,265.9,123.1,265.8,123.1z"/>
<path style="fill:#76C372;" d="M264.2,92.4c0.3-1.5,0.4-3.2,0.3-5.1c0-0.4-0.1-0.8-0.1-1.1c0,0.4,0.1,0.8,0.1,1.1
	C264.6,89.2,264.5,90.9,264.2,92.4z"/>
<path style="fill:#76C372;" d="M264.2,85.1c0.1,0.4,0.1,0.7,0.1,1.1c0-0.2,0-0.4-0.1-0.6c0-0.1,0-0.3-0.1-0.4
	C264.3,85.1,264.2,85.1,264.2,85.1z"/>
<path style="fill:#76C372;" d="M263.9,83.1c0.1,0.4,0.2,0.8,0.2,1.2c0,0.1,0,0.1,0,0.2c0-0.1,0-0.2-0.1-0.3c0-0.1,0-0.2,0-0.3
	C264,83.6,264,83.3,263.9,83.1z"/>
<path style="fill:#76C372;" d="M263.3,80.7c0.1,0.5,0.3,1,0.4,1.6c-0.1-0.3-0.1-0.5-0.2-0.8C263.4,81.2,263.4,81,263.3,80.7z"/>
<path style="fill:#FFFFFF;" d="M253,270.6c0.1-0.1,0.1-0.1,0.2-0.2l0,0C253.1,270.4,253,270.5,253,270.6z"/>
<path style="fill:#FFFFFF;" d="M251.6,272.2c0.1-0.1,0.1-0.1,0.2-0.2c0,0,0,0,0-0.1c0,0,0,0.1-0.1,0.1
	C251.7,272.1,251.7,272.1,251.6,272.2z"/>
<path style="fill:#FFFFFF;" d="M251,273.1c0.1-0.2,0.2-0.4,0.4-0.6c0,0,0-0.1,0.1-0.1c0,0-0.1,0.1-0.1,0.1
	C251.3,272.7,251.2,272.9,251,273.1z"/>
<path style="fill:#FFFFFF;" d="M220.6,108C220.6,108,220.6,108,220.6,108c0,0.1,0,0.1,0,0.2c0,0,0-0.1,0-0.1
	C220.6,108,220.6,108,220.6,108L220.6,108z"/>
<path style="fill:#FFFFFF;" d="M286.4,313.6c0.1-0.1,0.2-0.3,0.3-0.4l-0.1,0.1C286.6,313.5,286.5,313.5,286.4,313.6z"/>
<path style="fill:#FFFFFF;" d="M280.9,316.4c0.2,0,0.4,0.1,0.6,0.1c0.1,0,0.2,0,0.3,0C281.5,316.5,281.2,316.5,280.9,316.4z"/>
<path style="fill:#FFFFFF;" d="M267.4,303.3c0,0.1,0.1,0.2,0.1,0.3C267.5,303.5,267.5,303.4,267.4,303.3c-0.2-0.6-0.2-1.3-0.2-1.9
	c0-0.5,0-1.1,0.1-1.6c0,0.3,0,0.6-0.1,0.8C267.2,301.5,267.2,302.4,267.4,303.3z"/>
<path style="fill:#F3D65B;" d="M144,76.8c17.4-3.7,34.5-1.6,51.6,6c4.2,1.8,9.3,7.4,14.9,6.7c7.7-0.9,7.6-3.5,17.7-1.2
	c5.6,1.2,11,2.2,16.7,3.3c3.1,0.6,7.4,3.3,10.2,4.9l2.1-0.8c2.3-3-1.1-15.1-3.4-17.5c-1-1-3.2-1.3-4.6-2.7
	c-13.3-13.3-26.2-32-41.2-43.2c-4.8-3.5-21.9-9-24-13.2c-2-3.9,4.9,1,5.2,1.1c2,0.7,4.6,0.5,6.8,1.4c2.8,1.2,13.3,8.8,15.2,7
	c0.4-1.8-0.4-2.4-1.3-3.7c-2.8-3.7-16.2-8.9-21.1-11.6c-3.3-1.8-4.5-4.8-9.1-5.4c-1.2-0.2-9.8,0.1-7.5,2.5c2.7,1.2,11.2,4.6,9.5,8.2
	c-4.8-2.4-10-7.6-14.7-9.8c-0.3-0.1-0.6-0.3-0.9-0.4c-0.3-0.1-0.6-0.3-0.9-0.4c-0.3-0.1-0.6-0.2-0.9-0.3c-0.5-0.2-1.1-0.3-1.7-0.5
	c-0.3-0.1-0.5-0.1-0.8-0.2c-0.5-0.1-0.9-0.2-1.4-0.3c-0.8-0.2-1.7-0.3-2.6-0.4c-0.5-0.1-1-0.1-1.5-0.2l-0.5,0
	c-0.7-0.1-1.3-0.1-2-0.1c-0.6,0-1.2,0-1.8-0.1c-0.1,0-0.2,0-0.3,0l6.7,7.8L144,76.8z"/>
<path style="fill:#76C372;" d="M18.8,248.5c0.3,0.3,3.6-2.1,5,0.9c1,1.8,0.1,4.1,0.4,5.7c0.2,0.8,2.1,1.1,3,2.7
	c0.8,1.6,3.5,11.2,3.2,12.7c-0.3,1.9-2.4,4.3-2.6,6.6l0.9,0.9c1.6-1.1,4.3,3.2,4.5,4.5c0.8,3.8-5.9-1.8-7.3,0
	c1.6,1.1,9.7,4.9,10,6.4c0.2,1-1.4,1.9-1.5,2.8c-0.3,1.4,1,3.7,0.6,6.2c-0.4,2.6-5.9,8.9,0.9,8.7c0.8-2.5-1.5-1.6-1.7-1.9
	c-0.8-1.2,0.9-4.4,3.2-0.1c0.8,1.5-0.2,3.1,2.9,4.2c-4.2,3.1,2.7,8.7,2.8,9.3c0.3,1.4-1.1,3.2-0.8,4.3c0.3,1.2,3,1.7,3.9,3.3
	c0.7,1.2,0.9,2.8,1,4.3l84.7,5.5l-2.5-7.6l-28.3-86.8l-7.1-25.7L65,110L25.8,106c-0.3,1.3-0.7,2.5-0.6,3.1c0.4,1.6,4.7,1.8,3.5,5.1
	l-3.6,1.4l1.9,1l-6.4,26.2c2.9,17,3.6,32.5,9.7,48.4c4,10.3-4.3,8.3-6.4,14c-0.4,1.2-1.5,6.2-1.1,7.1l5.4,2.7l0.5,1.9l-3.2,1.8
	c-0.5,1,2.8,2.5-0.8,4.5l-1.3-2.7c0.3,1.9-2.6,2.6-2.8,3.3c-0.2,0.7,0.8,4.7,1,4.8c0.8,0.6,3.2-1.6,4.1,0l0.5,4.1l-2.8,0.5l0.9,5.5
	C15.8,236.8,20.4,243.7,18.8,248.5z"/>
<path style="fill:#F3D65B;" d="M131.2,492.4c1.9,1.2,2.2,3.5,3.2,5c0.7,1,2.3,1.3,2.7,1.9c0.8,1.2-0.9,3.1-0.5,3.6
	c0.3,0.4,4.3,0.6,5.2,1.2c0.5,0.3,7.5,7.6,8.4,8.6c2,2.2,4.3,9.2,5.7,10c3.2,1.8,3.2-0.2,7.6,4.2c4,4.1,10.8,12.4,13.5,17.8
	c0.7,1.5,0.6,6,2,6.4c3.9,0.7,8.2-0.8,11.7-0.9c2.5-0.1,5,1.4,8,0.8c3.2-0.6,2.3-3.5,4.6-3.7c2.9-0.3,8.5,2.5,12.7,2.9
	c9.4,0.7,22.9-0.4,32.6-0.9c4.1-0.2,11.4-3.7,14.6-3.7c1.9,0,3.1,3.8,7.1,2.8c0.9-0.2,1-2.2,1.9-2.8c2.4-1.7,6-1.8,7.8-5
	c0-0.9-8.8-5.5-10.2-6.8c-3.9-3.6-7.9-8.6-12.4-12.3c-7.5-6.2-14.6-6.6-21.3-12.3c-4.1-3.4-7.8-10.6-11.4-13.1
	c-4.3-3-13.6-6.2-16.8-8.6c-0.6-0.4-5-5.6-8.5-9.7L131.2,492.4z"/>
</svg>
